<svg width="680" height="244" viewBox="0 0 680 244" fill="none" xmlns="http://www.w3.org/2000/svg">
<path d="M22.9141 114.859V110.383L2.75781 122.266V125.734L22.9141 137.617V133.141L6.78906 124.211V123.789L22.9141 114.859ZM42.9531 107.336C44.8281 107.336 46.2578 105.93 46.2578 104.055C46.2578 102.203 44.8281 100.797 42.9531 100.797C41.0781 100.797 39.6484 102.203 39.6484 104.055C39.6484 105.93 41.0781 107.336 42.9531 107.336ZM53.6172 139V135.695H45.2031V113.57H32.6172V116.875H41.2656V135.695H32.5469V139H53.6172ZM84.4375 120.273C84.4375 115.562 82.5859 113.102 79.0469 113.102C76.4922 113.102 74.4531 114.648 73.7969 117.086H73.375C72.8359 114.578 71.1484 113.102 68.7578 113.102C66.3672 113.102 64.5391 114.602 63.9062 117.156H63.4844V113.57H59.9219V139H63.5078V121.844C63.5078 118.68 64.9141 116.734 67.1641 116.734C69.3203 116.734 70.4453 118.352 70.4453 121.422V139H74.0078V121.844C74.0078 118.68 75.3672 116.734 77.5938 116.734C79.7266 116.734 80.8516 118.352 80.8516 121.445V139H84.4375V120.273ZM101.102 148.539C107.992 148.539 112.07 144.977 112.07 139V113.57H108.133V117.508H107.688C106.586 114.766 103.797 113.148 100.117 113.148C94.1641 113.148 90.2734 117.367 90.2734 123.906V128.477C90.2734 134.992 94.1406 139.234 100.023 139.234C103.727 139.234 106.539 137.617 107.664 134.945H108.086V138.906C108.086 142.984 105.625 145.234 101.172 145.234C97.7734 145.234 95.2188 143.852 94.7031 141.742H90.7656C91.2812 145.961 95.2188 148.539 101.102 148.539ZM94.2812 127.914V124.422C94.2812 119.758 97 116.734 101.219 116.734C105.414 116.734 108.109 119.734 108.109 124.422V127.914C108.109 132.602 105.414 135.625 101.219 135.625C97 135.625 94.2812 132.578 94.2812 127.914ZM655.539 114.859L671.641 123.789V124.211L655.539 133.141V137.617L675.695 125.734V122.266L655.539 110.383V114.859Z" fill="#FFA11F"/>
<path d="M151.938 120.438C151.938 124.047 154.211 126.367 158.805 127.422L162.578 128.289C165.812 129.016 167.055 130.094 167.055 132.109C167.055 134.547 164.852 136.117 161.383 136.117C158.102 136.117 155.852 134.758 155.266 132.414H151.211C151.656 136.773 155.477 139.469 161.242 139.469C167.266 139.469 171.18 136.422 171.18 131.734C171.18 128.055 168.93 125.898 163.984 124.773L160.398 123.953C157.211 123.25 155.898 122.148 155.898 120.203C155.898 117.883 157.984 116.383 161.219 116.383C164.195 116.383 166.328 117.742 166.797 119.969H170.641C170.172 115.727 166.586 113.078 161.289 113.078C155.688 113.078 151.938 116.031 151.938 120.438ZM189.859 127.609C189.859 121.141 193.188 117.25 198.812 117.25C200.195 117.25 201.836 117.531 203.008 117.953V113.477C202.164 113.125 200.781 112.914 199.328 112.914C194.43 112.914 191.266 115.352 190.328 120.062H189.812V113.57H180.32V116.758H185.969V135.812H180.836V139H197.734V135.812H189.859V127.609ZM231.133 121.492C230.477 116.266 226.633 113.078 221.008 113.078C214.094 113.078 210.062 117.32 210.062 124.609V127.938C210.062 135.227 214.094 139.469 221.008 139.469C226.633 139.469 230.5 136.305 231.133 131.125H227.195C226.703 134.031 224.219 135.883 220.938 135.883C216.508 135.883 214.047 132.883 214.047 127.422V125.125C214.047 119.664 216.508 116.641 220.938 116.641C224.219 116.641 226.703 118.516 227.195 121.492H231.133ZM262.609 120.602V116.734H237.812V120.602H262.609ZM262.609 131.289V127.422H237.812V131.289H262.609Z" fill="#2A94C0"/>
<path d="M277.445 120.273V105.18H273.156V120.273H277.445ZM286.609 120.273V105.18H282.297V120.273H286.609ZM316.422 132.438C315.719 134.664 313.352 136.023 310.141 136.023C305.805 136.023 303.039 133.023 303.039 128.359V127.328H320.359V124.844C320.359 117.484 316.469 113.102 309.859 113.102C303.391 113.102 299.102 117.508 299.102 124.211V128.031C299.102 135.273 303.156 139.469 310.141 139.469C315.484 139.469 319.516 136.633 320.289 132.438H316.422ZM309.836 116.523C313.938 116.523 316.422 119.453 316.422 124.305H303.039C303.039 119.43 305.594 116.523 309.836 116.523ZM339.32 129.203L345.719 139H350.336L341.57 126.109L350.266 113.57H345.789L339.484 123.203H339.156L332.828 113.57H328.117L336.906 126.273L328.188 139H332.594L339.016 129.203H339.32ZM366.32 139.445C370.023 139.445 372.789 137.922 374.008 135.203H374.406V139.023H378.203V121.609C378.203 116.312 374.781 113.266 368.805 113.266C363.602 113.266 359.664 116.055 359.195 120.133H363.109C363.766 117.953 365.828 116.711 368.758 116.711C372.297 116.711 374.242 118.469 374.242 121.656V123.953L367.258 124.305C361.469 124.609 358.234 127.281 358.234 131.781C358.234 136.398 361.469 139.445 366.32 139.445ZM367.469 135.953C364.258 135.953 362.266 134.312 362.266 131.641C362.266 128.992 364.141 127.469 367.703 127.305L374.242 127V130C374.242 133.398 371.312 135.953 367.469 135.953ZM410.828 120.273C410.828 115.562 408.977 113.102 405.438 113.102C402.883 113.102 400.844 114.648 400.188 117.086H399.766C399.227 114.578 397.539 113.102 395.148 113.102C392.758 113.102 390.93 114.602 390.297 117.156H389.875V113.57H386.312V139H389.898V121.844C389.898 118.68 391.305 116.734 393.555 116.734C395.711 116.734 396.836 118.352 396.836 121.422V139H400.398V121.844C400.398 118.68 401.758 116.734 403.984 116.734C406.117 116.734 407.242 118.352 407.242 121.445V139H410.828V120.273ZM429.836 113.148C426.203 113.148 423.555 114.648 422.219 117.461H421.797V113.57H417.859V147.578H421.914V135.062H422.359C423.461 137.852 426.156 139.422 429.836 139.422C435.719 139.422 439.562 135.18 439.562 128.664V123.93C439.562 117.391 435.719 113.148 429.836 113.148ZM428.688 116.805C432.883 116.805 435.555 119.805 435.555 124.492V128.148C435.555 132.836 432.883 135.859 428.688 135.859C424.492 135.859 421.82 132.859 421.82 128.148V124.492C421.82 119.805 424.492 116.805 428.688 116.805ZM469.023 139V135.695H460.633V103.586H448.023V106.891H456.648V135.695H447.953V139H469.023ZM494.453 132.438C493.75 134.664 491.383 136.023 488.172 136.023C483.836 136.023 481.07 133.023 481.07 128.359V127.328H498.391V124.844C498.391 117.484 494.5 113.102 487.891 113.102C481.422 113.102 477.133 117.508 477.133 124.211V128.031C477.133 135.273 481.188 139.469 488.172 139.469C493.516 139.469 497.547 136.633 498.32 132.438H494.453ZM487.867 116.523C491.969 116.523 494.453 119.453 494.453 124.305H481.07C481.07 119.43 483.625 116.523 487.867 116.523ZM517.258 139.141C519.578 139.141 521.5 137.195 521.5 134.805C521.5 132.438 519.578 130.492 517.258 130.492C514.938 130.492 513.016 132.438 513.016 134.805C513.016 137.195 514.938 139.141 517.258 139.141ZM548.523 113.148C544.891 113.148 542.242 114.648 540.906 117.461H540.484V113.57H536.547V147.578H540.602V135.062H541.047C542.148 137.852 544.844 139.422 548.523 139.422C554.406 139.422 558.25 135.18 558.25 128.664V123.93C558.25 117.391 554.406 113.148 548.523 113.148ZM547.375 116.805C551.57 116.805 554.242 119.805 554.242 124.492V128.148C554.242 132.836 551.57 135.859 547.375 135.859C543.18 135.859 540.508 132.859 540.508 128.148V124.492C540.508 119.805 543.18 116.805 547.375 116.805ZM566.195 139H570.18V124.023C570.18 119.688 572.992 116.758 577.188 116.758C581.148 116.758 583.023 118.914 583.023 123.508V139H587.008V122.5C587.008 116.406 584.008 113.102 578.477 113.102C574.609 113.102 571.703 114.883 570.344 118.047H570.016V113.57H566.195V139ZM605.523 148.539C612.414 148.539 616.492 144.977 616.492 139V113.57H612.555V117.508H612.109C611.008 114.766 608.219 113.148 604.539 113.148C598.586 113.148 594.695 117.367 594.695 123.906V128.477C594.695 134.992 598.562 139.234 604.445 139.234C608.148 139.234 610.961 137.617 612.086 134.945H612.508V138.906C612.508 142.984 610.047 145.234 605.594 145.234C602.195 145.234 599.641 143.852 599.125 141.742H595.188C595.703 145.961 599.641 148.539 605.523 148.539ZM598.703 127.914V124.422C598.703 119.758 601.422 116.734 605.641 116.734C609.836 116.734 612.531 119.734 612.531 124.422V127.914C612.531 132.602 609.836 135.625 605.641 135.625C601.422 135.625 598.703 132.578 598.703 127.914ZM633.508 120.273V105.18H629.219V120.273H633.508ZM642.672 120.273V105.18H638.359V120.273H642.672Z" fill="#74A800"/>
<path d="M345.926 46.1807H345.97L347.323 57H348.87L347.051 44.3174H345.398L339.07 57H340.688L345.926 46.1807ZM347.174 52.0342H342.674L342.173 53.3613H347.209L347.174 52.0342ZM355.62 44.9062L355.172 47.4902H352.623L352.412 48.7646H354.952L353.985 54.0029C353.956 54.1494 353.936 54.2871 353.924 54.416C353.912 54.5391 353.906 54.6562 353.906 54.7676C353.906 55.5059 354.155 56.0713 354.653 56.4639C355.157 56.8506 355.887 57.0439 356.842 57.0439C357.17 57.0439 357.53 57.0322 357.923 57.0088C358.315 56.9912 358.614 56.9736 358.819 56.9561L359.03 55.6904C358.843 55.708 358.591 55.7227 358.274 55.7344C357.958 55.7402 357.621 55.7432 357.264 55.7432C356.045 55.7432 355.436 55.3096 355.436 54.4424C355.436 54.3721 355.438 54.3018 355.444 54.2314C355.45 54.1553 355.462 54.0762 355.479 53.9941L356.446 48.7646H360.296L360.516 47.4902H356.648L357.097 44.9062H355.62ZM366.747 44.9062L366.299 47.4902H363.75L363.539 48.7646H366.079L365.112 54.0029C365.083 54.1494 365.062 54.2871 365.051 54.416C365.039 54.5391 365.033 54.6562 365.033 54.7676C365.033 55.5059 365.282 56.0713 365.78 56.4639C366.284 56.8506 367.014 57.0439 367.969 57.0439C368.297 57.0439 368.657 57.0322 369.05 57.0088C369.442 56.9912 369.741 56.9736 369.946 56.9561L370.157 55.6904C369.97 55.708 369.718 55.7227 369.401 55.7344C369.085 55.7402 368.748 55.7432 368.391 55.7432C367.172 55.7432 366.562 55.3096 366.562 54.4424C366.562 54.3721 366.565 54.3018 366.571 54.2314C366.577 54.1553 366.589 54.0762 366.606 53.9941L367.573 48.7646H371.423L371.643 47.4902H367.775L368.224 44.9062H366.747ZM377.751 52.7109C377.968 51.5039 378.419 50.5576 379.104 49.8721C379.79 49.1865 380.631 48.8438 381.627 48.8438C382.283 48.8438 382.799 48.9521 383.174 49.1689L383.455 47.5078C383.086 47.3145 382.617 47.2178 382.049 47.2178C381.188 47.2178 380.446 47.4463 379.825 47.9033C379.21 48.3604 378.744 49.0254 378.428 49.8984H378.234L378.656 47.4639H375.097L374.895 48.6592H377.004L375.536 57H376.986L377.751 52.7109ZM379.948 57L380.159 55.8047H373.822L373.611 57H379.948ZM390.97 45.126C391.321 45.126 391.614 45.0088 391.849 44.7744C392.089 44.54 392.209 44.2471 392.209 43.8955C392.209 43.5498 392.089 43.2598 391.849 43.0254C391.614 42.791 391.321 42.6738 390.97 42.6738C390.618 42.6738 390.322 42.791 390.082 43.0254C389.848 43.2598 389.73 43.5498 389.73 43.8955C389.73 44.2471 389.848 44.54 390.082 44.7744C390.322 45.0088 390.618 45.126 390.97 45.126ZM392.666 57L392.877 55.7607H389.713L391.189 47.4639H386.47L386.268 48.7031H389.502L388.245 55.7607H384.976L384.765 57H392.666ZM400.655 57.1582C401.657 57.1582 402.495 56.833 403.169 56.1826C403.843 55.5322 404.282 54.627 404.487 53.4668L404.786 51.7529C404.827 51.5479 404.854 51.375 404.865 51.2344C404.877 51.0879 404.883 50.9473 404.883 50.8125C404.883 49.7402 404.59 48.8877 404.004 48.2549C403.424 47.6221 402.633 47.3057 401.631 47.3057C401.027 47.3057 400.477 47.4463 399.979 47.7275C399.486 48.0029 399.108 48.3838 398.845 48.8701H398.678L399.592 43.7197H398.08L395.733 57H397.254L397.605 55.0225H397.729C397.887 55.6904 398.224 56.2148 398.739 56.5957C399.255 56.9707 399.894 57.1582 400.655 57.1582ZM400.409 55.7959C399.929 55.7959 399.501 55.6875 399.126 55.4707C398.757 55.2539 398.467 54.9609 398.256 54.5918C398.045 54.2168 397.939 53.7949 397.939 53.3262C397.939 53.0977 397.96 52.8779 398.001 52.667L398.256 51.2432C398.396 50.4756 398.722 49.8516 399.231 49.3711C399.747 48.8906 400.345 48.6504 401.024 48.6504C401.757 48.6504 402.328 48.8555 402.738 49.2656C403.154 49.6758 403.362 50.2471 403.362 50.9795C403.362 51.3076 403.342 51.5889 403.301 51.8232L403.046 53.2822C402.911 54.0674 402.606 54.6826 402.132 55.1279C401.663 55.5732 401.089 55.7959 400.409 55.7959ZM416.335 47.4639H414.841L413.848 53.0977C413.701 53.9238 413.367 54.583 412.846 55.0752C412.324 55.5615 411.712 55.8047 411.009 55.8047C410.388 55.8047 409.893 55.623 409.523 55.2598C409.16 54.8906 408.979 54.4014 408.979 53.792C408.979 53.6689 408.987 53.5225 409.005 53.3525C409.022 53.1826 409.046 53.0039 409.075 52.8164L410.024 47.4639H408.53L407.59 52.834C407.537 53.1621 407.499 53.4229 407.476 53.6162C407.458 53.8096 407.449 53.9854 407.449 54.1436C407.449 55.0459 407.722 55.7783 408.267 56.3408C408.817 56.8975 409.547 57.1758 410.455 57.1758C411.135 57.1758 411.735 57.0146 412.257 56.6924C412.778 56.3643 413.162 55.9219 413.408 55.3652H413.505L413.224 57H414.656L416.335 47.4639ZM422.382 44.9062L421.934 47.4902H419.385L419.174 48.7646H421.714L420.747 54.0029C420.718 54.1494 420.697 54.2871 420.686 54.416C420.674 54.5391 420.668 54.6562 420.668 54.7676C420.668 55.5059 420.917 56.0713 421.415 56.4639C421.919 56.8506 422.648 57.0439 423.604 57.0439C423.932 57.0439 424.292 57.0322 424.685 57.0088C425.077 56.9912 425.376 56.9736 425.581 56.9561L425.792 55.6904C425.604 55.708 425.353 55.7227 425.036 55.7344C424.72 55.7402 424.383 55.7432 424.025 55.7432C422.807 55.7432 422.197 55.3096 422.197 54.4424C422.197 54.3721 422.2 54.3018 422.206 54.2314C422.212 54.1553 422.224 54.0762 422.241 53.9941L423.208 48.7646H427.058L427.277 47.4902H423.41L423.858 44.9062H422.382ZM434.414 48.5713C435.164 48.5713 435.747 48.8057 436.163 49.2744C436.579 49.7432 436.743 50.3438 436.655 51.0762C436.649 51.1465 436.641 51.2168 436.629 51.2871C436.623 51.3574 436.617 51.4248 436.611 51.4893H431.54C431.558 51.3896 431.575 51.29 431.593 51.1904C431.616 51.0908 431.637 50.9941 431.654 50.9004C431.789 50.1738 432.103 49.6055 432.595 49.1953C433.087 48.7793 433.693 48.5713 434.414 48.5713ZM437.473 54.5391H435.996C435.891 54.9258 435.618 55.248 435.179 55.5059C434.745 55.7578 434.247 55.8838 433.685 55.8838C432.899 55.8838 432.287 55.6436 431.848 55.1631C431.414 54.6826 431.238 54.0439 431.32 53.2471C431.326 53.1533 431.335 53.0537 431.347 52.9482C431.358 52.8369 431.373 52.7285 431.391 52.623H437.903L438.009 51.8584C438.026 51.7295 438.041 51.6006 438.053 51.4717C438.07 51.3369 438.085 51.1992 438.097 51.0586C438.173 50.3379 438.067 49.6934 437.78 49.125C437.499 48.5566 437.077 48.1084 436.515 47.7803C435.952 47.4521 435.29 47.2881 434.528 47.2881C433.749 47.2881 433.052 47.4375 432.437 47.7363C431.821 48.0293 431.32 48.4512 430.934 49.002C430.547 49.5469 430.292 50.1973 430.169 50.9531L429.984 52.1484C429.938 52.4707 429.902 52.7344 429.879 52.9395C429.861 53.1387 429.853 53.3262 429.853 53.502C429.853 54.6387 430.187 55.5352 430.854 56.1914C431.522 56.8477 432.439 57.1758 433.605 57.1758C434.262 57.1758 434.868 57.0615 435.425 56.833C435.981 56.6045 436.441 56.291 436.805 55.8926C437.174 55.4941 437.396 55.043 437.473 54.5391Z" fill="#AAAAAA"/>
<path d="M47.6465 57L49.6504 45.7412H53.4736L53.7109 44.3174H44.5L44.2715 45.7412H48.1035L46.0996 57H47.6465ZM57.4111 57.1582C58.0381 57.1582 58.6035 57.0234 59.1074 56.7539C59.6113 56.4785 59.9805 56.1035 60.2148 55.6289H60.3027L60.0654 57H61.4893L62.4561 51.498C62.5146 51.2168 62.5557 50.9941 62.5791 50.8301C62.6025 50.6602 62.6172 50.5166 62.623 50.3994C62.6348 50.2764 62.6406 50.1475 62.6406 50.0127C62.6406 49.21 62.3389 48.5654 61.7354 48.0791C61.1318 47.5869 60.332 47.3408 59.3359 47.3408C58.6914 47.3408 58.0996 47.4521 57.5605 47.6748C57.0215 47.8916 56.5762 48.1934 56.2246 48.5801C55.873 48.9668 55.6475 49.4121 55.5479 49.916H57.042C57.165 49.5352 57.4258 49.2275 57.8242 48.9932C58.2227 48.7529 58.6797 48.6328 59.1953 48.6328C59.793 48.6328 60.2676 48.7793 60.6191 49.0723C60.9707 49.3594 61.1465 49.7461 61.1465 50.2324C61.1465 50.3262 61.1406 50.4199 61.1289 50.5137C61.1172 50.6016 61.0996 50.7188 61.0762 50.8652L60.9883 51.3486L58.6152 51.3662C57.2969 51.3779 56.2861 51.6504 55.583 52.1836C54.8799 52.7168 54.5312 53.4814 54.5371 54.4775C54.543 55.0049 54.666 55.4707 54.9062 55.875C55.1523 56.2793 55.4893 56.5957 55.917 56.8242C56.3506 57.0469 56.8486 57.1582 57.4111 57.1582ZM57.9297 55.8486C57.3613 55.8486 56.9102 55.7051 56.5762 55.418C56.2422 55.1309 56.0781 54.7471 56.084 54.2666C56.0898 53.7158 56.3096 53.2881 56.7432 52.9834C57.1826 52.6787 57.8037 52.5234 58.6064 52.5176L60.7949 52.5088L60.584 53.6338C60.5078 54.0615 60.3408 54.4424 60.083 54.7764C59.8252 55.1045 59.5088 55.3652 59.1338 55.5586C58.7646 55.752 58.3633 55.8486 57.9297 55.8486ZM69.9795 48.668C70.6943 48.668 71.2773 48.8994 71.7285 49.3623C72.1797 49.8193 72.4053 50.4141 72.4053 51.1465C72.4053 51.2461 72.3994 51.3662 72.3877 51.5068C72.376 51.6416 72.3555 51.7852 72.3262 51.9375L72.1328 53.0625C71.9922 53.8184 71.6729 54.4307 71.1748 54.8994C70.6768 55.3682 70.0938 55.6025 69.4258 55.6025C68.6992 55.6025 68.1221 55.3799 67.6943 54.9346C67.2666 54.4834 67.0527 53.8711 67.0527 53.0977C67.0527 52.9863 67.0615 52.834 67.0791 52.6406C67.1025 52.4473 67.126 52.2744 67.1494 52.1221L67.2988 51.2871C67.4512 50.4785 67.7646 49.8398 68.2393 49.3711C68.7197 48.9023 69.2998 48.668 69.9795 48.668ZM68.5908 60.5771C69.8271 60.5771 70.8145 60.2695 71.5527 59.6543C72.2969 59.0391 72.7744 58.1338 72.9854 56.9385L74.6465 47.4639H73.1523L72.8184 49.3887H72.7129C72.5723 48.7266 72.2412 48.2139 71.7197 47.8506C71.2041 47.4873 70.5508 47.3057 69.7598 47.3057C68.7461 47.3057 67.8877 47.6396 67.1846 48.3076C66.4814 48.9756 66.0303 49.8838 65.8311 51.0322L65.6465 52.1045C65.6172 52.2803 65.5908 52.4941 65.5674 52.7461C65.5439 52.9922 65.5322 53.2119 65.5322 53.4053C65.5322 54.0908 65.6758 54.7031 65.9629 55.2422C66.25 55.7754 66.6426 56.1973 67.1406 56.5078C67.6387 56.8125 68.207 56.9648 68.8457 56.9648C69.502 56.9648 70.0879 56.8096 70.6035 56.499C71.125 56.1826 71.4912 55.7607 71.7021 55.2334H71.8076L71.5264 56.833C71.3799 57.665 71.0693 58.2891 70.5947 58.7051C70.126 59.1211 69.499 59.3291 68.7139 59.3291C68.0576 59.3291 67.5098 59.1826 67.0703 58.8896C66.6309 58.6025 66.4082 58.2363 66.4023 57.791C66.4023 57.7734 66.4023 57.7529 66.4023 57.7295C66.4023 57.7119 66.4023 57.6943 66.4023 57.6768H64.9258C64.9258 57.6943 64.9258 57.7148 64.9258 57.7383C64.9258 57.7617 64.9258 57.7939 64.9258 57.835C64.9258 58.3623 65.0811 58.8311 65.3916 59.2412C65.708 59.6572 66.1416 59.9824 66.6924 60.2168C67.249 60.457 67.8818 60.5771 68.5908 60.5771Z" fill="#AAAAAA"/>
<path d="M153 81V69H623V81" stroke="#AAAAAA"/>
<path d="M3 81V69H113V81" stroke="#AAAAAA"/>
<path d="M153 163V175H230V163" stroke="#AAAAAA"/>
<path d="M297 163V175H623V163" stroke="#AAAAAA"/>
<path d="M172.988 200L174.755 190.104H174.878L178.561 200H180.028L182.261 187.317H180.863L179.097 197.188H178.974L175.309 187.317H173.823L171.591 200H172.988ZM186.348 200.158C186.975 200.158 187.54 200.023 188.044 199.754C188.548 199.479 188.917 199.104 189.151 198.629H189.239L189.002 200H190.426L191.393 194.498C191.451 194.217 191.492 193.994 191.516 193.83C191.539 193.66 191.554 193.517 191.56 193.399C191.571 193.276 191.577 193.147 191.577 193.013C191.577 192.21 191.275 191.565 190.672 191.079C190.068 190.587 189.269 190.341 188.272 190.341C187.628 190.341 187.036 190.452 186.497 190.675C185.958 190.892 185.513 191.193 185.161 191.58C184.81 191.967 184.584 192.412 184.484 192.916H185.979C186.102 192.535 186.362 192.228 186.761 191.993C187.159 191.753 187.616 191.633 188.132 191.633C188.729 191.633 189.204 191.779 189.556 192.072C189.907 192.359 190.083 192.746 190.083 193.232C190.083 193.326 190.077 193.42 190.065 193.514C190.054 193.602 190.036 193.719 190.013 193.865L189.925 194.349L187.552 194.366C186.233 194.378 185.223 194.65 184.52 195.184C183.816 195.717 183.468 196.481 183.474 197.478C183.479 198.005 183.603 198.471 183.843 198.875C184.089 199.279 184.426 199.596 184.854 199.824C185.287 200.047 185.785 200.158 186.348 200.158ZM186.866 198.849C186.298 198.849 185.847 198.705 185.513 198.418C185.179 198.131 185.015 197.747 185.021 197.267C185.026 196.716 185.246 196.288 185.68 195.983C186.119 195.679 186.74 195.523 187.543 195.518L189.731 195.509L189.521 196.634C189.444 197.062 189.277 197.442 189.02 197.776C188.762 198.104 188.445 198.365 188.07 198.559C187.701 198.752 187.3 198.849 186.866 198.849ZM195.945 193.558C196.057 192.96 196.265 192.494 196.569 192.16C196.874 191.82 197.237 191.65 197.659 191.65C197.981 191.65 198.225 191.744 198.389 191.932C198.553 192.119 198.635 192.4 198.635 192.775C198.635 192.881 198.629 192.989 198.617 193.101C198.611 193.206 198.597 193.314 198.573 193.426L197.413 200H198.749L199.883 193.549C199.994 192.951 200.199 192.485 200.498 192.151C200.803 191.817 201.16 191.65 201.57 191.65C201.887 191.65 202.127 191.744 202.291 191.932C202.455 192.119 202.537 192.4 202.537 192.775C202.537 192.881 202.531 192.989 202.52 193.101C202.508 193.206 202.493 193.317 202.476 193.435L201.315 200H202.66L203.864 193.136C203.923 192.819 203.952 192.523 203.952 192.248C203.952 191.633 203.791 191.152 203.469 190.807C203.146 190.461 202.692 190.288 202.106 190.288C201.667 190.288 201.274 190.417 200.929 190.675C200.589 190.933 200.313 191.311 200.103 191.809H199.944C199.915 191.34 199.757 190.971 199.47 190.701C199.188 190.426 198.816 190.288 198.354 190.288C197.926 190.288 197.542 190.423 197.202 190.692C196.862 190.956 196.593 191.328 196.394 191.809H196.235L196.464 190.464H195.146L193.467 200H194.812L195.945 193.558ZM210.597 191.571C211.347 191.571 211.93 191.806 212.346 192.274C212.762 192.743 212.926 193.344 212.838 194.076C212.832 194.146 212.823 194.217 212.812 194.287C212.806 194.357 212.8 194.425 212.794 194.489H207.723C207.74 194.39 207.758 194.29 207.775 194.19C207.799 194.091 207.819 193.994 207.837 193.9C207.972 193.174 208.285 192.605 208.777 192.195C209.27 191.779 209.876 191.571 210.597 191.571ZM213.655 197.539H212.179C212.073 197.926 211.801 198.248 211.361 198.506C210.928 198.758 210.43 198.884 209.867 198.884C209.082 198.884 208.47 198.644 208.03 198.163C207.597 197.683 207.421 197.044 207.503 196.247C207.509 196.153 207.518 196.054 207.529 195.948C207.541 195.837 207.556 195.729 207.573 195.623H214.086L214.191 194.858C214.209 194.729 214.224 194.601 214.235 194.472C214.253 194.337 214.268 194.199 214.279 194.059C214.355 193.338 214.25 192.693 213.963 192.125C213.682 191.557 213.26 191.108 212.697 190.78C212.135 190.452 211.473 190.288 210.711 190.288C209.932 190.288 209.234 190.438 208.619 190.736C208.004 191.029 207.503 191.451 207.116 192.002C206.729 192.547 206.475 193.197 206.352 193.953L206.167 195.148C206.12 195.471 206.085 195.734 206.062 195.939C206.044 196.139 206.035 196.326 206.035 196.502C206.035 197.639 206.369 198.535 207.037 199.191C207.705 199.848 208.622 200.176 209.788 200.176C210.444 200.176 211.051 200.062 211.607 199.833C212.164 199.604 212.624 199.291 212.987 198.893C213.356 198.494 213.579 198.043 213.655 197.539Z" fill="#AAAAAA"/>
<path d="M442.054 198.137H442.01L440.577 187.317H438.995L440.92 200H442.572L448.962 187.317H447.345L442.054 198.137ZM452.284 200.158C452.911 200.158 453.477 200.023 453.98 199.754C454.484 199.479 454.854 199.104 455.088 198.629H455.176L454.938 200H456.362L457.329 194.498C457.388 194.217 457.429 193.994 457.452 193.83C457.476 193.66 457.49 193.517 457.496 193.399C457.508 193.276 457.514 193.147 457.514 193.013C457.514 192.21 457.212 191.565 456.608 191.079C456.005 190.587 455.205 190.341 454.209 190.341C453.564 190.341 452.973 190.452 452.434 190.675C451.895 190.892 451.449 191.193 451.098 191.58C450.746 191.967 450.521 192.412 450.421 192.916H451.915C452.038 192.535 452.299 192.228 452.697 191.993C453.096 191.753 453.553 191.633 454.068 191.633C454.666 191.633 455.141 191.779 455.492 192.072C455.844 192.359 456.02 192.746 456.02 193.232C456.02 193.326 456.014 193.42 456.002 193.514C455.99 193.602 455.973 193.719 455.949 193.865L455.861 194.349L453.488 194.366C452.17 194.378 451.159 194.65 450.456 195.184C449.753 195.717 449.404 196.481 449.41 197.478C449.416 198.005 449.539 198.471 449.779 198.875C450.025 199.279 450.362 199.596 450.79 199.824C451.224 200.047 451.722 200.158 452.284 200.158ZM452.803 198.849C452.234 198.849 451.783 198.705 451.449 198.418C451.115 198.131 450.951 197.747 450.957 197.267C450.963 196.716 451.183 196.288 451.616 195.983C452.056 195.679 452.677 195.523 453.479 195.518L455.668 195.509L455.457 196.634C455.381 197.062 455.214 197.442 454.956 197.776C454.698 198.104 454.382 198.365 454.007 198.559C453.638 198.752 453.236 198.849 452.803 198.849ZM468.166 200L468.377 198.761H465.23L467.357 186.72H462.638L462.427 187.959H465.661L463.736 198.761H460.476L460.265 200H468.166ZM480.708 190.464H479.214L478.221 196.098C478.074 196.924 477.74 197.583 477.219 198.075C476.697 198.562 476.085 198.805 475.382 198.805C474.761 198.805 474.266 198.623 473.896 198.26C473.533 197.891 473.352 197.401 473.352 196.792C473.352 196.669 473.36 196.522 473.378 196.353C473.396 196.183 473.419 196.004 473.448 195.816L474.397 190.464H472.903L471.963 195.834C471.91 196.162 471.872 196.423 471.849 196.616C471.831 196.81 471.822 196.985 471.822 197.144C471.822 198.046 472.095 198.778 472.64 199.341C473.19 199.897 473.92 200.176 474.828 200.176C475.508 200.176 476.108 200.015 476.63 199.692C477.151 199.364 477.535 198.922 477.781 198.365H477.878L477.597 200H479.029L480.708 190.464ZM487.66 191.571C488.41 191.571 488.993 191.806 489.409 192.274C489.825 192.743 489.989 193.344 489.901 194.076C489.896 194.146 489.887 194.217 489.875 194.287C489.869 194.357 489.863 194.425 489.857 194.489H484.786C484.804 194.39 484.821 194.29 484.839 194.19C484.862 194.091 484.883 193.994 484.9 193.9C485.035 193.174 485.349 192.605 485.841 192.195C486.333 191.779 486.939 191.571 487.66 191.571ZM490.719 197.539H489.242C489.137 197.926 488.864 198.248 488.425 198.506C487.991 198.758 487.493 198.884 486.931 198.884C486.146 198.884 485.533 198.644 485.094 198.163C484.66 197.683 484.484 197.044 484.566 196.247C484.572 196.153 484.581 196.054 484.593 195.948C484.604 195.837 484.619 195.729 484.637 195.623H491.149L491.255 194.858C491.272 194.729 491.287 194.601 491.299 194.472C491.316 194.337 491.331 194.199 491.343 194.059C491.419 193.338 491.313 192.693 491.026 192.125C490.745 191.557 490.323 191.108 489.761 190.78C489.198 190.452 488.536 190.288 487.774 190.288C486.995 190.288 486.298 190.438 485.683 190.736C485.067 191.029 484.566 191.451 484.18 192.002C483.793 192.547 483.538 193.197 483.415 193.953L483.23 195.148C483.184 195.471 483.148 195.734 483.125 195.939C483.107 196.139 483.099 196.326 483.099 196.502C483.099 197.639 483.433 198.535 484.101 199.191C484.769 199.848 485.686 200.176 486.852 200.176C487.508 200.176 488.114 200.062 488.671 199.833C489.228 199.604 489.688 199.291 490.051 198.893C490.42 198.494 490.643 198.043 490.719 197.539Z" fill="#AAAAAA"/>
</svg>
