<svg width="602" height="414" viewBox="0 0 602 414" fill="none" xmlns="http://www.w3.org/2000/svg">
<rect width="602" height="414" rx="4" fill="#F6F6F6"/>
<path d="M19.3047 15.9531V14.4609L12.5859 18.4219V19.5781L19.3047 23.5391V22.0469L13.9297 19.0703V18.9297L19.3047 15.9531ZM22.3594 24H23.6875V19.0156C23.6875 17.5703 24.6328 16.5938 26.0312 16.5938C27.3594 16.5938 27.9844 17.3203 27.9844 18.8438V24H29.3125V18.5078C29.3125 16.4844 28.3125 15.375 26.4688 15.375C25.1719 15.375 24.1953 15.9688 23.75 17.0234H23.6406V12.1953H22.3594V24ZM34.2812 13.25V15.5469H32.0234V16.6797H34.2812V21.4766C34.2812 23.2422 35.2578 24.0391 37.3594 24.0391C37.7656 24.0391 38.7969 24 39.0078 23.9609V22.8359C38.7812 22.8594 37.9297 22.8828 37.4531 22.8828C36.2578 22.8828 35.6094 22.3828 35.6094 21.4609V16.6797H39.0312V15.5469H35.5938V13.25H34.2812ZM49.7031 17.7578C49.7031 16.1875 49.0859 15.3672 47.9062 15.3672C47.0547 15.3672 46.375 15.8828 46.1562 16.6953H46.0156C45.8359 15.8594 45.2734 15.3672 44.4766 15.3672C43.6797 15.3672 43.0703 15.8672 42.8594 16.7188H42.7188V15.5234H41.5312V24H42.7266V18.2812C42.7266 17.2266 43.1953 16.5781 43.9453 16.5781C44.6641 16.5781 45.0391 17.1172 45.0391 18.1406V24H46.2266V18.2812C46.2266 17.2266 46.6797 16.5781 47.4219 16.5781C48.1328 16.5781 48.5078 17.1172 48.5078 18.1484V24H49.7031V17.7578ZM59.2109 24V22.8984H56.4141V12.1953H52.2109V13.2969H55.0859V22.8984H52.1875V24H59.2109ZM62.0391 15.9531L67.4062 18.9297V19.0703L62.0391 22.0469V23.5391L68.7578 19.5781V18.4219L62.0391 14.4609V15.9531Z" fill="#FFA11F"/>
<path d="M19.3047 391.953V390.461L12.5859 394.422V395.578L19.3047 399.539V398.047L13.9297 395.07V394.93L19.3047 391.953ZM23.7344 401.07L29.2344 387.656H27.9297L22.4375 401.07H23.7344ZM32.25 400H33.5781V395.016C33.5781 393.57 34.5234 392.594 35.9219 392.594C37.25 392.594 37.875 393.32 37.875 394.844V400H39.2031V394.508C39.2031 392.484 38.2031 391.375 36.3594 391.375C35.0625 391.375 34.0859 391.969 33.6406 393.023H33.5312V388.195H32.25V400ZM44.1719 389.25V391.547H41.9141V392.68H44.1719V397.477C44.1719 399.242 45.1484 400.039 47.25 400.039C47.6562 400.039 48.6875 400 48.8984 399.961V398.836C48.6719 398.859 47.8203 398.883 47.3438 398.883C46.1484 398.883 45.5 398.383 45.5 397.461V392.68H48.9219V391.547H45.4844V389.25H44.1719ZM59.5938 393.758C59.5938 392.188 58.9766 391.367 57.7969 391.367C56.9453 391.367 56.2656 391.883 56.0469 392.695H55.9062C55.7266 391.859 55.1641 391.367 54.3672 391.367C53.5703 391.367 52.9609 391.867 52.75 392.719H52.6094V391.523H51.4219V400H52.6172V394.281C52.6172 393.227 53.0859 392.578 53.8359 392.578C54.5547 392.578 54.9297 393.117 54.9297 394.141V400H56.1172V394.281C56.1172 393.227 56.5703 392.578 57.3125 392.578C58.0234 392.578 58.3984 393.117 58.3984 394.148V400H59.5938V393.758ZM69.1016 400V398.898H66.3047V388.195H62.1016V389.297H64.9766V398.898H62.0781V400H69.1016ZM71.9297 391.953L77.2969 394.93V395.07L71.9297 398.047V399.539L78.6484 395.578V394.422L71.9297 390.461V391.953Z" fill="#FFA11F"/>
<rect x="36.5" y="36.5" width="529" height="108" stroke="#AAAAAA"/>
<path d="M55.3047 51.9531V50.4609L48.5859 54.4219V55.5781L55.3047 59.5391V58.0469L49.9297 55.0703V54.9297L55.3047 51.9531ZM58.3594 60H59.6875V55.0156C59.6875 53.5703 60.6328 52.5938 62.0312 52.5938C63.3594 52.5938 63.9844 53.3203 63.9844 54.8438V60H65.3125V54.5078C65.3125 52.4844 64.3125 51.375 62.4688 51.375C61.1719 51.375 60.1953 51.9688 59.75 53.0234H59.6406V48.1953H58.3594V60ZM74.0156 57.8125C73.7812 58.5547 72.9922 59.0078 71.9219 59.0078C70.4766 59.0078 69.5547 58.0078 69.5547 56.4531V56.1094H75.3281V55.2812C75.3281 52.8281 74.0312 51.3672 71.8281 51.3672C69.6719 51.3672 68.2422 52.8359 68.2422 55.0703V56.3438C68.2422 58.7578 69.5938 60.1562 71.9219 60.1562C73.7031 60.1562 75.0469 59.2109 75.3047 57.8125H74.0156ZM71.8203 52.5078C73.1875 52.5078 74.0156 53.4844 74.0156 55.1016H69.5547C69.5547 53.4766 70.4062 52.5078 71.8203 52.5078ZM80.7578 60.1484C81.9922 60.1484 82.9141 59.6406 83.3203 58.7344H83.4531V60.0078H84.7188V54.2031C84.7188 52.4375 83.5781 51.4219 81.5859 51.4219C79.8516 51.4219 78.5391 52.3516 78.3828 53.7109H79.6875C79.9062 52.9844 80.5938 52.5703 81.5703 52.5703C82.75 52.5703 83.3984 53.1562 83.3984 54.2188V54.9844L81.0703 55.1016C79.1406 55.2031 78.0625 56.0938 78.0625 57.5938C78.0625 59.1328 79.1406 60.1484 80.7578 60.1484ZM81.1406 58.9844C80.0703 58.9844 79.4062 58.4375 79.4062 57.5469C79.4062 56.6641 80.0312 56.1562 81.2188 56.1016L83.3984 56V57C83.3984 58.1328 82.4219 58.9844 81.1406 58.9844ZM90.9766 60.1406C92.1875 60.1406 93.0781 59.6406 93.5156 58.7031H93.6641V60H94.9688V48.1953H93.6172V52.8359H93.4766C93.1094 51.9062 92.2031 51.3828 90.9766 51.3828C89.0156 51.3828 87.7344 52.7969 87.7344 54.9688V56.5469C87.7344 58.7266 89.0156 60.1406 90.9766 60.1406ZM91.3672 58.9297C89.9688 58.9297 89.0703 57.9219 89.0703 56.3594V55.1406C89.0703 53.5781 89.9688 52.5781 91.3672 52.5781C92.7578 52.5781 93.6562 53.5781 93.6562 55.1406V56.3594C93.6562 57.9297 92.7578 58.9297 91.3672 58.9297ZM98.0391 51.9531L103.406 54.9297V55.0703L98.0391 58.0469V59.5391L104.758 55.5781V54.4219L98.0391 50.4609V51.9531Z" fill="#FFA11F"/>
<path d="M55.3047 123.953V122.461L48.5859 126.422V127.578L55.3047 131.539V130.047L49.9297 127.07V126.93L55.3047 123.953ZM59.7344 133.07L65.2344 119.656H63.9297L58.4375 133.07H59.7344ZM68.25 132H69.5781V127.016C69.5781 125.57 70.5234 124.594 71.9219 124.594C73.25 124.594 73.875 125.32 73.875 126.844V132H75.2031V126.508C75.2031 124.484 74.2031 123.375 72.3594 123.375C71.0625 123.375 70.0859 123.969 69.6406 125.023H69.5312V120.195H68.25V132ZM83.9062 129.812C83.6719 130.555 82.8828 131.008 81.8125 131.008C80.3672 131.008 79.4453 130.008 79.4453 128.453V128.109H85.2188V127.281C85.2188 124.828 83.9219 123.367 81.7188 123.367C79.5625 123.367 78.1328 124.836 78.1328 127.07V128.344C78.1328 130.758 79.4844 132.156 81.8125 132.156C83.5938 132.156 84.9375 131.211 85.1953 129.812H83.9062ZM81.7109 124.508C83.0781 124.508 83.9062 125.484 83.9062 127.102H79.4453C79.4453 125.477 80.2969 124.508 81.7109 124.508ZM90.6484 132.148C91.8828 132.148 92.8047 131.641 93.2109 130.734H93.3438V132.008H94.6094V126.203C94.6094 124.438 93.4688 123.422 91.4766 123.422C89.7422 123.422 88.4297 124.352 88.2734 125.711H89.5781C89.7969 124.984 90.4844 124.57 91.4609 124.57C92.6406 124.57 93.2891 125.156 93.2891 126.219V126.984L90.9609 127.102C89.0312 127.203 87.9531 128.094 87.9531 129.594C87.9531 131.133 89.0312 132.148 90.6484 132.148ZM91.0312 130.984C89.9609 130.984 89.2969 130.438 89.2969 129.547C89.2969 128.664 89.9219 128.156 91.1094 128.102L93.2891 128V129C93.2891 130.133 92.3125 130.984 91.0312 130.984ZM100.867 132.141C102.078 132.141 102.969 131.641 103.406 130.703H103.555V132H104.859V120.195H103.508V124.836H103.367C103 123.906 102.094 123.383 100.867 123.383C98.9062 123.383 97.625 124.797 97.625 126.969V128.547C97.625 130.727 98.9062 132.141 100.867 132.141ZM101.258 130.93C99.8594 130.93 98.9609 129.922 98.9609 128.359V127.141C98.9609 125.578 99.8594 124.578 101.258 124.578C102.648 124.578 103.547 125.578 103.547 127.141V128.359C103.547 129.93 102.648 130.93 101.258 130.93ZM107.93 123.953L113.297 126.93V127.07L107.93 130.047V131.539L114.648 127.578V126.422L107.93 122.461V123.953Z" fill="#FFA11F"/>
<rect x="72.5" y="72.5" width="457" height="36" stroke="#AAAAAA"/>
<path d="M91.3047 87.9531V86.4609L84.5859 90.4219V91.5781L91.3047 95.5391V94.0469L85.9297 91.0703V90.9297L91.3047 87.9531ZM96.3906 85.25V87.5469H94.1328V88.6797H96.3906V93.4766C96.3906 95.2422 97.3672 96.0391 99.4688 96.0391C99.875 96.0391 100.906 96 101.117 95.9609V94.8359C100.891 94.8594 100.039 94.8828 99.5625 94.8828C98.3672 94.8828 97.7188 94.3828 97.7188 93.4609V88.6797H101.141V87.5469H97.7031V85.25H96.3906ZM107.875 85.4453C108.5 85.4453 108.977 84.9766 108.977 84.3516C108.977 83.7344 108.5 83.2656 107.875 83.2656C107.25 83.2656 106.773 83.7344 106.773 84.3516C106.773 84.9766 107.25 85.4453 107.875 85.4453ZM111.43 96V94.8984H108.625V87.5234H104.43V88.625H107.312V94.8984H104.406V96H111.43ZM116.172 85.25V87.5469H113.914V88.6797H116.172V93.4766C116.172 95.2422 117.148 96.0391 119.25 96.0391C119.656 96.0391 120.688 96 120.898 95.9609V94.8359C120.672 94.8594 119.82 94.8828 119.344 94.8828C118.148 94.8828 117.5 94.3828 117.5 93.4609V88.6797H120.922V87.5469H117.484V85.25H116.172ZM131.211 96V94.8984H128.414V84.1953H124.211V85.2969H127.086V94.8984H124.188V96H131.211ZM139.688 93.8125C139.453 94.5547 138.664 95.0078 137.594 95.0078C136.148 95.0078 135.227 94.0078 135.227 92.4531V92.1094H141V91.2812C141 88.8281 139.703 87.3672 137.5 87.3672C135.344 87.3672 133.914 88.8359 133.914 91.0703V92.3438C133.914 94.7578 135.266 96.1562 137.594 96.1562C139.375 96.1562 140.719 95.2109 140.977 93.8125H139.688ZM137.492 88.5078C138.859 88.5078 139.688 89.4844 139.688 91.1016H135.227C135.227 89.4766 136.078 88.5078 137.492 88.5078ZM143.93 87.9531L149.297 90.9297V91.0703L143.93 94.0469V95.5391L150.648 91.5781V90.4219L143.93 86.4609V87.9531ZM259.445 87.9531V86.4609L252.727 90.4219V91.5781L259.445 95.5391V94.0469L254.07 91.0703V90.9297L259.445 87.9531ZM263.875 97.0703L269.375 83.6562H268.07L262.578 97.0703H263.875ZM274.422 85.25V87.5469H272.164V88.6797H274.422V93.4766C274.422 95.2422 275.398 96.0391 277.5 96.0391C277.906 96.0391 278.938 96 279.148 95.9609V94.8359C278.922 94.8594 278.07 94.8828 277.594 94.8828C276.398 94.8828 275.75 94.3828 275.75 93.4609V88.6797H279.172V87.5469H275.734V85.25H274.422ZM285.906 85.4453C286.531 85.4453 287.008 84.9766 287.008 84.3516C287.008 83.7344 286.531 83.2656 285.906 83.2656C285.281 83.2656 284.805 83.7344 284.805 84.3516C284.805 84.9766 285.281 85.4453 285.906 85.4453ZM289.461 96V94.8984H286.656V87.5234H282.461V88.625H285.344V94.8984H282.438V96H289.461ZM294.203 85.25V87.5469H291.945V88.6797H294.203V93.4766C294.203 95.2422 295.18 96.0391 297.281 96.0391C297.688 96.0391 298.719 96 298.93 95.9609V94.8359C298.703 94.8594 297.852 94.8828 297.375 94.8828C296.18 94.8828 295.531 94.3828 295.531 93.4609V88.6797H298.953V87.5469H295.516V85.25H294.203ZM309.242 96V94.8984H306.445V84.1953H302.242V85.2969H305.117V94.8984H302.219V96H309.242ZM317.719 93.8125C317.484 94.5547 316.695 95.0078 315.625 95.0078C314.18 95.0078 313.258 94.0078 313.258 92.4531V92.1094H319.031V91.2812C319.031 88.8281 317.734 87.3672 315.531 87.3672C313.375 87.3672 311.945 88.8359 311.945 91.0703V92.3438C311.945 94.7578 313.297 96.1562 315.625 96.1562C317.406 96.1562 318.75 95.2109 319.008 93.8125H317.719ZM315.523 88.5078C316.891 88.5078 317.719 89.4844 317.719 91.1016H313.258C313.258 89.4766 314.109 88.5078 315.523 88.5078ZM321.961 87.9531L327.328 90.9297V91.0703L321.961 94.0469V95.5391L328.68 91.5781V90.4219L321.961 86.4609V87.9531Z" fill="#FFA11F"/>
<path d="M153.781 84.7266V96H155.164V91.9531H157.5C159.703 91.9531 161.148 90.5234 161.148 88.3438C161.148 86.1562 159.719 84.7266 157.531 84.7266H153.781ZM155.164 85.9531H157.188C158.828 85.9531 159.75 86.8047 159.75 88.3438C159.75 89.875 158.828 90.7266 157.188 90.7266H155.164V85.9531ZM166.211 96.1484C167.445 96.1484 168.367 95.6406 168.773 94.7344H168.906V96.0078H170.172V90.2031C170.172 88.4375 169.031 87.4219 167.039 87.4219C165.305 87.4219 163.992 88.3516 163.836 89.7109H165.141C165.359 88.9844 166.047 88.5703 167.023 88.5703C168.203 88.5703 168.852 89.1562 168.852 90.2188V90.9844L166.523 91.1016C164.594 91.2031 163.516 92.0938 163.516 93.5938C163.516 95.1328 164.594 96.1484 166.211 96.1484ZM166.594 94.9844C165.523 94.9844 164.859 94.4375 164.859 93.5469C164.859 92.6641 165.484 92.1562 166.672 92.1016L168.852 92V93C168.852 94.1328 167.875 94.9844 166.594 94.9844ZM176.711 99.1797C179.008 99.1797 180.367 97.9922 180.367 96V87.5234H179.055V88.8359H178.906C178.539 87.9219 177.609 87.3828 176.383 87.3828C174.398 87.3828 173.102 88.7891 173.102 90.9688V92.4922C173.102 94.6641 174.391 96.0781 176.352 96.0781C177.586 96.0781 178.523 95.5391 178.898 94.6484H179.039V95.9688C179.039 97.3281 178.219 98.0781 176.734 98.0781C175.602 98.0781 174.75 97.6172 174.578 96.9141H173.266C173.438 98.3203 174.75 99.1797 176.711 99.1797ZM174.438 92.3047V91.1406C174.438 89.5859 175.344 88.5781 176.75 88.5781C178.148 88.5781 179.047 89.5781 179.047 91.1406V92.3047C179.047 93.8672 178.148 94.875 176.75 94.875C175.344 94.875 174.438 93.8594 174.438 92.3047ZM189.141 93.8125C188.906 94.5547 188.117 95.0078 187.047 95.0078C185.602 95.0078 184.68 94.0078 184.68 92.4531V92.1094H190.453V91.2812C190.453 88.8281 189.156 87.3672 186.953 87.3672C184.797 87.3672 183.367 88.8359 183.367 91.0703V92.3438C183.367 94.7578 184.719 96.1562 187.047 96.1562C188.828 96.1562 190.172 95.2109 190.43 93.8125H189.141ZM186.945 88.5078C188.312 88.5078 189.141 89.4844 189.141 91.1016H184.68C184.68 89.4766 185.531 88.5078 186.945 88.5078ZM205.188 85.25V87.5469H202.93V88.6797H205.188V93.4766C205.188 95.2422 206.164 96.0391 208.266 96.0391C208.672 96.0391 209.703 96 209.914 95.9609V94.8359C209.688 94.8594 208.836 94.8828 208.359 94.8828C207.164 94.8828 206.516 94.3828 206.516 93.4609V88.6797H209.938V87.5469H206.5V85.25H205.188ZM216.672 85.4453C217.297 85.4453 217.773 84.9766 217.773 84.3516C217.773 83.7344 217.297 83.2656 216.672 83.2656C216.047 83.2656 215.57 83.7344 215.57 84.3516C215.57 84.9766 216.047 85.4453 216.672 85.4453ZM220.227 96V94.8984H217.422V87.5234H213.227V88.625H216.109V94.8984H213.203V96H220.227ZM224.969 85.25V87.5469H222.711V88.6797H224.969V93.4766C224.969 95.2422 225.945 96.0391 228.047 96.0391C228.453 96.0391 229.484 96 229.695 95.9609V94.8359C229.469 94.8594 228.617 94.8828 228.141 94.8828C226.945 94.8828 226.297 94.3828 226.297 93.4609V88.6797H229.719V87.5469H226.281V85.25H224.969ZM240.008 96V94.8984H237.211V84.1953H233.008V85.2969H235.883V94.8984H232.984V96H240.008ZM248.484 93.8125C248.25 94.5547 247.461 95.0078 246.391 95.0078C244.945 95.0078 244.023 94.0078 244.023 92.4531V92.1094H249.797V91.2812C249.797 88.8281 248.5 87.3672 246.297 87.3672C244.141 87.3672 242.711 88.8359 242.711 91.0703V92.3438C242.711 94.7578 244.062 96.1562 246.391 96.1562C248.172 96.1562 249.516 95.2109 249.773 93.8125H248.484ZM246.289 88.5078C247.656 88.5078 248.484 89.4844 248.484 91.1016H244.023C244.023 89.4766 244.875 88.5078 246.289 88.5078Z" fill="#666666"/>
<rect x="36.5" y="169.5" width="529" height="206" fill="white" stroke="#AAAAAA"/>
<path d="M55.3047 184.953V183.461L48.5859 187.422V188.578L55.3047 192.539V191.047L49.9297 188.07V187.93L55.3047 184.953ZM62.3672 193.141C64.3281 193.141 65.6094 191.727 65.6094 189.547V187.969C65.6094 185.797 64.3281 184.383 62.3672 184.383C61.1406 184.383 60.2422 184.906 59.8672 185.836H59.7266V181.195H58.375V193H59.6797V191.703H59.8281C60.2656 192.641 61.1562 193.141 62.3672 193.141ZM61.9766 191.93C60.5859 191.93 59.6953 190.93 59.6953 189.359V188.141C59.6953 186.578 60.5859 185.578 61.9766 185.578C63.3828 185.578 64.2734 186.578 64.2734 188.141V189.359C64.2734 190.922 63.3828 191.93 61.9766 191.93ZM71.7266 193.156C73.9688 193.156 75.3984 191.695 75.3984 189.406V188.125C75.3984 185.836 73.9688 184.375 71.7266 184.375C69.4844 184.375 68.0547 185.836 68.0547 188.125V189.406C68.0547 191.695 69.4844 193.156 71.7266 193.156ZM71.7266 185.547C73.1797 185.547 74.0859 186.578 74.0859 188.242V189.281C74.0859 190.953 73.1797 191.977 71.7266 191.977C70.2734 191.977 69.3672 190.953 69.3672 189.281V188.242C69.3672 186.578 70.2734 185.547 71.7266 185.547ZM81.0859 193.141C82.2969 193.141 83.1875 192.641 83.625 191.703H83.7734V193H85.0781V181.195H83.7266V185.836H83.5859C83.2188 184.906 82.3125 184.383 81.0859 184.383C79.125 184.383 77.8438 185.797 77.8438 187.969V189.547C77.8438 191.727 79.125 193.141 81.0859 193.141ZM81.4766 191.93C80.0781 191.93 79.1797 190.922 79.1797 189.359V188.141C79.1797 186.578 80.0781 185.578 81.4766 185.578C82.8672 185.578 83.7656 186.578 83.7656 188.141V189.359C83.7656 190.93 82.8672 191.93 81.4766 191.93ZM89.1328 196.016C90.7031 196.016 91.4141 195.398 92.1562 193.312L95.3516 184.523H93.9375L91.5703 191.617H91.4688L89.0938 184.523H87.6484L90.7656 193.055L90.6172 193.516C90.2656 194.5 89.8281 194.859 89.0312 194.859C88.9062 194.859 88.6641 194.852 88.5625 194.828V195.992C88.6797 196.008 88.9375 196.016 89.1328 196.016ZM98.0391 184.953L103.406 187.93V188.07L98.0391 191.047V192.539L104.758 188.578V187.422L98.0391 183.461V184.953Z" fill="#FFA11F"/>
<path d="M55.3047 354.953V353.461L48.5859 357.422V358.578L55.3047 362.539V361.047L49.9297 358.07V357.93L55.3047 354.953ZM59.7344 364.07L65.2344 350.656H63.9297L58.4375 364.07H59.7344ZM72.2578 363.141C74.2188 363.141 75.5 361.727 75.5 359.547V357.969C75.5 355.797 74.2188 354.383 72.2578 354.383C71.0312 354.383 70.1328 354.906 69.7578 355.836H69.6172V351.195H68.2656V363H69.5703V361.703H69.7188C70.1562 362.641 71.0469 363.141 72.2578 363.141ZM71.8672 361.93C70.4766 361.93 69.5859 360.93 69.5859 359.359V358.141C69.5859 356.578 70.4766 355.578 71.8672 355.578C73.2734 355.578 74.1641 356.578 74.1641 358.141V359.359C74.1641 360.922 73.2734 361.93 71.8672 361.93ZM81.6172 363.156C83.8594 363.156 85.2891 361.695 85.2891 359.406V358.125C85.2891 355.836 83.8594 354.375 81.6172 354.375C79.375 354.375 77.9453 355.836 77.9453 358.125V359.406C77.9453 361.695 79.375 363.156 81.6172 363.156ZM81.6172 355.547C83.0703 355.547 83.9766 356.578 83.9766 358.242V359.281C83.9766 360.953 83.0703 361.977 81.6172 361.977C80.1641 361.977 79.2578 360.953 79.2578 359.281V358.242C79.2578 356.578 80.1641 355.547 81.6172 355.547ZM90.9766 363.141C92.1875 363.141 93.0781 362.641 93.5156 361.703H93.6641V363H94.9688V351.195H93.6172V355.836H93.4766C93.1094 354.906 92.2031 354.383 90.9766 354.383C89.0156 354.383 87.7344 355.797 87.7344 357.969V359.547C87.7344 361.727 89.0156 363.141 90.9766 363.141ZM91.3672 361.93C89.9688 361.93 89.0703 360.922 89.0703 359.359V358.141C89.0703 356.578 89.9688 355.578 91.3672 355.578C92.7578 355.578 93.6562 356.578 93.6562 358.141V359.359C93.6562 360.93 92.7578 361.93 91.3672 361.93ZM99.0234 366.016C100.594 366.016 101.305 365.398 102.047 363.312L105.242 354.523H103.828L101.461 361.617H101.359L98.9844 354.523H97.5391L100.656 363.055L100.508 363.516C100.156 364.5 99.7188 364.859 98.9219 364.859C98.7969 364.859 98.5547 364.852 98.4531 364.828V365.992C98.5703 366.008 98.8281 366.016 99.0234 366.016ZM107.93 354.953L113.297 357.93V358.07L107.93 361.047V362.539L114.648 358.578V357.422L107.93 353.461V354.953Z" fill="#FFA11F"/>
<rect x="72.5" y="205.5" width="457" height="36" stroke="#AAAAAA"/>
<path d="M91.3047 220.953V219.461L84.5859 223.422V224.578L91.3047 228.539V227.047L85.9297 224.07V223.93L91.3047 220.953ZM94.3594 229H95.6875V224.016C95.6875 222.57 96.6328 221.594 98.0312 221.594C99.3594 221.594 99.9844 222.32 99.9844 223.844V229H101.312V223.508C101.312 221.484 100.312 220.375 98.4688 220.375C97.1719 220.375 96.1953 220.969 95.75 222.023H95.6406V217.195H94.3594V229ZM111.984 229V227.789H108.812V217.727H107.461L104.102 219.906V221.375L107.328 219.289H107.453V227.789H104.125V229H111.984ZM114.258 220.953L119.625 223.93V224.07L114.258 227.047V228.539L120.977 224.578V223.422L114.258 219.461V220.953ZM299.008 220.953V219.461L292.289 223.422V224.578L299.008 228.539V227.047L293.633 224.07V223.93L299.008 220.953ZM303.438 230.07L308.938 216.656H307.633L302.141 230.07H303.438ZM311.953 229H313.281V224.016C313.281 222.57 314.227 221.594 315.625 221.594C316.953 221.594 317.578 222.32 317.578 223.844V229H318.906V223.508C318.906 221.484 317.906 220.375 316.062 220.375C314.766 220.375 313.789 220.969 313.344 222.023H313.234V217.195H311.953V229ZM329.578 229V227.789H326.406V217.727H325.055L321.695 219.906V221.375L324.922 219.289H325.047V227.789H321.719V229H329.578ZM331.852 220.953L337.219 223.93V224.07L331.852 227.047V228.539L338.57 224.578V223.422L331.852 219.461V220.953Z" fill="#FFA11F"/>
<path d="M128.195 229V218.992H131.602V217.727H123.414V218.992H126.82V229H128.195ZM133.922 229H135.25V224.016C135.25 222.57 136.195 221.594 137.594 221.594C138.922 221.594 139.547 222.32 139.547 223.844V229H140.875V223.508C140.875 221.484 139.875 220.375 138.031 220.375C136.734 220.375 135.758 220.969 135.312 222.023H135.203V217.195H133.922V229ZM147.438 218.445C148.062 218.445 148.539 217.977 148.539 217.352C148.539 216.734 148.062 216.266 147.438 216.266C146.812 216.266 146.336 216.734 146.336 217.352C146.336 217.977 146.812 218.445 147.438 218.445ZM150.992 229V227.898H148.188V220.523H143.992V221.625H146.875V227.898H143.969V229H150.992ZM154.094 222.812C154.094 224.016 154.852 224.789 156.383 225.141L157.641 225.43C158.719 225.672 159.133 226.031 159.133 226.703C159.133 227.516 158.398 228.039 157.242 228.039C156.148 228.039 155.398 227.586 155.203 226.805H153.852C154 228.258 155.273 229.156 157.195 229.156C159.203 229.156 160.508 228.141 160.508 226.578C160.508 225.352 159.758 224.633 158.109 224.258L156.914 223.984C155.852 223.75 155.414 223.383 155.414 222.734C155.414 221.961 156.109 221.461 157.188 221.461C158.18 221.461 158.891 221.914 159.047 222.656H160.328C160.172 221.242 158.977 220.359 157.211 220.359C155.344 220.359 154.094 221.344 154.094 222.812ZM177.109 218.445C177.734 218.445 178.211 217.977 178.211 217.352C178.211 216.734 177.734 216.266 177.109 216.266C176.484 216.266 176.008 216.734 176.008 217.352C176.008 217.977 176.484 218.445 177.109 218.445ZM180.664 229V227.898H177.859V220.523H173.664V221.625H176.547V227.898H173.641V229H180.664ZM183.766 222.812C183.766 224.016 184.523 224.789 186.055 225.141L187.312 225.43C188.391 225.672 188.805 226.031 188.805 226.703C188.805 227.516 188.07 228.039 186.914 228.039C185.82 228.039 185.07 227.586 184.875 226.805H183.523C183.672 228.258 184.945 229.156 186.867 229.156C188.875 229.156 190.18 228.141 190.18 226.578C190.18 225.352 189.43 224.633 187.781 224.258L186.586 223.984C185.523 223.75 185.086 223.383 185.086 222.734C185.086 221.961 185.781 221.461 186.859 221.461C187.852 221.461 188.562 221.914 188.719 222.656H190C189.844 221.242 188.648 220.359 186.883 220.359C185.016 220.359 183.766 221.344 183.766 222.812ZM205.773 229.148C207.008 229.148 207.93 228.641 208.336 227.734H208.469V229.008H209.734V223.203C209.734 221.438 208.594 220.422 206.602 220.422C204.867 220.422 203.555 221.352 203.398 222.711H204.703C204.922 221.984 205.609 221.57 206.586 221.57C207.766 221.57 208.414 222.156 208.414 223.219V223.984L206.086 224.102C204.156 224.203 203.078 225.094 203.078 226.594C203.078 228.133 204.156 229.148 205.773 229.148ZM206.156 227.984C205.086 227.984 204.422 227.438 204.422 226.547C204.422 225.664 205.047 225.156 206.234 225.102L208.414 225V226C208.414 227.133 207.438 227.984 206.156 227.984ZM222.938 229H224.266V224.016C224.266 222.57 225.211 221.594 226.609 221.594C227.938 221.594 228.562 222.32 228.562 223.844V229H229.891V223.508C229.891 221.484 228.891 220.375 227.047 220.375C225.75 220.375 224.773 220.969 224.328 222.023H224.219V217.195H222.938V229ZM238.594 226.812C238.359 227.555 237.57 228.008 236.5 228.008C235.055 228.008 234.133 227.008 234.133 225.453V225.109H239.906V224.281C239.906 221.828 238.609 220.367 236.406 220.367C234.25 220.367 232.82 221.836 232.82 224.07V225.344C232.82 227.758 234.172 229.156 236.5 229.156C238.281 229.156 239.625 228.211 239.883 226.812H238.594ZM236.398 221.508C237.766 221.508 238.594 222.484 238.594 224.102H234.133C234.133 222.477 234.984 221.508 236.398 221.508ZM245.336 229.148C246.57 229.148 247.492 228.641 247.898 227.734H248.031V229.008H249.297V223.203C249.297 221.438 248.156 220.422 246.164 220.422C244.43 220.422 243.117 221.352 242.961 222.711H244.266C244.484 221.984 245.172 221.57 246.148 221.57C247.328 221.57 247.977 222.156 247.977 223.219V223.984L245.648 224.102C243.719 224.203 242.641 225.094 242.641 226.594C242.641 228.133 243.719 229.148 245.336 229.148ZM245.719 227.984C244.648 227.984 243.984 227.438 243.984 226.547C243.984 225.664 244.609 225.156 245.797 225.102L247.977 225V226C247.977 227.133 247 227.984 245.719 227.984ZM255.555 229.141C256.766 229.141 257.656 228.641 258.094 227.703H258.242V229H259.547V217.195H258.195V221.836H258.055C257.688 220.906 256.781 220.383 255.555 220.383C253.594 220.383 252.312 221.797 252.312 223.969V225.547C252.312 227.727 253.594 229.141 255.555 229.141ZM255.945 227.93C254.547 227.93 253.648 226.922 253.648 225.359V224.141C253.648 222.578 254.547 221.578 255.945 221.578C257.336 221.578 258.234 222.578 258.234 224.141V225.359C258.234 226.93 257.336 227.93 255.945 227.93ZM266.125 218.445C266.75 218.445 267.227 217.977 267.227 217.352C267.227 216.734 266.75 216.266 266.125 216.266C265.5 216.266 265.023 216.734 265.023 217.352C265.023 217.977 265.5 218.445 266.125 218.445ZM269.68 229V227.898H266.875V220.523H262.68V221.625H265.562V227.898H262.656V229H269.68ZM272.398 229H273.727V224.008C273.727 222.562 274.664 221.586 276.062 221.586C277.383 221.586 278.008 222.305 278.008 223.836V229H279.336V223.5C279.336 221.469 278.336 220.367 276.492 220.367C275.203 220.367 274.234 220.961 273.781 222.016H273.672V220.523H272.398V229ZM285.508 232.18C287.805 232.18 289.164 230.992 289.164 229V220.523H287.852V221.836H287.703C287.336 220.922 286.406 220.383 285.18 220.383C283.195 220.383 281.898 221.789 281.898 223.969V225.492C281.898 227.664 283.188 229.078 285.148 229.078C286.383 229.078 287.32 228.539 287.695 227.648H287.836V228.969C287.836 230.328 287.016 231.078 285.531 231.078C284.398 231.078 283.547 230.617 283.375 229.914H282.062C282.234 231.32 283.547 232.18 285.508 232.18ZM283.234 225.305V224.141C283.234 222.586 284.141 221.578 285.547 221.578C286.945 221.578 287.844 222.578 287.844 224.141V225.305C287.844 226.867 286.945 227.875 285.547 227.875C284.141 227.875 283.234 226.859 283.234 225.305Z" fill="#666666"/>
<rect x="72.5" y="254.5" width="457" height="36" stroke="#AAAAAA"/>
<path d="M91.3047 269.953V268.461L84.5859 272.422V273.578L91.3047 277.539V276.047L85.9297 273.07V272.93L91.3047 269.953ZM98.3672 269.383C97.1562 269.383 96.2734 269.883 95.8281 270.82H95.6875V269.523H94.375V280.859H95.7266V276.688H95.875C96.2422 277.617 97.1406 278.141 98.3672 278.141C100.328 278.141 101.609 276.727 101.609 274.555V272.977C101.609 270.797 100.328 269.383 98.3672 269.383ZM97.9844 270.602C99.3828 270.602 100.273 271.602 100.273 273.164V274.383C100.273 275.945 99.3828 276.953 97.9844 276.953C96.5859 276.953 95.6953 275.953 95.6953 274.383V273.164C95.6953 271.602 96.5859 270.602 97.9844 270.602ZM104.367 269.953L109.734 272.93V273.07L104.367 276.047V277.539L111.086 273.578V272.422L104.367 268.461V269.953ZM318.789 269.953V268.461L312.07 272.422V273.578L318.789 277.539V276.047L313.414 273.07V272.93L318.789 269.953ZM323.219 279.07L328.719 265.656H327.414L321.922 279.07H323.219ZM335.742 269.383C334.531 269.383 333.648 269.883 333.203 270.82H333.062V269.523H331.75V280.859H333.102V276.688H333.25C333.617 277.617 334.516 278.141 335.742 278.141C337.703 278.141 338.984 276.727 338.984 274.555V272.977C338.984 270.797 337.703 269.383 335.742 269.383ZM335.359 270.602C336.758 270.602 337.648 271.602 337.648 273.164V274.383C337.648 275.945 336.758 276.953 335.359 276.953C333.961 276.953 333.07 275.953 333.07 274.383V273.164C333.07 271.602 333.961 270.602 335.359 270.602ZM341.742 269.953L347.109 272.93V273.07L341.742 276.047V277.539L348.461 273.578V272.422L341.742 268.461V269.953Z" fill="#FFA11F"/>
<path d="M118.305 278V267.992H121.711V266.727H113.523V267.992H116.93V278H118.305ZM124.031 278H125.359V273.016C125.359 271.57 126.305 270.594 127.703 270.594C129.031 270.594 129.656 271.32 129.656 272.844V278H130.984V272.508C130.984 270.484 129.984 269.375 128.141 269.375C126.844 269.375 125.867 269.969 125.422 271.023H125.312V266.195H124.031V278ZM137.547 267.445C138.172 267.445 138.648 266.977 138.648 266.352C138.648 265.734 138.172 265.266 137.547 265.266C136.922 265.266 136.445 265.734 136.445 266.352C136.445 266.977 136.922 267.445 137.547 267.445ZM141.102 278V276.898H138.297V269.523H134.102V270.625H136.984V276.898H134.078V278H141.102ZM144.203 271.812C144.203 273.016 144.961 273.789 146.492 274.141L147.75 274.43C148.828 274.672 149.242 275.031 149.242 275.703C149.242 276.516 148.508 277.039 147.352 277.039C146.258 277.039 145.508 276.586 145.312 275.805H143.961C144.109 277.258 145.383 278.156 147.305 278.156C149.312 278.156 150.617 277.141 150.617 275.578C150.617 274.352 149.867 273.633 148.219 273.258L147.023 272.984C145.961 272.75 145.523 272.383 145.523 271.734C145.523 270.961 146.219 270.461 147.297 270.461C148.289 270.461 149 270.914 149.156 271.656H150.438C150.281 270.242 149.086 269.359 147.32 269.359C145.453 269.359 144.203 270.344 144.203 271.812ZM167.219 267.445C167.844 267.445 168.32 266.977 168.32 266.352C168.32 265.734 167.844 265.266 167.219 265.266C166.594 265.266 166.117 265.734 166.117 266.352C166.117 266.977 166.594 267.445 167.219 267.445ZM170.773 278V276.898H167.969V269.523H163.773V270.625H166.656V276.898H163.75V278H170.773ZM173.875 271.812C173.875 273.016 174.633 273.789 176.164 274.141L177.422 274.43C178.5 274.672 178.914 275.031 178.914 275.703C178.914 276.516 178.18 277.039 177.023 277.039C175.93 277.039 175.18 276.586 174.984 275.805H173.633C173.781 277.258 175.055 278.156 176.977 278.156C178.984 278.156 180.289 277.141 180.289 275.578C180.289 274.352 179.539 273.633 177.891 273.258L176.695 272.984C175.633 272.75 175.195 272.383 175.195 271.734C175.195 270.961 175.891 270.461 176.969 270.461C177.961 270.461 178.672 270.914 178.828 271.656H180.109C179.953 270.242 178.758 269.359 176.992 269.359C175.125 269.359 173.875 270.344 173.875 271.812ZM195.883 278.148C197.117 278.148 198.039 277.641 198.445 276.734H198.578V278.008H199.844V272.203C199.844 270.438 198.703 269.422 196.711 269.422C194.977 269.422 193.664 270.352 193.508 271.711H194.812C195.031 270.984 195.719 270.57 196.695 270.57C197.875 270.57 198.523 271.156 198.523 272.219V272.984L196.195 273.102C194.266 273.203 193.188 274.094 193.188 275.594C193.188 277.133 194.266 278.148 195.883 278.148ZM196.266 276.984C195.195 276.984 194.531 276.438 194.531 275.547C194.531 274.664 195.156 274.156 196.344 274.102L198.523 274V275C198.523 276.133 197.547 276.984 196.266 276.984ZM217.055 269.383C215.844 269.383 214.961 269.883 214.516 270.82H214.375V269.523H213.062V280.859H214.414V276.688H214.562C214.93 277.617 215.828 278.141 217.055 278.141C219.016 278.141 220.297 276.727 220.297 274.555V272.977C220.297 270.797 219.016 269.383 217.055 269.383ZM216.672 270.602C218.07 270.602 218.961 271.602 218.961 273.164V274.383C218.961 275.945 218.07 276.953 216.672 276.953C215.273 276.953 214.383 275.953 214.383 274.383V273.164C214.383 271.602 215.273 270.602 216.672 270.602ZM225.555 278.148C226.789 278.148 227.711 277.641 228.117 276.734H228.25V278.008H229.516V272.203C229.516 270.438 228.375 269.422 226.383 269.422C224.648 269.422 223.336 270.352 223.18 271.711H224.484C224.703 270.984 225.391 270.57 226.367 270.57C227.547 270.57 228.195 271.156 228.195 272.219V272.984L225.867 273.102C223.938 273.203 222.859 274.094 222.859 275.594C222.859 277.133 223.938 278.148 225.555 278.148ZM225.938 276.984C224.867 276.984 224.203 276.438 224.203 275.547C224.203 274.664 224.828 274.156 226.016 274.102L228.195 274V275C228.195 276.133 227.219 276.984 225.938 276.984ZM235.969 274.203C235.969 272.047 237.078 270.75 238.953 270.75C239.414 270.75 239.961 270.844 240.352 270.984V269.492C240.07 269.375 239.609 269.305 239.125 269.305C237.492 269.305 236.438 270.117 236.125 271.688H235.953V269.523H232.789V270.586H234.672V276.938H232.961V278H238.594V276.938H235.969V274.203ZM245.336 278.148C246.57 278.148 247.492 277.641 247.898 276.734H248.031V278.008H249.297V272.203C249.297 270.438 248.156 269.422 246.164 269.422C244.43 269.422 243.117 270.352 242.961 271.711H244.266C244.484 270.984 245.172 270.57 246.148 270.57C247.328 270.57 247.977 271.156 247.977 272.219V272.984L245.648 273.102C243.719 273.203 242.641 274.094 242.641 275.594C242.641 277.133 243.719 278.148 245.336 278.148ZM245.719 276.984C244.648 276.984 243.984 276.438 243.984 275.547C243.984 274.664 244.609 274.156 245.797 274.102L247.977 274V275C247.977 276.133 247 276.984 245.719 276.984ZM255.836 281.18C258.133 281.18 259.492 279.992 259.492 278V269.523H258.18V270.836H258.031C257.664 269.922 256.734 269.383 255.508 269.383C253.523 269.383 252.227 270.789 252.227 272.969V274.492C252.227 276.664 253.516 278.078 255.477 278.078C256.711 278.078 257.648 277.539 258.023 276.648H258.164V277.969C258.164 279.328 257.344 280.078 255.859 280.078C254.727 280.078 253.875 279.617 253.703 278.914H252.391C252.562 280.32 253.875 281.18 255.836 281.18ZM253.562 274.305V273.141C253.562 271.586 254.469 270.578 255.875 270.578C257.273 270.578 258.172 271.578 258.172 273.141V274.305C258.172 275.867 257.273 276.875 255.875 276.875C254.469 276.875 253.562 275.859 253.562 274.305ZM265.641 274.203C265.641 272.047 266.75 270.75 268.625 270.75C269.086 270.75 269.633 270.844 270.023 270.984V269.492C269.742 269.375 269.281 269.305 268.797 269.305C267.164 269.305 266.109 270.117 265.797 271.688H265.625V269.523H262.461V270.586H264.344V276.938H262.633V278H268.266V276.938H265.641V274.203ZM275.008 278.148C276.242 278.148 277.164 277.641 277.57 276.734H277.703V278.008H278.969V272.203C278.969 270.438 277.828 269.422 275.836 269.422C274.102 269.422 272.789 270.352 272.633 271.711H273.938C274.156 270.984 274.844 270.57 275.82 270.57C277 270.57 277.648 271.156 277.648 272.219V272.984L275.32 273.102C273.391 273.203 272.312 274.094 272.312 275.594C272.312 277.133 273.391 278.148 275.008 278.148ZM275.391 276.984C274.32 276.984 273.656 276.438 273.656 275.547C273.656 274.664 274.281 274.156 275.469 274.102L277.648 274V275C277.648 276.133 276.672 276.984 275.391 276.984ZM286.289 269.383C285.078 269.383 284.195 269.883 283.75 270.82H283.609V269.523H282.297V280.859H283.648V276.688H283.797C284.164 277.617 285.062 278.141 286.289 278.141C288.25 278.141 289.531 276.727 289.531 274.555V272.977C289.531 270.797 288.25 269.383 286.289 269.383ZM285.906 270.602C287.305 270.602 288.195 271.602 288.195 273.164V274.383C288.195 275.945 287.305 276.953 285.906 276.953C284.508 276.953 283.617 275.953 283.617 274.383V273.164C283.617 271.602 284.508 270.602 285.906 270.602ZM292.172 278H293.5V273.016C293.5 271.57 294.445 270.594 295.844 270.594C297.172 270.594 297.797 271.32 297.797 272.844V278H299.125V272.508C299.125 270.484 298.125 269.375 296.281 269.375C294.984 269.375 294.008 269.969 293.562 271.023H293.453V266.195H292.172V278ZM305.539 278.047C306.312 278.047 306.953 277.398 306.953 276.602C306.953 275.812 306.312 275.164 305.539 275.164C304.766 275.164 304.125 275.812 304.125 276.602C304.125 277.398 304.766 278.047 305.539 278.047Z" fill="#666666"/>
<rect x="72.5" y="303.5" width="457" height="36" stroke="#AAAAAA"/>
<path d="M91.3047 318.953V317.461L84.5859 321.422V322.578L91.3047 326.539V325.047L85.9297 322.07V321.93L91.3047 318.953ZM98.3672 318.383C97.1562 318.383 96.2734 318.883 95.8281 319.82H95.6875V318.523H94.375V329.859H95.7266V325.688H95.875C96.2422 326.617 97.1406 327.141 98.3672 327.141C100.328 327.141 101.609 325.727 101.609 323.555V321.977C101.609 319.797 100.328 318.383 98.3672 318.383ZM97.9844 319.602C99.3828 319.602 100.273 320.602 100.273 322.164V323.383C100.273 324.945 99.3828 325.953 97.9844 325.953C96.5859 325.953 95.6953 324.953 95.6953 323.383V322.164C95.6953 320.602 96.5859 319.602 97.9844 319.602ZM104.367 318.953L109.734 321.93V322.07L104.367 325.047V326.539L111.086 322.578V321.422L104.367 317.461V318.953ZM378.133 318.953V317.461L371.414 321.422V322.578L378.133 326.539V325.047L372.758 322.07V321.93L378.133 318.953ZM382.562 328.07L388.062 314.656H386.758L381.266 328.07H382.562ZM395.086 318.383C393.875 318.383 392.992 318.883 392.547 319.82H392.406V318.523H391.094V329.859H392.445V325.688H392.594C392.961 326.617 393.859 327.141 395.086 327.141C397.047 327.141 398.328 325.727 398.328 323.555V321.977C398.328 319.797 397.047 318.383 395.086 318.383ZM394.703 319.602C396.102 319.602 396.992 320.602 396.992 322.164V323.383C396.992 324.945 396.102 325.953 394.703 325.953C393.305 325.953 392.414 324.953 392.414 323.383V322.164C392.414 320.602 393.305 319.602 394.703 319.602ZM401.086 318.953L406.453 321.93V322.07L401.086 325.047V326.539L407.805 322.578V321.422L401.086 317.461V318.953Z" fill="#FFA11F"/>
<path d="M118.305 327V316.992H121.711V315.727H113.523V316.992H116.93V327H118.305ZM124.031 327H125.359V322.016C125.359 320.57 126.305 319.594 127.703 319.594C129.031 319.594 129.656 320.32 129.656 321.844V327H130.984V321.508C130.984 319.484 129.984 318.375 128.141 318.375C126.844 318.375 125.867 318.969 125.422 320.023H125.312V315.195H124.031V327ZM137.547 316.445C138.172 316.445 138.648 315.977 138.648 315.352C138.648 314.734 138.172 314.266 137.547 314.266C136.922 314.266 136.445 314.734 136.445 315.352C136.445 315.977 136.922 316.445 137.547 316.445ZM141.102 327V325.898H138.297V318.523H134.102V319.625H136.984V325.898H134.078V327H141.102ZM144.203 320.812C144.203 322.016 144.961 322.789 146.492 323.141L147.75 323.43C148.828 323.672 149.242 324.031 149.242 324.703C149.242 325.516 148.508 326.039 147.352 326.039C146.258 326.039 145.508 325.586 145.312 324.805H143.961C144.109 326.258 145.383 327.156 147.305 327.156C149.312 327.156 150.617 326.141 150.617 324.578C150.617 323.352 149.867 322.633 148.219 322.258L147.023 321.984C145.961 321.75 145.523 321.383 145.523 320.734C145.523 319.961 146.219 319.461 147.297 319.461C148.289 319.461 149 319.914 149.156 320.656H150.438C150.281 319.242 149.086 318.359 147.32 318.359C145.453 318.359 144.203 319.344 144.203 320.812ZM167.219 316.445C167.844 316.445 168.32 315.977 168.32 315.352C168.32 314.734 167.844 314.266 167.219 314.266C166.594 314.266 166.117 314.734 166.117 315.352C166.117 315.977 166.594 316.445 167.219 316.445ZM170.773 327V325.898H167.969V318.523H163.773V319.625H166.656V325.898H163.75V327H170.773ZM173.875 320.812C173.875 322.016 174.633 322.789 176.164 323.141L177.422 323.43C178.5 323.672 178.914 324.031 178.914 324.703C178.914 325.516 178.18 326.039 177.023 326.039C175.93 326.039 175.18 325.586 174.984 324.805H173.633C173.781 326.258 175.055 327.156 176.977 327.156C178.984 327.156 180.289 326.141 180.289 324.578C180.289 323.352 179.539 322.633 177.891 322.258L176.695 321.984C175.633 321.75 175.195 321.383 175.195 320.734C175.195 319.961 175.891 319.461 176.969 319.461C177.961 319.461 178.672 319.914 178.828 320.656H180.109C179.953 319.242 178.758 318.359 176.992 318.359C175.125 318.359 173.875 319.344 173.875 320.812ZM195.883 327.148C197.117 327.148 198.039 326.641 198.445 325.734H198.578V327.008H199.844V321.203C199.844 319.438 198.703 318.422 196.711 318.422C194.977 318.422 193.664 319.352 193.508 320.711H194.812C195.031 319.984 195.719 319.57 196.695 319.57C197.875 319.57 198.523 320.156 198.523 321.219V321.984L196.195 322.102C194.266 322.203 193.188 323.094 193.188 324.594C193.188 326.133 194.266 327.148 195.883 327.148ZM196.266 325.984C195.195 325.984 194.531 325.438 194.531 324.547C194.531 323.664 195.156 323.156 196.344 323.102L198.523 323V324C198.523 325.133 197.547 325.984 196.266 325.984ZM203.164 327H204.492V322.008C204.492 320.562 205.43 319.586 206.828 319.586C208.148 319.586 208.773 320.305 208.773 321.836V327H210.102V321.5C210.102 319.469 209.102 318.367 207.258 318.367C205.969 318.367 205 318.961 204.547 320.016H204.438V318.523H203.164V327ZM216.523 327.156C218.766 327.156 220.195 325.695 220.195 323.406V322.125C220.195 319.836 218.766 318.375 216.523 318.375C214.281 318.375 212.852 319.836 212.852 322.125V323.406C212.852 325.695 214.281 327.156 216.523 327.156ZM216.523 319.547C217.977 319.547 218.883 320.578 218.883 322.242V323.281C218.883 324.953 217.977 325.977 216.523 325.977C215.07 325.977 214.164 324.953 214.164 323.281V322.242C214.164 320.578 215.07 319.547 216.523 319.547ZM224.969 316.25V318.547H222.711V319.68H224.969V324.477C224.969 326.242 225.945 327.039 228.047 327.039C228.453 327.039 229.484 327 229.695 326.961V325.836C229.469 325.859 228.617 325.883 228.141 325.883C226.945 325.883 226.297 325.383 226.297 324.461V319.68H229.719V318.547H226.281V316.25H224.969ZM232.828 327H234.156V322.016C234.156 320.57 235.102 319.594 236.5 319.594C237.828 319.594 238.453 320.32 238.453 321.844V327H239.781V321.508C239.781 319.484 238.781 318.375 236.938 318.375C235.641 318.375 234.664 318.969 234.219 320.023H234.109V315.195H232.828V327ZM248.484 324.812C248.25 325.555 247.461 326.008 246.391 326.008C244.945 326.008 244.023 325.008 244.023 323.453V323.109H249.797V322.281C249.797 319.828 248.5 318.367 246.297 318.367C244.141 318.367 242.711 319.836 242.711 322.07V323.344C242.711 325.758 244.062 327.156 246.391 327.156C248.172 327.156 249.516 326.211 249.773 324.812H248.484ZM246.289 319.508C247.656 319.508 248.484 320.484 248.484 322.102H244.023C244.023 320.477 244.875 319.508 246.289 319.508ZM255.75 323.203C255.75 321.047 256.859 319.75 258.734 319.75C259.195 319.75 259.742 319.844 260.133 319.984V318.492C259.852 318.375 259.391 318.305 258.906 318.305C257.273 318.305 256.219 319.117 255.906 320.688H255.734V318.523H252.57V319.586H254.453V325.938H252.742V327H258.375V325.938H255.75V323.203ZM276.398 318.383C275.188 318.383 274.305 318.883 273.859 319.82H273.719V318.523H272.406V329.859H273.758V325.688H273.906C274.273 326.617 275.172 327.141 276.398 327.141C278.359 327.141 279.641 325.727 279.641 323.555V321.977C279.641 319.797 278.359 318.383 276.398 318.383ZM276.016 319.602C277.414 319.602 278.305 320.602 278.305 322.164V323.383C278.305 324.945 277.414 325.953 276.016 325.953C274.617 325.953 273.727 324.953 273.727 323.383V322.164C273.727 320.602 274.617 319.602 276.016 319.602ZM284.898 327.148C286.133 327.148 287.055 326.641 287.461 325.734H287.594V327.008H288.859V321.203C288.859 319.438 287.719 318.422 285.727 318.422C283.992 318.422 282.68 319.352 282.523 320.711H283.828C284.047 319.984 284.734 319.57 285.711 319.57C286.891 319.57 287.539 320.156 287.539 321.219V321.984L285.211 322.102C283.281 322.203 282.203 323.094 282.203 324.594C282.203 326.133 283.281 327.148 284.898 327.148ZM285.281 325.984C284.211 325.984 283.547 325.438 283.547 324.547C283.547 323.664 284.172 323.156 285.359 323.102L287.539 323V324C287.539 325.133 286.562 325.984 285.281 325.984ZM295.312 323.203C295.312 321.047 296.422 319.75 298.297 319.75C298.758 319.75 299.305 319.844 299.695 319.984V318.492C299.414 318.375 298.953 318.305 298.469 318.305C296.836 318.305 295.781 319.117 295.469 320.688H295.297V318.523H292.133V319.586H294.016V325.938H292.305V327H297.938V325.938H295.312V323.203ZM304.68 327.148C305.914 327.148 306.836 326.641 307.242 325.734H307.375V327.008H308.641V321.203C308.641 319.438 307.5 318.422 305.508 318.422C303.773 318.422 302.461 319.352 302.305 320.711H303.609C303.828 319.984 304.516 319.57 305.492 319.57C306.672 319.57 307.32 320.156 307.32 321.219V321.984L304.992 322.102C303.062 322.203 301.984 323.094 301.984 324.594C301.984 326.133 303.062 327.148 304.68 327.148ZM305.062 325.984C303.992 325.984 303.328 325.438 303.328 324.547C303.328 323.664 303.953 323.156 305.141 323.102L307.32 323V324C307.32 325.133 306.344 325.984 305.062 325.984ZM315.18 330.18C317.477 330.18 318.836 328.992 318.836 327V318.523H317.523V319.836H317.375C317.008 318.922 316.078 318.383 314.852 318.383C312.867 318.383 311.57 319.789 311.57 321.969V323.492C311.57 325.664 312.859 327.078 314.82 327.078C316.055 327.078 316.992 326.539 317.367 325.648H317.508V326.969C317.508 328.328 316.688 329.078 315.203 329.078C314.07 329.078 313.219 328.617 313.047 327.914H311.734C311.906 329.32 313.219 330.18 315.18 330.18ZM312.906 323.305V322.141C312.906 320.586 313.812 319.578 315.219 319.578C316.617 319.578 317.516 320.578 317.516 322.141V323.305C317.516 324.867 316.617 325.875 315.219 325.875C313.812 325.875 312.906 324.859 312.906 323.305ZM324.984 323.203C324.984 321.047 326.094 319.75 327.969 319.75C328.43 319.75 328.977 319.844 329.367 319.984V318.492C329.086 318.375 328.625 318.305 328.141 318.305C326.508 318.305 325.453 319.117 325.141 320.688H324.969V318.523H321.805V319.586H323.688V325.938H321.977V327H327.609V325.938H324.984V323.203ZM334.352 327.148C335.586 327.148 336.508 326.641 336.914 325.734H337.047V327.008H338.312V321.203C338.312 319.438 337.172 318.422 335.18 318.422C333.445 318.422 332.133 319.352 331.977 320.711H333.281C333.5 319.984 334.188 319.57 335.164 319.57C336.344 319.57 336.992 320.156 336.992 321.219V321.984L334.664 322.102C332.734 322.203 331.656 323.094 331.656 324.594C331.656 326.133 332.734 327.148 334.352 327.148ZM334.734 325.984C333.664 325.984 333 325.438 333 324.547C333 323.664 333.625 323.156 334.812 323.102L336.992 323V324C336.992 325.133 336.016 325.984 334.734 325.984ZM345.633 318.383C344.422 318.383 343.539 318.883 343.094 319.82H342.953V318.523H341.641V329.859H342.992V325.688H343.141C343.508 326.617 344.406 327.141 345.633 327.141C347.594 327.141 348.875 325.727 348.875 323.555V321.977C348.875 319.797 347.594 318.383 345.633 318.383ZM345.25 319.602C346.648 319.602 347.539 320.602 347.539 322.164V323.383C347.539 324.945 346.648 325.953 345.25 325.953C343.852 325.953 342.961 324.953 342.961 323.383V322.164C342.961 320.602 343.852 319.602 345.25 319.602ZM351.516 327H352.844V322.016C352.844 320.57 353.789 319.594 355.188 319.594C356.516 319.594 357.141 320.32 357.141 321.844V327H358.469V321.508C358.469 319.484 357.469 318.375 355.625 318.375C354.328 318.375 353.352 318.969 352.906 320.023H352.797V315.195H351.516V327ZM364.883 327.047C365.656 327.047 366.297 326.398 366.297 325.602C366.297 324.812 365.656 324.164 364.883 324.164C364.109 324.164 363.469 324.812 363.469 325.602C363.469 326.398 364.109 327.047 364.883 327.047Z" fill="#666666"/>
</svg>
