<svg width="796" height="244" viewBox="0 0 796 244" fill="none" xmlns="http://www.w3.org/2000/svg">
<path d="M22.9141 114.859V110.383L2.75781 122.266V125.734L22.9141 137.617V133.141L6.78906 124.211V123.789L22.9141 114.859ZM44.1016 113.148C40.4688 113.148 37.8203 114.648 36.4844 117.461H36.0625V113.57H32.125V147.578H36.1797V135.062H36.625C37.7266 137.852 40.4219 139.422 44.1016 139.422C49.9844 139.422 53.8281 135.18 53.8281 128.664V123.93C53.8281 117.391 49.9844 113.148 44.1016 113.148ZM42.9531 116.805C47.1484 116.805 49.8203 119.805 49.8203 124.492V128.148C49.8203 132.836 47.1484 135.859 42.9531 135.859C38.7578 135.859 36.0859 132.859 36.0859 128.148V124.492C36.0859 119.805 38.7578 116.805 42.9531 116.805ZM62.1016 114.859L78.2031 123.789V124.211L62.1016 133.141V137.617L82.2578 125.734V122.266L62.1016 110.383V114.859ZM705.367 114.859V110.383L685.211 122.266V125.734L705.367 137.617V133.141L689.242 124.211V123.789L705.367 114.859ZM718.656 142.211L735.156 101.969H731.242L714.766 142.211H718.656ZM756.227 113.148C752.594 113.148 749.945 114.648 748.609 117.461H748.188V113.57H744.25V147.578H748.305V135.062H748.75C749.852 137.852 752.547 139.422 756.227 139.422C762.109 139.422 765.953 135.18 765.953 128.664V123.93C765.953 117.391 762.109 113.148 756.227 113.148ZM755.078 116.805C759.273 116.805 761.945 119.805 761.945 124.492V128.148C761.945 132.836 759.273 135.859 755.078 135.859C750.883 135.859 748.211 132.859 748.211 128.148V124.492C748.211 119.805 750.883 116.805 755.078 116.805ZM774.227 114.859L790.328 123.789V124.211L774.227 133.141V137.617L794.383 125.734V122.266L774.227 110.383V114.859Z" fill="#FFA11F"/>
<path d="M103.914 139V108.977H114.133V105.18H89.5703V108.977H99.7891V139H103.914ZM121.094 139H125.078V124.047C125.078 119.711 127.914 116.781 132.109 116.781C136.094 116.781 137.969 118.961 137.969 123.531V139H141.953V122.523C141.953 116.453 138.953 113.125 133.422 113.125C129.531 113.125 126.602 114.906 125.266 118.07H124.938V103.586H121.094V139ZM161.641 107.336C163.516 107.336 164.945 105.93 164.945 104.055C164.945 102.203 163.516 100.797 161.641 100.797C159.766 100.797 158.336 102.203 158.336 104.055C158.336 105.93 159.766 107.336 161.641 107.336ZM172.305 139V135.695H163.891V113.57H151.305V116.875H159.953V135.695H151.234V139H172.305ZM181.609 120.438C181.609 124.047 183.883 126.367 188.477 127.422L192.25 128.289C195.484 129.016 196.727 130.094 196.727 132.109C196.727 134.547 194.523 136.117 191.055 136.117C187.773 136.117 185.523 134.758 184.938 132.414H180.883C181.328 136.773 185.148 139.469 190.914 139.469C196.938 139.469 200.852 136.422 200.852 131.734C200.852 128.055 198.602 125.898 193.656 124.773L190.07 123.953C186.883 123.25 185.57 122.148 185.57 120.203C185.57 117.883 187.656 116.383 190.891 116.383C193.867 116.383 196 117.742 196.469 119.969H200.312C199.844 115.727 196.258 113.078 190.961 113.078C185.359 113.078 181.609 116.031 181.609 120.438ZM250.656 107.336C252.531 107.336 253.961 105.93 253.961 104.055C253.961 102.203 252.531 100.797 250.656 100.797C248.781 100.797 247.352 102.203 247.352 104.055C247.352 105.93 248.781 107.336 250.656 107.336ZM261.32 139V135.695H252.906V113.57H240.32V116.875H248.969V135.695H240.25V139H261.32ZM270.625 120.438C270.625 124.047 272.898 126.367 277.492 127.422L281.266 128.289C284.5 129.016 285.742 130.094 285.742 132.109C285.742 134.547 283.539 136.117 280.07 136.117C276.789 136.117 274.539 134.758 273.953 132.414H269.898C270.344 136.773 274.164 139.469 279.93 139.469C285.953 139.469 289.867 136.422 289.867 131.734C289.867 128.055 287.617 125.898 282.672 124.773L279.086 123.953C275.898 123.25 274.586 122.148 274.586 120.203C274.586 117.883 276.672 116.383 279.906 116.383C282.883 116.383 285.016 117.742 285.484 119.969H289.328C288.859 115.727 285.273 113.078 279.977 113.078C274.375 113.078 270.625 116.031 270.625 120.438ZM336.648 139.445C340.352 139.445 343.117 137.922 344.336 135.203H344.734V139.023H348.531V121.609C348.531 116.312 345.109 113.266 339.133 113.266C333.93 113.266 329.992 116.055 329.523 120.133H333.438C334.094 117.953 336.156 116.711 339.086 116.711C342.625 116.711 344.57 118.469 344.57 121.656V123.953L337.586 124.305C331.797 124.609 328.562 127.281 328.562 131.781C328.562 136.398 331.797 139.445 336.648 139.445ZM337.797 135.953C334.586 135.953 332.594 134.312 332.594 131.641C332.594 128.992 334.469 127.469 338.031 127.305L344.57 127V130C344.57 133.398 341.641 135.953 337.797 135.953ZM400.164 113.148C396.531 113.148 393.883 114.648 392.547 117.461H392.125V113.57H388.188V147.578H392.242V135.062H392.688C393.789 137.852 396.484 139.422 400.164 139.422C406.047 139.422 409.891 135.18 409.891 128.664V123.93C409.891 117.391 406.047 113.148 400.164 113.148ZM399.016 116.805C403.211 116.805 405.883 119.805 405.883 124.492V128.148C405.883 132.836 403.211 135.859 399.016 135.859C394.82 135.859 392.148 132.859 392.148 128.148V124.492C392.148 119.805 394.82 116.805 399.016 116.805ZM425.664 139.445C429.367 139.445 432.133 137.922 433.352 135.203H433.75V139.023H437.547V121.609C437.547 116.312 434.125 113.266 428.148 113.266C422.945 113.266 419.008 116.055 418.539 120.133H422.453C423.109 117.953 425.172 116.711 428.102 116.711C431.641 116.711 433.586 118.469 433.586 121.656V123.953L426.602 124.305C420.812 124.609 417.578 127.281 417.578 131.781C417.578 136.398 420.812 139.445 425.664 139.445ZM426.812 135.953C423.602 135.953 421.609 134.312 421.609 131.641C421.609 128.992 423.484 127.469 427.047 127.305L433.586 127V130C433.586 133.398 430.656 135.953 426.812 135.953ZM456.906 127.609C456.906 121.141 460.234 117.25 465.859 117.25C467.242 117.25 468.883 117.531 470.055 117.953V113.477C469.211 113.125 467.828 112.914 466.375 112.914C461.477 112.914 458.312 115.352 457.375 120.062H456.859V113.57H447.367V116.758H453.016V135.812H447.883V139H464.781V135.812H456.906V127.609ZM485.008 139.445C488.711 139.445 491.477 137.922 492.695 135.203H493.094V139.023H496.891V121.609C496.891 116.312 493.469 113.266 487.492 113.266C482.289 113.266 478.352 116.055 477.883 120.133H481.797C482.453 117.953 484.516 116.711 487.445 116.711C490.984 116.711 492.93 118.469 492.93 121.656V123.953L485.945 124.305C480.156 124.609 476.922 127.281 476.922 131.781C476.922 136.398 480.156 139.445 485.008 139.445ZM486.156 135.953C482.945 135.953 480.953 134.312 480.953 131.641C480.953 128.992 482.828 127.469 486.391 127.305L492.93 127V130C492.93 133.398 490 135.953 486.156 135.953ZM516.508 148.539C523.398 148.539 527.477 144.977 527.477 139V113.57H523.539V117.508H523.094C521.992 114.766 519.203 113.148 515.523 113.148C509.57 113.148 505.68 117.367 505.68 123.906V128.477C505.68 134.992 509.547 139.234 515.43 139.234C519.133 139.234 521.945 137.617 523.07 134.945H523.492V138.906C523.492 142.984 521.031 145.234 516.578 145.234C513.18 145.234 510.625 143.852 510.109 141.742H506.172C506.688 145.961 510.625 148.539 516.508 148.539ZM509.688 127.914V124.422C509.688 119.758 512.406 116.734 516.625 116.734C520.82 116.734 523.516 119.734 523.516 124.422V127.914C523.516 132.602 520.82 135.625 516.625 135.625C512.406 135.625 509.688 132.578 509.688 127.914ZM545.922 127.609C545.922 121.141 549.25 117.25 554.875 117.25C556.258 117.25 557.898 117.531 559.07 117.953V113.477C558.227 113.125 556.844 112.914 555.391 112.914C550.492 112.914 547.328 115.352 546.391 120.062H545.875V113.57H536.383V116.758H542.031V135.812H536.898V139H553.797V135.812H545.922V127.609ZM574.023 139.445C577.727 139.445 580.492 137.922 581.711 135.203H582.109V139.023H585.906V121.609C585.906 116.312 582.484 113.266 576.508 113.266C571.305 113.266 567.367 116.055 566.898 120.133H570.812C571.469 117.953 573.531 116.711 576.461 116.711C580 116.711 581.945 118.469 581.945 121.656V123.953L574.961 124.305C569.172 124.609 565.938 127.281 565.938 131.781C565.938 136.398 569.172 139.445 574.023 139.445ZM575.172 135.953C571.961 135.953 569.969 134.312 569.969 131.641C569.969 128.992 571.844 127.469 575.406 127.305L581.945 127V130C581.945 133.398 579.016 135.953 575.172 135.953ZM607.867 113.148C604.234 113.148 601.586 114.648 600.25 117.461H599.828V113.57H595.891V147.578H599.945V135.062H600.391C601.492 137.852 604.188 139.422 607.867 139.422C613.75 139.422 617.594 135.18 617.594 128.664V123.93C617.594 117.391 613.75 113.148 607.867 113.148ZM606.719 116.805C610.914 116.805 613.586 119.805 613.586 124.492V128.148C613.586 132.836 610.914 135.859 606.719 135.859C602.523 135.859 599.852 132.859 599.852 128.148V124.492C599.852 119.805 602.523 116.805 606.719 116.805ZM625.516 139H629.5V124.047C629.5 119.711 632.336 116.781 636.531 116.781C640.516 116.781 642.391 118.961 642.391 123.531V139H646.375V122.523C646.375 116.453 643.375 113.125 637.844 113.125C633.953 113.125 631.023 114.906 629.688 118.07H629.359V103.586H625.516V139ZM665.617 139.141C667.938 139.141 669.859 137.195 669.859 134.805C669.859 132.438 667.938 130.492 665.617 130.492C663.297 130.492 661.375 132.438 661.375 134.805C661.375 137.195 663.297 139.141 665.617 139.141Z" fill="#666666"/>
<path d="M368.803 55.5762H362.87L363.661 51.2168H369.269L369.497 49.8545H363.89L364.637 45.7412H370.561L370.798 44.3174H363.31L361.077 57H368.565L368.803 55.5762ZM379.912 57L380.123 55.7607H376.977L379.104 43.7197H374.384L374.173 44.959H377.407L375.482 55.7607H372.222L372.011 57H379.912ZM388.279 48.5713C389.029 48.5713 389.612 48.8057 390.028 49.2744C390.444 49.7432 390.608 50.3438 390.521 51.0762C390.515 51.1465 390.506 51.2168 390.494 51.2871C390.488 51.3574 390.482 51.4248 390.477 51.4893H385.405C385.423 51.3896 385.44 51.29 385.458 51.1904C385.481 51.0908 385.502 50.9941 385.52 50.9004C385.654 50.1738 385.968 49.6055 386.46 49.1953C386.952 48.7793 387.559 48.5713 388.279 48.5713ZM391.338 54.5391H389.861C389.756 54.9258 389.483 55.248 389.044 55.5059C388.61 55.7578 388.112 55.8838 387.55 55.8838C386.765 55.8838 386.152 55.6436 385.713 55.1631C385.279 54.6826 385.104 54.0439 385.186 53.2471C385.191 53.1533 385.2 53.0537 385.212 52.9482C385.224 52.8369 385.238 52.7285 385.256 52.623H391.769L391.874 51.8584C391.892 51.7295 391.906 51.6006 391.918 51.4717C391.936 51.3369 391.95 51.1992 391.962 51.0586C392.038 50.3379 391.933 49.6934 391.646 49.125C391.364 48.5566 390.942 48.1084 390.38 47.7803C389.817 47.4521 389.155 47.2881 388.394 47.2881C387.614 47.2881 386.917 47.4375 386.302 47.7363C385.687 48.0293 385.186 48.4512 384.799 49.002C384.412 49.5469 384.157 50.1973 384.034 50.9531L383.85 52.1484C383.803 52.4707 383.768 52.7344 383.744 52.9395C383.727 53.1387 383.718 53.3262 383.718 53.502C383.718 54.6387 384.052 55.5352 384.72 56.1914C385.388 56.8477 386.305 57.1758 387.471 57.1758C388.127 57.1758 388.733 57.0615 389.29 56.833C389.847 56.6045 390.307 56.291 390.67 55.8926C391.039 55.4941 391.262 55.043 391.338 54.5391ZM395.882 50.5576C395.993 49.96 396.201 49.4941 396.506 49.1602C396.811 48.8203 397.174 48.6504 397.596 48.6504C397.918 48.6504 398.161 48.7441 398.325 48.9316C398.489 49.1191 398.571 49.4004 398.571 49.7754C398.571 49.8809 398.565 49.9893 398.554 50.1006C398.548 50.2061 398.533 50.3145 398.51 50.4258L397.35 57H398.686L399.819 50.5488C399.931 49.9512 400.136 49.4854 400.435 49.1514C400.739 48.8174 401.097 48.6504 401.507 48.6504C401.823 48.6504 402.063 48.7441 402.228 48.9316C402.392 49.1191 402.474 49.4004 402.474 49.7754C402.474 49.8809 402.468 49.9893 402.456 50.1006C402.444 50.2061 402.43 50.3174 402.412 50.4346L401.252 57H402.597L403.801 50.1357C403.859 49.8193 403.889 49.5234 403.889 49.248C403.889 48.6328 403.728 48.1523 403.405 47.8066C403.083 47.4609 402.629 47.2881 402.043 47.2881C401.604 47.2881 401.211 47.417 400.865 47.6748C400.525 47.9326 400.25 48.3105 400.039 48.8086H399.881C399.852 48.3398 399.693 47.9707 399.406 47.7012C399.125 47.4258 398.753 47.2881 398.29 47.2881C397.862 47.2881 397.479 47.4229 397.139 47.6924C396.799 47.9561 396.529 48.3281 396.33 48.8086H396.172L396.4 47.4639H395.082L393.403 57H394.748L395.882 50.5576ZM410.533 48.5713C411.283 48.5713 411.866 48.8057 412.282 49.2744C412.698 49.7432 412.862 50.3438 412.774 51.0762C412.769 51.1465 412.76 51.2168 412.748 51.2871C412.742 51.3574 412.736 51.4248 412.73 51.4893H407.659C407.677 51.3896 407.694 51.29 407.712 51.1904C407.735 51.0908 407.756 50.9941 407.773 50.9004C407.908 50.1738 408.222 49.6055 408.714 49.1953C409.206 48.7793 409.812 48.5713 410.533 48.5713ZM413.592 54.5391H412.115C412.01 54.9258 411.737 55.248 411.298 55.5059C410.864 55.7578 410.366 55.8838 409.804 55.8838C409.019 55.8838 408.406 55.6436 407.967 55.1631C407.533 54.6826 407.357 54.0439 407.439 53.2471C407.445 53.1533 407.454 53.0537 407.466 52.9482C407.478 52.8369 407.492 52.7285 407.51 52.623H414.022L414.128 51.8584C414.146 51.7295 414.16 51.6006 414.172 51.4717C414.189 51.3369 414.204 51.1992 414.216 51.0586C414.292 50.3379 414.187 49.6934 413.899 49.125C413.618 48.5566 413.196 48.1084 412.634 47.7803C412.071 47.4521 411.409 47.2881 410.647 47.2881C409.868 47.2881 409.171 47.4375 408.556 47.7363C407.94 48.0293 407.439 48.4512 407.053 49.002C406.666 49.5469 406.411 50.1973 406.288 50.9531L406.104 52.1484C406.057 52.4707 406.021 52.7344 405.998 52.9395C405.98 53.1387 405.972 53.3262 405.972 53.502C405.972 54.6387 406.306 55.5352 406.974 56.1914C407.642 56.8477 408.559 57.1758 409.725 57.1758C410.381 57.1758 410.987 57.0615 411.544 56.833C412.101 56.6045 412.561 56.291 412.924 55.8926C413.293 55.4941 413.516 55.043 413.592 54.5391ZM416.352 57H417.846L418.839 51.3662C418.985 50.54 419.319 49.8838 419.841 49.3975C420.362 48.9053 420.975 48.6592 421.678 48.6592C422.299 48.6592 422.791 48.8438 423.154 49.2129C423.523 49.5762 423.708 50.0625 423.708 50.6719C423.708 50.7949 423.699 50.9414 423.682 51.1113C423.664 51.2812 423.641 51.46 423.611 51.6475L422.662 57H424.156L425.097 51.6299C425.149 51.3018 425.185 51.041 425.202 50.8477C425.226 50.6543 425.237 50.4785 425.237 50.3203C425.237 49.418 424.962 48.6885 424.411 48.1318C423.866 47.5693 423.14 47.2881 422.231 47.2881C421.552 47.2881 420.951 47.4521 420.43 47.7803C419.908 48.1025 419.524 48.542 419.278 49.0986H419.182L419.463 47.4639H418.03L416.352 57ZM431.882 44.9062L431.434 47.4902H428.885L428.674 48.7646H431.214L430.247 54.0029C430.218 54.1494 430.197 54.2871 430.186 54.416C430.174 54.5391 430.168 54.6562 430.168 54.7676C430.168 55.5059 430.417 56.0713 430.915 56.4639C431.419 56.8506 432.148 57.0439 433.104 57.0439C433.432 57.0439 433.792 57.0322 434.185 57.0088C434.577 56.9912 434.876 56.9736 435.081 56.9561L435.292 55.6904C435.104 55.708 434.853 55.7227 434.536 55.7344C434.22 55.7402 433.883 55.7432 433.525 55.7432C432.307 55.7432 431.697 55.3096 431.697 54.4424C431.697 54.3721 431.7 54.3018 431.706 54.2314C431.712 54.1553 431.724 54.0762 431.741 53.9941L432.708 48.7646H436.558L436.777 47.4902H432.91L433.358 44.9062H431.882Z" fill="#AAAAAA"/>
<path d="M355.928 195.493C355.928 195.476 355.928 195.455 355.928 195.432C355.934 195.408 355.937 195.388 355.937 195.37H354.372C354.372 195.376 354.372 195.382 354.372 195.388C354.372 195.394 354.369 195.402 354.363 195.414C354.211 196.164 353.877 196.747 353.361 197.163C352.852 197.573 352.21 197.778 351.437 197.778C350.534 197.778 349.831 197.512 349.327 196.979C348.823 196.439 348.571 195.687 348.571 194.72C348.571 194.479 348.58 194.242 348.598 194.008C348.621 193.768 348.65 193.557 348.686 193.375L349.072 191.169C349.289 190.003 349.696 189.109 350.294 188.488C350.897 187.861 351.653 187.548 352.562 187.548C353.376 187.548 354.023 187.771 354.504 188.216C354.99 188.661 355.233 189.256 355.233 190C355.233 190.088 355.23 190.17 355.225 190.246C355.225 190.316 355.219 190.401 355.207 190.501H356.736C356.754 190.384 356.766 190.272 356.771 190.167C356.783 190.056 356.789 189.95 356.789 189.851C356.789 189.101 356.613 188.441 356.262 187.873C355.916 187.305 355.43 186.859 354.803 186.537C354.182 186.215 353.464 186.054 352.649 186.054C351.255 186.054 350.112 186.502 349.222 187.398C348.337 188.295 347.751 189.59 347.464 191.283L347.112 193.296C347.077 193.489 347.048 193.715 347.024 193.973C347.001 194.225 346.989 194.468 346.989 194.702C346.989 195.64 347.162 196.451 347.508 197.137C347.859 197.822 348.357 198.35 349.002 198.719C349.646 199.088 350.408 199.272 351.287 199.272C352.113 199.272 352.863 199.114 353.537 198.798C354.211 198.476 354.756 198.03 355.172 197.462C355.594 196.894 355.846 196.237 355.928 195.493ZM362.212 199.167C363.36 199.167 364.304 198.845 365.042 198.2C365.786 197.556 366.264 196.645 366.475 195.467L366.712 194.14C366.741 193.94 366.762 193.753 366.773 193.577C366.791 193.401 366.8 193.249 366.8 193.12C366.8 192.358 366.639 191.69 366.316 191.116C365.994 190.542 365.54 190.097 364.954 189.78C364.368 189.458 363.677 189.297 362.88 189.297C361.796 189.297 360.879 189.628 360.129 190.29C359.379 190.946 358.904 191.846 358.705 192.988L358.477 194.307C358.447 194.488 358.424 194.67 358.406 194.852C358.395 195.033 358.389 195.215 358.389 195.396C358.389 196.141 358.547 196.797 358.863 197.365C359.186 197.928 359.634 198.37 360.208 198.692C360.782 199.009 361.45 199.167 362.212 199.167ZM362.854 190.615C363.598 190.615 364.195 190.844 364.646 191.301C365.104 191.758 365.332 192.361 365.332 193.111C365.332 193.24 365.326 193.375 365.314 193.516C365.309 193.656 365.297 193.791 365.279 193.92L365.06 195.159C364.901 196.021 364.588 196.686 364.119 197.154C363.65 197.617 363.056 197.849 362.335 197.849C361.585 197.849 360.981 197.62 360.524 197.163C360.073 196.7 359.848 196.088 359.848 195.326C359.848 195.191 359.854 195.054 359.865 194.913C359.877 194.767 359.897 194.605 359.927 194.43L360.138 193.226C360.284 192.411 360.598 191.772 361.078 191.31C361.559 190.847 362.15 190.615 362.854 190.615ZM368.971 199H370.465L371.458 193.366C371.604 192.54 371.938 191.884 372.46 191.397C372.981 190.905 373.594 190.659 374.297 190.659C374.918 190.659 375.41 190.844 375.773 191.213C376.143 191.576 376.327 192.062 376.327 192.672C376.327 192.795 376.318 192.941 376.301 193.111C376.283 193.281 376.26 193.46 376.23 193.647L375.281 199H376.775L377.716 193.63C377.769 193.302 377.804 193.041 377.821 192.848C377.845 192.654 377.856 192.479 377.856 192.32C377.856 191.418 377.581 190.688 377.03 190.132C376.485 189.569 375.759 189.288 374.851 189.288C374.171 189.288 373.57 189.452 373.049 189.78C372.527 190.103 372.144 190.542 371.897 191.099H371.801L372.082 189.464H370.649L368.971 199ZM384.501 186.906L384.053 189.49H381.504L381.293 190.765H383.833L382.866 196.003C382.837 196.149 382.816 196.287 382.805 196.416C382.793 196.539 382.787 196.656 382.787 196.768C382.787 197.506 383.036 198.071 383.534 198.464C384.038 198.851 384.768 199.044 385.723 199.044C386.051 199.044 386.411 199.032 386.804 199.009C387.196 198.991 387.495 198.974 387.7 198.956L387.911 197.69C387.724 197.708 387.472 197.723 387.155 197.734C386.839 197.74 386.502 197.743 386.145 197.743C384.926 197.743 384.316 197.31 384.316 196.442C384.316 196.372 384.319 196.302 384.325 196.231C384.331 196.155 384.343 196.076 384.36 195.994L385.327 190.765H389.177L389.396 189.49H385.529L385.978 186.906H384.501ZM396.533 190.571C397.283 190.571 397.866 190.806 398.282 191.274C398.698 191.743 398.862 192.344 398.774 193.076C398.769 193.146 398.76 193.217 398.748 193.287C398.742 193.357 398.736 193.425 398.73 193.489H393.659C393.677 193.39 393.694 193.29 393.712 193.19C393.735 193.091 393.756 192.994 393.773 192.9C393.908 192.174 394.222 191.605 394.714 191.195C395.206 190.779 395.812 190.571 396.533 190.571ZM399.592 196.539H398.115C398.01 196.926 397.737 197.248 397.298 197.506C396.864 197.758 396.366 197.884 395.804 197.884C395.019 197.884 394.406 197.644 393.967 197.163C393.533 196.683 393.357 196.044 393.439 195.247C393.445 195.153 393.454 195.054 393.466 194.948C393.478 194.837 393.492 194.729 393.51 194.623H400.022L400.128 193.858C400.146 193.729 400.16 193.601 400.172 193.472C400.189 193.337 400.204 193.199 400.216 193.059C400.292 192.338 400.187 191.693 399.899 191.125C399.618 190.557 399.196 190.108 398.634 189.78C398.071 189.452 397.409 189.288 396.647 189.288C395.868 189.288 395.171 189.438 394.556 189.736C393.94 190.029 393.439 190.451 393.053 191.002C392.666 191.547 392.411 192.197 392.288 192.953L392.104 194.148C392.057 194.471 392.021 194.734 391.998 194.939C391.98 195.139 391.972 195.326 391.972 195.502C391.972 196.639 392.306 197.535 392.974 198.191C393.642 198.848 394.559 199.176 395.725 199.176C396.381 199.176 396.987 199.062 397.544 198.833C398.101 198.604 398.561 198.291 398.924 197.893C399.293 197.494 399.516 197.043 399.592 196.539ZM402.352 199H403.846L404.839 193.366C404.985 192.54 405.319 191.884 405.841 191.397C406.362 190.905 406.975 190.659 407.678 190.659C408.299 190.659 408.791 190.844 409.154 191.213C409.523 191.576 409.708 192.062 409.708 192.672C409.708 192.795 409.699 192.941 409.682 193.111C409.664 193.281 409.641 193.46 409.611 193.647L408.662 199H410.156L411.097 193.63C411.149 193.302 411.185 193.041 411.202 192.848C411.226 192.654 411.237 192.479 411.237 192.32C411.237 191.418 410.962 190.688 410.411 190.132C409.866 189.569 409.14 189.288 408.231 189.288C407.552 189.288 406.951 189.452 406.43 189.78C405.908 190.103 405.524 190.542 405.278 191.099H405.182L405.463 189.464H404.03L402.352 199ZM417.882 186.906L417.434 189.49H414.885L414.674 190.765H417.214L416.247 196.003C416.218 196.149 416.197 196.287 416.186 196.416C416.174 196.539 416.168 196.656 416.168 196.768C416.168 197.506 416.417 198.071 416.915 198.464C417.419 198.851 418.148 199.044 419.104 199.044C419.432 199.044 419.792 199.032 420.185 199.009C420.577 198.991 420.876 198.974 421.081 198.956L421.292 197.69C421.104 197.708 420.853 197.723 420.536 197.734C420.22 197.74 419.883 197.743 419.525 197.743C418.307 197.743 417.697 197.31 417.697 196.442C417.697 196.372 417.7 196.302 417.706 196.231C417.712 196.155 417.724 196.076 417.741 195.994L418.708 190.765H422.558L422.777 189.49H418.91L419.358 186.906H417.882Z" fill="#AAAAAA"/>
<path d="M1 82V70H794V82" stroke="#AAAAAA"/>
<path d="M91 163V175H677V163" stroke="#AAAAAA"/>
<path d="M1 163V175H83V163" stroke="#AAAAAA"/>
<path d="M91 163V175H677V163" stroke="#AAAAAA"/>
<path d="M685 163V175H794V163" stroke="#AAAAAA"/>
<path d="M14.1123 196.395L14.4902 194.355C14.5312 194.074 14.5605 193.796 14.5781 193.521C14.6016 193.245 14.6133 192.973 14.6133 192.703C14.6133 191.766 14.4346 190.951 14.0771 190.26C13.7197 189.562 13.2158 189.021 12.5654 188.634C11.915 188.247 11.1475 188.054 10.2627 188.054C8.98535 188.054 7.91309 188.479 7.0459 189.328C6.18457 190.172 5.62207 191.353 5.3584 192.87L4.98926 194.909C4.94238 195.144 4.90723 195.407 4.88379 195.7C4.86621 195.987 4.85742 196.324 4.85742 196.711C4.85742 197.613 5.03613 198.407 5.39355 199.093C5.75098 199.772 6.25195 200.306 6.89648 200.692C7.54102 201.073 8.28516 201.264 9.12891 201.264C10.4707 201.264 11.5635 200.851 12.4072 200.024C13.2568 199.192 13.8252 197.982 14.1123 196.395ZM9.25195 199.796C8.38477 199.796 7.69629 199.506 7.18652 198.926C6.67676 198.34 6.42188 197.543 6.42188 196.535C6.42188 196.289 6.43066 196.055 6.44824 195.832C6.47168 195.604 6.50391 195.357 6.54492 195.094L6.90527 193.116C7.11621 191.933 7.50293 191.039 8.06543 190.436C8.62793 189.826 9.33691 189.521 10.1924 189.521C11.0596 189.521 11.7539 189.814 12.2754 190.4C12.7969 190.98 13.0576 191.751 13.0576 192.712C13.0576 192.899 13.0459 193.119 13.0225 193.371C13.0049 193.623 12.9814 193.843 12.9521 194.03L12.583 196.087C12.3721 197.288 11.9795 198.208 11.4053 198.847C10.8369 199.479 10.1191 199.796 9.25195 199.796ZM20.6689 201.158C21.6885 201.158 22.5469 200.836 23.2441 200.191C23.9414 199.547 24.3896 198.653 24.5889 197.511L24.8613 195.981C24.8965 195.8 24.9229 195.598 24.9404 195.375C24.958 195.146 24.9668 194.944 24.9668 194.769C24.9668 194.048 24.8291 193.43 24.5537 192.914C24.2783 192.398 23.8887 192.003 23.3848 191.728C22.8867 191.446 22.3037 191.306 21.6357 191.306C21.0088 191.306 20.4346 191.473 19.9131 191.807C19.3916 192.135 19.0225 192.58 18.8057 193.143H18.7002L18.999 191.464H17.5312L15.29 204.217H16.7842L17.6895 199.084H17.7598C17.8652 199.688 18.1875 200.186 18.7266 200.578C19.2715 200.965 19.9189 201.158 20.6689 201.158ZM20.4756 199.761C19.7607 199.761 19.1777 199.532 18.7266 199.075C18.2754 198.618 18.0498 198.035 18.0498 197.326C18.0498 197.191 18.0527 197.074 18.0586 196.975C18.0645 196.875 18.0732 196.781 18.085 196.693L18.3398 195.278C18.4863 194.464 18.8174 193.831 19.333 193.38C19.8486 192.923 20.4814 192.694 21.2314 192.694C21.9111 192.694 22.4473 192.908 22.8398 193.336C23.2383 193.764 23.4375 194.335 23.4375 195.05C23.4375 195.185 23.4287 195.334 23.4111 195.498C23.3994 195.662 23.3848 195.803 23.3672 195.92L23.1475 197.194C22.9951 198.038 22.6904 198.677 22.2334 199.11C21.7822 199.544 21.1963 199.761 20.4756 199.761ZM32.2793 192.571C33.0293 192.571 33.6123 192.806 34.0283 193.274C34.4443 193.743 34.6084 194.344 34.5205 195.076C34.5146 195.146 34.5059 195.217 34.4941 195.287C34.4883 195.357 34.4824 195.425 34.4766 195.489H29.4053C29.4229 195.39 29.4404 195.29 29.458 195.19C29.4814 195.091 29.502 194.994 29.5195 194.9C29.6543 194.174 29.9678 193.605 30.46 193.195C30.9521 192.779 31.5586 192.571 32.2793 192.571ZM35.3379 198.539H33.8613C33.7559 198.926 33.4834 199.248 33.0439 199.506C32.6104 199.758 32.1123 199.884 31.5498 199.884C30.7646 199.884 30.1523 199.644 29.7129 199.163C29.2793 198.683 29.1035 198.044 29.1855 197.247C29.1914 197.153 29.2002 197.054 29.2119 196.948C29.2236 196.837 29.2383 196.729 29.2559 196.623H35.7686L35.874 195.858C35.8916 195.729 35.9062 195.601 35.918 195.472C35.9355 195.337 35.9502 195.199 35.9619 195.059C36.0381 194.338 35.9326 193.693 35.6455 193.125C35.3643 192.557 34.9424 192.108 34.3799 191.78C33.8174 191.452 33.1553 191.288 32.3936 191.288C31.6143 191.288 30.917 191.438 30.3018 191.736C29.6865 192.029 29.1855 192.451 28.7988 193.002C28.4121 193.547 28.1572 194.197 28.0342 194.953L27.8496 196.148C27.8027 196.471 27.7676 196.734 27.7441 196.939C27.7266 197.139 27.7178 197.326 27.7178 197.502C27.7178 198.639 28.0518 199.535 28.7197 200.191C29.3877 200.848 30.3047 201.176 31.4707 201.176C32.127 201.176 32.7334 201.062 33.29 200.833C33.8467 200.604 34.3066 200.291 34.6699 199.893C35.0391 199.494 35.2617 199.043 35.3379 198.539ZM38.0977 201H39.5918L40.585 195.366C40.7314 194.54 41.0654 193.884 41.5869 193.397C42.1084 192.905 42.7207 192.659 43.4238 192.659C44.0449 192.659 44.5371 192.844 44.9004 193.213C45.2695 193.576 45.4541 194.062 45.4541 194.672C45.4541 194.795 45.4453 194.941 45.4277 195.111C45.4102 195.281 45.3867 195.46 45.3574 195.647L44.4082 201H45.9023L46.8428 195.63C46.8955 195.302 46.9307 195.041 46.9482 194.848C46.9717 194.654 46.9834 194.479 46.9834 194.32C46.9834 193.418 46.708 192.688 46.1572 192.132C45.6123 191.569 44.8857 191.288 43.9775 191.288C43.2979 191.288 42.6973 191.452 42.1758 191.78C41.6543 192.103 41.2705 192.542 41.0244 193.099H40.9277L41.209 191.464H39.7764L38.0977 201ZM55.5967 189.126C55.9482 189.126 56.2412 189.009 56.4756 188.774C56.7158 188.54 56.8359 188.247 56.8359 187.896C56.8359 187.55 56.7158 187.26 56.4756 187.025C56.2412 186.791 55.9482 186.674 55.5967 186.674C55.2451 186.674 54.9492 186.791 54.709 187.025C54.4746 187.26 54.3574 187.55 54.3574 187.896C54.3574 188.247 54.4746 188.54 54.709 188.774C54.9492 189.009 55.2451 189.126 55.5967 189.126ZM57.293 201L57.5039 199.761H54.3398L55.8164 191.464H51.0967L50.8945 192.703H54.1289L52.8721 199.761H49.6025L49.3916 201H57.293ZM60.3516 201H61.8457L62.8389 195.366C62.9854 194.54 63.3193 193.884 63.8408 193.397C64.3623 192.905 64.9746 192.659 65.6777 192.659C66.2988 192.659 66.791 192.844 67.1543 193.213C67.5234 193.576 67.708 194.062 67.708 194.672C67.708 194.795 67.6992 194.941 67.6816 195.111C67.6641 195.281 67.6406 195.46 67.6113 195.647L66.6621 201H68.1562L69.0967 195.63C69.1494 195.302 69.1846 195.041 69.2021 194.848C69.2256 194.654 69.2373 194.479 69.2373 194.32C69.2373 193.418 68.9619 192.688 68.4111 192.132C67.8662 191.569 67.1396 191.288 66.2314 191.288C65.5518 191.288 64.9512 191.452 64.4297 191.78C63.9082 192.103 63.5244 192.542 63.2783 193.099H63.1816L63.4629 191.464H62.0303L60.3516 201ZM76.2334 192.668C76.9482 192.668 77.5312 192.899 77.9824 193.362C78.4336 193.819 78.6592 194.414 78.6592 195.146C78.6592 195.246 78.6533 195.366 78.6416 195.507C78.6299 195.642 78.6094 195.785 78.5801 195.938L78.3867 197.062C78.2461 197.818 77.9268 198.431 77.4287 198.899C76.9307 199.368 76.3477 199.603 75.6797 199.603C74.9531 199.603 74.376 199.38 73.9482 198.935C73.5205 198.483 73.3066 197.871 73.3066 197.098C73.3066 196.986 73.3154 196.834 73.333 196.641C73.3564 196.447 73.3799 196.274 73.4033 196.122L73.5527 195.287C73.7051 194.479 74.0186 193.84 74.4932 193.371C74.9736 192.902 75.5537 192.668 76.2334 192.668ZM74.8447 204.577C76.0811 204.577 77.0684 204.27 77.8066 203.654C78.5508 203.039 79.0283 202.134 79.2393 200.938L80.9004 191.464H79.4062L79.0723 193.389H78.9668C78.8262 192.727 78.4951 192.214 77.9736 191.851C77.458 191.487 76.8047 191.306 76.0137 191.306C75 191.306 74.1416 191.64 73.4385 192.308C72.7354 192.976 72.2842 193.884 72.085 195.032L71.9004 196.104C71.8711 196.28 71.8447 196.494 71.8213 196.746C71.7979 196.992 71.7861 197.212 71.7861 197.405C71.7861 198.091 71.9297 198.703 72.2168 199.242C72.5039 199.775 72.8965 200.197 73.3945 200.508C73.8926 200.812 74.4609 200.965 75.0996 200.965C75.7559 200.965 76.3418 200.81 76.8574 200.499C77.3789 200.183 77.7451 199.761 77.9561 199.233H78.0615L77.7803 200.833C77.6338 201.665 77.3232 202.289 76.8486 202.705C76.3799 203.121 75.7529 203.329 74.9678 203.329C74.3115 203.329 73.7637 203.183 73.3242 202.89C72.8848 202.603 72.6621 202.236 72.6562 201.791C72.6562 201.773 72.6562 201.753 72.6562 201.729C72.6562 201.712 72.6562 201.694 72.6562 201.677H71.1797C71.1797 201.694 71.1797 201.715 71.1797 201.738C71.1797 201.762 71.1797 201.794 71.1797 201.835C71.1797 202.362 71.335 202.831 71.6455 203.241C71.9619 203.657 72.3955 203.982 72.9463 204.217C73.5029 204.457 74.1357 204.577 74.8447 204.577ZM31.374 210.906L30.9258 213.49H28.377L28.166 214.765H30.7061L29.7393 220.003C29.71 220.149 29.6895 220.287 29.6777 220.416C29.666 220.539 29.6602 220.656 29.6602 220.768C29.6602 221.506 29.9092 222.071 30.4072 222.464C30.9111 222.851 31.6406 223.044 32.5957 223.044C32.9238 223.044 33.2842 223.032 33.6768 223.009C34.0693 222.991 34.3682 222.974 34.5732 222.956L34.7842 221.69C34.5967 221.708 34.3447 221.723 34.0283 221.734C33.7119 221.74 33.375 221.743 33.0176 221.743C31.7988 221.743 31.1895 221.31 31.1895 220.442C31.1895 220.372 31.1924 220.302 31.1982 220.231C31.2041 220.155 31.2158 220.076 31.2334 219.994L32.2002 214.765H36.0498L36.2695 213.49H32.4023L32.8506 210.906H31.374ZM41.4111 223.158C42.0381 223.158 42.6035 223.023 43.1074 222.754C43.6113 222.479 43.9805 222.104 44.2148 221.629H44.3027L44.0654 223H45.4893L46.4561 217.498C46.5146 217.217 46.5557 216.994 46.5791 216.83C46.6025 216.66 46.6172 216.517 46.623 216.399C46.6348 216.276 46.6406 216.147 46.6406 216.013C46.6406 215.21 46.3389 214.565 45.7354 214.079C45.1318 213.587 44.332 213.341 43.3359 213.341C42.6914 213.341 42.0996 213.452 41.5605 213.675C41.0215 213.892 40.5762 214.193 40.2246 214.58C39.873 214.967 39.6475 215.412 39.5479 215.916H41.042C41.165 215.535 41.4258 215.228 41.8242 214.993C42.2227 214.753 42.6797 214.633 43.1953 214.633C43.793 214.633 44.2676 214.779 44.6191 215.072C44.9707 215.359 45.1465 215.746 45.1465 216.232C45.1465 216.326 45.1406 216.42 45.1289 216.514C45.1172 216.602 45.0996 216.719 45.0762 216.865L44.9883 217.349L42.6152 217.366C41.2969 217.378 40.2861 217.65 39.583 218.184C38.8799 218.717 38.5312 219.481 38.5371 220.478C38.543 221.005 38.666 221.471 38.9062 221.875C39.1523 222.279 39.4893 222.596 39.917 222.824C40.3506 223.047 40.8486 223.158 41.4111 223.158ZM41.9297 221.849C41.3613 221.849 40.9102 221.705 40.5762 221.418C40.2422 221.131 40.0781 220.747 40.084 220.267C40.0898 219.716 40.3096 219.288 40.7432 218.983C41.1826 218.679 41.8037 218.523 42.6064 218.518L44.7949 218.509L44.584 219.634C44.5078 220.062 44.3408 220.442 44.083 220.776C43.8252 221.104 43.5088 221.365 43.1338 221.559C42.7646 221.752 42.3633 221.849 41.9297 221.849ZM53.9795 214.668C54.6943 214.668 55.2773 214.899 55.7285 215.362C56.1797 215.819 56.4053 216.414 56.4053 217.146C56.4053 217.246 56.3994 217.366 56.3877 217.507C56.376 217.642 56.3555 217.785 56.3262 217.938L56.1328 219.062C55.9922 219.818 55.6729 220.431 55.1748 220.899C54.6768 221.368 54.0938 221.603 53.4258 221.603C52.6992 221.603 52.1221 221.38 51.6943 220.935C51.2666 220.483 51.0527 219.871 51.0527 219.098C51.0527 218.986 51.0615 218.834 51.0791 218.641C51.1025 218.447 51.126 218.274 51.1494 218.122L51.2988 217.287C51.4512 216.479 51.7646 215.84 52.2393 215.371C52.7197 214.902 53.2998 214.668 53.9795 214.668ZM52.5908 226.577C53.8271 226.577 54.8145 226.27 55.5527 225.654C56.2969 225.039 56.7744 224.134 56.9854 222.938L58.6465 213.464H57.1523L56.8184 215.389H56.7129C56.5723 214.727 56.2412 214.214 55.7197 213.851C55.2041 213.487 54.5508 213.306 53.7598 213.306C52.7461 213.306 51.8877 213.64 51.1846 214.308C50.4814 214.976 50.0303 215.884 49.8311 217.032L49.6465 218.104C49.6172 218.28 49.5908 218.494 49.5674 218.746C49.5439 218.992 49.5322 219.212 49.5322 219.405C49.5322 220.091 49.6758 220.703 49.9629 221.242C50.25 221.775 50.6426 222.197 51.1406 222.508C51.6387 222.812 52.207 222.965 52.8457 222.965C53.502 222.965 54.0879 222.81 54.6035 222.499C55.125 222.183 55.4912 221.761 55.7021 221.233H55.8076L55.5264 222.833C55.3799 223.665 55.0693 224.289 54.5947 224.705C54.126 225.121 53.499 225.329 52.7139 225.329C52.0576 225.329 51.5098 225.183 51.0703 224.89C50.6309 224.603 50.4082 224.236 50.4023 223.791C50.4023 223.773 50.4023 223.753 50.4023 223.729C50.4023 223.712 50.4023 223.694 50.4023 223.677H48.9258C48.9258 223.694 48.9258 223.715 48.9258 223.738C48.9258 223.762 48.9258 223.794 48.9258 223.835C48.9258 224.362 49.0811 224.831 49.3916 225.241C49.708 225.657 50.1416 225.982 50.6924 226.217C51.249 226.457 51.8818 226.577 52.5908 226.577Z" fill="#AAAAAA"/>
<path d="M706.364 197.493C706.364 197.476 706.364 197.455 706.364 197.432C706.37 197.408 706.373 197.388 706.373 197.37H704.809C704.809 197.376 704.809 197.382 704.809 197.388C704.809 197.394 704.806 197.402 704.8 197.414C704.647 198.164 704.313 198.747 703.798 199.163C703.288 199.573 702.646 199.778 701.873 199.778C700.971 199.778 700.268 199.512 699.764 198.979C699.26 198.439 699.008 197.687 699.008 196.72C699.008 196.479 699.017 196.242 699.034 196.008C699.058 195.768 699.087 195.557 699.122 195.375L699.509 193.169C699.726 192.003 700.133 191.109 700.73 190.488C701.334 189.861 702.09 189.548 702.998 189.548C703.812 189.548 704.46 189.771 704.94 190.216C705.427 190.661 705.67 191.256 705.67 192C705.67 192.088 705.667 192.17 705.661 192.246C705.661 192.316 705.655 192.401 705.644 192.501H707.173C707.19 192.384 707.202 192.272 707.208 192.167C707.22 192.056 707.226 191.95 707.226 191.851C707.226 191.101 707.05 190.441 706.698 189.873C706.353 189.305 705.866 188.859 705.239 188.537C704.618 188.215 703.9 188.054 703.086 188.054C701.691 188.054 700.549 188.502 699.658 189.398C698.773 190.295 698.188 191.59 697.9 193.283L697.549 195.296C697.514 195.489 697.484 195.715 697.461 195.973C697.438 196.225 697.426 196.468 697.426 196.702C697.426 197.64 697.599 198.451 697.944 199.137C698.296 199.822 698.794 200.35 699.438 200.719C700.083 201.088 700.845 201.272 701.724 201.272C702.55 201.272 703.3 201.114 703.974 200.798C704.647 200.476 705.192 200.03 705.608 199.462C706.03 198.894 706.282 198.237 706.364 197.493ZM716.349 201L716.56 199.761H713.413L715.54 187.72H710.82L710.609 188.959H713.844L711.919 199.761H708.658L708.447 201H716.349ZM723.775 201.167C724.924 201.167 725.867 200.845 726.605 200.2C727.35 199.556 727.827 198.645 728.038 197.467L728.275 196.14C728.305 195.94 728.325 195.753 728.337 195.577C728.354 195.401 728.363 195.249 728.363 195.12C728.363 194.358 728.202 193.69 727.88 193.116C727.558 192.542 727.104 192.097 726.518 191.78C725.932 191.458 725.24 191.297 724.443 191.297C723.359 191.297 722.442 191.628 721.692 192.29C720.942 192.946 720.468 193.846 720.269 194.988L720.04 196.307C720.011 196.488 719.987 196.67 719.97 196.852C719.958 197.033 719.952 197.215 719.952 197.396C719.952 198.141 720.11 198.797 720.427 199.365C720.749 199.928 721.197 200.37 721.771 200.692C722.346 201.009 723.014 201.167 723.775 201.167ZM724.417 192.615C725.161 192.615 725.759 192.844 726.21 193.301C726.667 193.758 726.896 194.361 726.896 195.111C726.896 195.24 726.89 195.375 726.878 195.516C726.872 195.656 726.86 195.791 726.843 195.92L726.623 197.159C726.465 198.021 726.151 198.686 725.683 199.154C725.214 199.617 724.619 199.849 723.898 199.849C723.148 199.849 722.545 199.62 722.088 199.163C721.637 198.7 721.411 198.088 721.411 197.326C721.411 197.191 721.417 197.054 721.429 196.913C721.44 196.767 721.461 196.605 721.49 196.43L721.701 195.226C721.848 194.411 722.161 193.772 722.642 193.31C723.122 192.847 723.714 192.615 724.417 192.615ZM732.187 194.18C732.187 194.754 732.359 195.234 732.705 195.621C733.057 196.008 733.607 196.327 734.357 196.579L735.676 197.01C736.191 197.174 736.561 197.364 736.783 197.581C737.006 197.798 737.117 198.067 737.117 198.39C737.117 198.853 736.912 199.225 736.502 199.506C736.098 199.787 735.564 199.928 734.902 199.928C734.24 199.928 733.71 199.793 733.312 199.523C732.919 199.254 732.69 198.87 732.626 198.372C732.626 198.366 732.626 198.36 732.626 198.354H731.149C731.149 198.372 731.149 198.387 731.149 198.398C731.149 198.41 731.149 198.425 731.149 198.442C731.173 198.999 731.34 199.482 731.65 199.893C731.961 200.303 732.392 200.622 732.942 200.851C733.493 201.073 734.135 201.185 734.867 201.185C735.629 201.185 736.294 201.059 736.862 200.807C737.437 200.555 737.882 200.2 738.198 199.743C738.521 199.286 738.682 198.759 738.682 198.161C738.682 197.575 738.503 197.095 738.146 196.72C737.788 196.339 737.211 196.017 736.414 195.753L735.157 195.34C734.636 195.17 734.261 194.979 734.032 194.769C733.81 194.558 733.698 194.297 733.698 193.986C733.698 193.553 733.892 193.198 734.278 192.923C734.671 192.647 735.178 192.51 735.799 192.51C736.391 192.51 736.859 192.639 737.205 192.896C737.551 193.154 737.75 193.526 737.803 194.013C737.803 194.019 737.803 194.024 737.803 194.03C737.803 194.03 737.803 194.033 737.803 194.039H739.253C739.253 194.021 739.253 194.004 739.253 193.986C739.259 193.969 739.262 193.945 739.262 193.916C739.238 193.371 739.083 192.902 738.796 192.51C738.509 192.111 738.113 191.807 737.609 191.596C737.111 191.385 736.52 191.279 735.834 191.279C735.119 191.279 734.486 191.402 733.936 191.648C733.385 191.889 732.954 192.229 732.644 192.668C732.339 193.102 732.187 193.605 732.187 194.18ZM748.033 189.126C748.385 189.126 748.678 189.009 748.912 188.774C749.152 188.54 749.272 188.247 749.272 187.896C749.272 187.55 749.152 187.26 748.912 187.025C748.678 186.791 748.385 186.674 748.033 186.674C747.682 186.674 747.386 186.791 747.146 187.025C746.911 187.26 746.794 187.55 746.794 187.896C746.794 188.247 746.911 188.54 747.146 188.774C747.386 189.009 747.682 189.126 748.033 189.126ZM749.729 201L749.94 199.761H746.776L748.253 191.464H743.533L743.331 192.703H746.565L745.309 199.761H742.039L741.828 201H749.729ZM752.788 201H754.282L755.275 195.366C755.422 194.54 755.756 193.884 756.277 193.397C756.799 192.905 757.411 192.659 758.114 192.659C758.735 192.659 759.228 192.844 759.591 193.213C759.96 193.576 760.145 194.062 760.145 194.672C760.145 194.795 760.136 194.941 760.118 195.111C760.101 195.281 760.077 195.46 760.048 195.647L759.099 201H760.593L761.533 195.63C761.586 195.302 761.621 195.041 761.639 194.848C761.662 194.654 761.674 194.479 761.674 194.32C761.674 193.418 761.398 192.688 760.848 192.132C760.303 191.569 759.576 191.288 758.668 191.288C757.988 191.288 757.388 191.452 756.866 191.78C756.345 192.103 755.961 192.542 755.715 193.099H755.618L755.899 191.464H754.467L752.788 201ZM768.67 192.668C769.385 192.668 769.968 192.899 770.419 193.362C770.87 193.819 771.096 194.414 771.096 195.146C771.096 195.246 771.09 195.366 771.078 195.507C771.066 195.642 771.046 195.785 771.017 195.938L770.823 197.062C770.683 197.818 770.363 198.431 769.865 198.899C769.367 199.368 768.784 199.603 768.116 199.603C767.39 199.603 766.812 199.38 766.385 198.935C765.957 198.483 765.743 197.871 765.743 197.098C765.743 196.986 765.752 196.834 765.77 196.641C765.793 196.447 765.816 196.274 765.84 196.122L765.989 195.287C766.142 194.479 766.455 193.84 766.93 193.371C767.41 192.902 767.99 192.668 768.67 192.668ZM767.281 204.577C768.518 204.577 769.505 204.27 770.243 203.654C770.987 203.039 771.465 202.134 771.676 200.938L773.337 191.464H771.843L771.509 193.389H771.403C771.263 192.727 770.932 192.214 770.41 191.851C769.895 191.487 769.241 191.306 768.45 191.306C767.437 191.306 766.578 191.64 765.875 192.308C765.172 192.976 764.721 193.884 764.521 195.032L764.337 196.104C764.308 196.28 764.281 196.494 764.258 196.746C764.234 196.992 764.223 197.212 764.223 197.405C764.223 198.091 764.366 198.703 764.653 199.242C764.94 199.775 765.333 200.197 765.831 200.508C766.329 200.812 766.897 200.965 767.536 200.965C768.192 200.965 768.778 200.81 769.294 200.499C769.815 200.183 770.182 199.761 770.393 199.233H770.498L770.217 200.833C770.07 201.665 769.76 202.289 769.285 202.705C768.816 203.121 768.189 203.329 767.404 203.329C766.748 203.329 766.2 203.183 765.761 202.89C765.321 202.603 765.099 202.236 765.093 201.791C765.093 201.773 765.093 201.753 765.093 201.729C765.093 201.712 765.093 201.694 765.093 201.677H763.616C763.616 201.694 763.616 201.715 763.616 201.738C763.616 201.762 763.616 201.794 763.616 201.835C763.616 202.362 763.771 202.831 764.082 203.241C764.398 203.657 764.832 203.982 765.383 204.217C765.939 204.457 766.572 204.577 767.281 204.577ZM729.374 210.906L728.926 213.49H726.377L726.166 214.765H728.706L727.739 220.003C727.71 220.149 727.689 220.287 727.678 220.416C727.666 220.539 727.66 220.656 727.66 220.768C727.66 221.506 727.909 222.071 728.407 222.464C728.911 222.851 729.641 223.044 730.596 223.044C730.924 223.044 731.284 223.032 731.677 223.009C732.069 222.991 732.368 222.974 732.573 222.956L732.784 221.69C732.597 221.708 732.345 221.723 732.028 221.734C731.712 221.74 731.375 221.743 731.018 221.743C729.799 221.743 729.189 221.31 729.189 220.442C729.189 220.372 729.192 220.302 729.198 220.231C729.204 220.155 729.216 220.076 729.233 219.994L730.2 214.765H734.05L734.27 213.49H730.402L730.851 210.906H729.374ZM739.411 223.158C740.038 223.158 740.604 223.023 741.107 222.754C741.611 222.479 741.98 222.104 742.215 221.629H742.303L742.065 223H743.489L744.456 217.498C744.515 217.217 744.556 216.994 744.579 216.83C744.603 216.66 744.617 216.517 744.623 216.399C744.635 216.276 744.641 216.147 744.641 216.013C744.641 215.21 744.339 214.565 743.735 214.079C743.132 213.587 742.332 213.341 741.336 213.341C740.691 213.341 740.1 213.452 739.561 213.675C739.021 213.892 738.576 214.193 738.225 214.58C737.873 214.967 737.647 215.412 737.548 215.916H739.042C739.165 215.535 739.426 215.228 739.824 214.993C740.223 214.753 740.68 214.633 741.195 214.633C741.793 214.633 742.268 214.779 742.619 215.072C742.971 215.359 743.146 215.746 743.146 216.232C743.146 216.326 743.141 216.42 743.129 216.514C743.117 216.602 743.1 216.719 743.076 216.865L742.988 217.349L740.615 217.366C739.297 217.378 738.286 217.65 737.583 218.184C736.88 218.717 736.531 219.481 736.537 220.478C736.543 221.005 736.666 221.471 736.906 221.875C737.152 222.279 737.489 222.596 737.917 222.824C738.351 223.047 738.849 223.158 739.411 223.158ZM739.93 221.849C739.361 221.849 738.91 221.705 738.576 221.418C738.242 221.131 738.078 220.747 738.084 220.267C738.09 219.716 738.31 219.288 738.743 218.983C739.183 218.679 739.804 218.523 740.606 218.518L742.795 218.509L742.584 219.634C742.508 220.062 742.341 220.442 742.083 220.776C741.825 221.104 741.509 221.365 741.134 221.559C740.765 221.752 740.363 221.849 739.93 221.849ZM751.979 214.668C752.694 214.668 753.277 214.899 753.729 215.362C754.18 215.819 754.405 216.414 754.405 217.146C754.405 217.246 754.399 217.366 754.388 217.507C754.376 217.642 754.355 217.785 754.326 217.938L754.133 219.062C753.992 219.818 753.673 220.431 753.175 220.899C752.677 221.368 752.094 221.603 751.426 221.603C750.699 221.603 750.122 221.38 749.694 220.935C749.267 220.483 749.053 219.871 749.053 219.098C749.053 218.986 749.062 218.834 749.079 218.641C749.103 218.447 749.126 218.274 749.149 218.122L749.299 217.287C749.451 216.479 749.765 215.84 750.239 215.371C750.72 214.902 751.3 214.668 751.979 214.668ZM750.591 226.577C751.827 226.577 752.814 226.27 753.553 225.654C754.297 225.039 754.774 224.134 754.985 222.938L756.646 213.464H755.152L754.818 215.389H754.713C754.572 214.727 754.241 214.214 753.72 213.851C753.204 213.487 752.551 213.306 751.76 213.306C750.746 213.306 749.888 213.64 749.185 214.308C748.481 214.976 748.03 215.884 747.831 217.032L747.646 218.104C747.617 218.28 747.591 218.494 747.567 218.746C747.544 218.992 747.532 219.212 747.532 219.405C747.532 220.091 747.676 220.703 747.963 221.242C748.25 221.775 748.643 222.197 749.141 222.508C749.639 222.812 750.207 222.965 750.846 222.965C751.502 222.965 752.088 222.81 752.604 222.499C753.125 222.183 753.491 221.761 753.702 221.233H753.808L753.526 222.833C753.38 223.665 753.069 224.289 752.595 224.705C752.126 225.121 751.499 225.329 750.714 225.329C750.058 225.329 749.51 225.183 749.07 224.89C748.631 224.603 748.408 224.236 748.402 223.791C748.402 223.773 748.402 223.753 748.402 223.729C748.402 223.712 748.402 223.694 748.402 223.677H746.926C746.926 223.694 746.926 223.715 746.926 223.738C746.926 223.762 746.926 223.794 746.926 223.835C746.926 224.362 747.081 224.831 747.392 225.241C747.708 225.657 748.142 225.982 748.692 226.217C749.249 226.457 749.882 226.577 750.591 226.577Z" fill="#AAAAAA"/>
</svg>
