<svg width="605" height="438" viewBox="0 0 605 438" fill="none" xmlns="http://www.w3.org/2000/svg">
<path d="M506 84L518 84L518 293L506 293" stroke="#AAAAAA"/>
<path d="M538.782 194L541.015 181.317H539.477L538.501 186.811H533.148L534.115 181.317H532.577L530.345 194H531.883L532.911 188.234H538.264L537.244 194H538.782ZM550.155 191.539H548.679C548.468 192.321 547.492 192.884 546.367 192.884C544.794 192.884 543.845 191.838 544.003 190.247C544.003 190.212 544.056 189.685 544.073 189.623H550.586L550.691 188.858C550.7 188.779 550.779 188.164 550.779 188.059C551.008 185.896 549.487 184.288 547.211 184.288C544.864 184.288 543.203 185.694 542.852 187.953L542.667 189.148C542.57 189.79 542.535 190.15 542.535 190.502C542.535 192.778 543.959 194.176 546.288 194.176C548.248 194.176 549.909 193.051 550.155 191.539ZM547.097 185.571C548.591 185.571 549.514 186.608 549.338 188.076C549.338 188.129 549.294 188.454 549.294 188.489H544.223C544.231 188.463 544.328 187.918 544.337 187.9C544.609 186.45 545.664 185.571 547.097 185.571ZM559.287 182.126C559.99 182.126 560.526 181.599 560.526 180.896C560.526 180.201 559.99 179.674 559.287 179.674C558.584 179.674 558.048 180.201 558.048 180.896C558.048 181.599 558.584 182.126 559.287 182.126ZM560.983 194L561.194 192.761H558.03L559.507 184.464H554.787L554.585 185.703H557.819L556.562 192.761H553.293L553.082 194H560.983ZM567.408 197.577C569.887 197.577 571.381 196.329 571.803 193.938L573.464 184.464H571.97L571.636 186.389H571.53C571.249 185.062 570.168 184.306 568.577 184.306C566.556 184.306 565.044 185.738 564.648 188.032L564.464 189.104C564.402 189.456 564.35 190.019 564.35 190.405C564.35 192.471 565.747 193.965 567.663 193.965C568.973 193.965 570.089 193.279 570.52 192.233H570.625L570.344 193.833C570.036 195.494 569.104 196.329 567.531 196.329C566.222 196.329 565.237 195.67 565.22 194.791V194.677H563.743C563.743 194.686 563.743 194.791 563.743 194.835C563.743 196.426 565.281 197.577 567.408 197.577ZM568.797 185.668C570.229 185.668 571.223 186.688 571.223 188.146C571.223 188.349 571.196 188.639 571.144 188.938L570.95 190.062C570.678 191.574 569.579 192.603 568.243 192.603C566.784 192.603 565.87 191.645 565.87 190.098C565.87 189.878 565.914 189.43 565.967 189.122L566.116 188.287C566.415 186.67 567.443 185.668 568.797 185.668ZM575.16 194H576.654L577.647 188.366C577.946 186.714 579.08 185.668 580.495 185.668C581.734 185.668 582.543 186.477 582.543 187.681C582.543 187.936 582.499 188.287 582.438 188.647L581.488 194H582.982L583.923 188.621C584.028 187.988 584.072 187.628 584.072 187.32C584.072 185.501 582.851 184.297 581.049 184.297C579.704 184.297 578.597 184.982 578.087 186.099H577.99L578.939 180.72H577.507L575.16 194ZM590.699 181.906L590.251 184.49H587.702L587.491 185.765H590.031L589.064 191.003C589.012 191.293 588.985 191.557 588.985 191.768C588.985 193.253 590.014 194.044 591.921 194.044C592.396 194.044 593.67 194 593.898 193.956L594.109 192.69C593.872 192.717 592.932 192.743 592.343 192.743C591.095 192.743 590.515 192.321 590.515 191.442C590.515 191.311 590.523 191.17 590.559 190.994L591.525 185.765H595.375L595.595 184.49H591.728L592.176 181.906H590.699Z" fill="#AAAAAA"/>
<path d="M215.24 406.134L215.671 414H217.2L221.542 401.317H220.074L218.352 406.512L216.682 411.82H216.585L216.163 404.218H214.818L211.725 411.82H211.637L211.733 406.336L211.795 401.317H210.424L210.345 414H211.909L215.144 406.134H215.24ZM227.343 402.126C228.046 402.126 228.582 401.599 228.582 400.896C228.582 400.201 228.046 399.674 227.343 399.674C226.64 399.674 226.104 400.201 226.104 400.896C226.104 401.599 226.64 402.126 227.343 402.126ZM229.039 414L229.25 412.761H226.086L227.562 404.464H222.843L222.641 405.703H225.875L224.618 412.761H221.349L221.138 414H229.039ZM236.756 404.306C234.699 404.306 233.196 405.694 232.818 407.944L232.563 409.482C232.511 409.764 232.467 410.247 232.467 410.695C232.467 412.813 233.75 414.158 235.789 414.158C237.072 414.158 238.188 413.429 238.619 412.321H238.725L238.426 414H239.894L242.24 400.72H240.746L239.744 406.38H239.665C239.437 405.123 238.188 404.306 236.756 404.306ZM236.949 405.677C238.364 405.677 239.401 406.731 239.401 408.182C239.401 408.322 239.384 408.489 239.349 408.744L239.094 410.159C238.804 411.768 237.723 412.743 236.202 412.743C234.849 412.743 233.996 411.829 233.996 410.388C233.996 410.08 234.022 409.72 234.058 409.518L234.277 408.243C234.585 406.564 235.499 405.677 236.949 405.677ZM247.628 401.906L247.18 404.49H244.631L244.42 405.765H246.96L245.993 411.003C245.94 411.293 245.914 411.557 245.914 411.768C245.914 413.253 246.942 414.044 248.85 414.044C249.324 414.044 250.599 414 250.827 413.956L251.038 412.69C250.801 412.717 249.86 412.743 249.271 412.743C248.023 412.743 247.443 412.321 247.443 411.442C247.443 411.311 247.452 411.17 247.487 410.994L248.454 405.765H252.304L252.523 404.49H248.656L249.104 401.906H247.628ZM254.343 414H255.837L256.83 408.366C257.129 406.714 258.263 405.668 259.678 405.668C260.917 405.668 261.726 406.477 261.726 407.681C261.726 407.936 261.682 408.287 261.62 408.647L260.671 414H262.165L263.105 408.621C263.211 407.988 263.255 407.628 263.255 407.32C263.255 405.501 262.033 404.297 260.231 404.297C258.887 404.297 257.779 404.982 257.27 406.099H257.173L258.122 400.72H256.689L254.343 414Z" fill="#AAAAAA"/>
<path d="M93 377V389H379V377" stroke="#AAAAAA"/>
<rect x="57.5" y="48.5" width="357" height="280" fill="#FACDA1"/>
<path d="M206.248 67.1309L207.074 61.998H207.188L208.612 69.0205H209.825L213.736 61.998H213.851L212.857 67.1309L211.987 72H213.376L215.608 59.3174H213.798L209.535 67.166H209.43L207.909 59.3174H206.222L203.989 72H205.378L206.248 67.1309ZM219.221 72.1582C220.478 72.1582 221.55 71.5693 222.024 70.6289H222.112L221.875 72H223.299L224.266 66.498C224.424 65.6543 224.45 65.417 224.45 65.0127C224.45 63.4043 223.132 62.3408 221.146 62.3408C219.203 62.3408 217.656 63.3955 217.357 64.916H218.852C219.098 64.1514 219.977 63.6328 221.005 63.6328C222.191 63.6328 222.956 64.2568 222.956 65.2324C222.956 65.4258 222.938 65.5752 222.886 65.8652L222.798 66.3486L220.425 66.3662C217.788 66.3926 216.329 67.5 216.347 69.4775C216.364 71.0684 217.533 72.1582 219.221 72.1582ZM219.739 70.8486C218.605 70.8486 217.885 70.2334 217.894 69.2666C217.902 68.1592 218.808 67.5264 220.416 67.5176L222.604 67.5088L222.394 68.6338C222.165 69.9082 221.031 70.8486 219.739 70.8486ZM231.314 67.7109C231.745 65.2939 233.204 63.8438 235.19 63.8438C235.823 63.8438 236.359 63.9492 236.737 64.1689L237.019 62.5078C236.658 62.3232 236.175 62.2178 235.612 62.2178C233.89 62.2178 232.615 63.1494 231.991 64.8984H231.798L232.22 62.4639H228.66L228.458 63.6592H230.567L229.311 70.8047H227.386L227.175 72H233.512L233.723 70.8047H230.761L231.314 67.7109ZM241.527 75.5771C244.006 75.5771 245.5 74.3291 245.922 71.9385L247.583 62.4639H246.089L245.755 64.3887H245.649C245.368 63.0615 244.287 62.3057 242.696 62.3057C240.675 62.3057 239.163 63.7383 238.768 66.0322L238.583 67.1045C238.521 67.4561 238.469 68.0186 238.469 68.4053C238.469 70.4707 239.866 71.9648 241.782 71.9648C243.092 71.9648 244.208 71.2793 244.639 70.2334H244.744L244.463 71.833C244.155 73.4941 243.224 74.3291 241.65 74.3291C240.341 74.3291 239.356 73.6699 239.339 72.791V72.6768H237.862C237.862 72.6855 237.862 72.791 237.862 72.835C237.862 74.4258 239.4 75.5771 241.527 75.5771ZM242.916 63.668C244.349 63.668 245.342 64.6875 245.342 66.1465C245.342 66.3486 245.315 66.6387 245.263 66.9375L245.069 68.0625C244.797 69.5742 243.698 70.6025 242.362 70.6025C240.903 70.6025 239.989 69.6445 239.989 68.0977C239.989 67.8779 240.033 67.4297 240.086 67.1221L240.235 66.2871C240.534 64.6699 241.562 63.668 242.916 63.668ZM255.66 60.126C256.363 60.126 256.899 59.5986 256.899 58.8955C256.899 58.2012 256.363 57.6738 255.66 57.6738C254.957 57.6738 254.421 58.2012 254.421 58.8955C254.421 59.5986 254.957 60.126 255.66 60.126ZM257.356 72L257.567 70.7607H254.403L255.88 62.4639H251.16L250.958 63.7031H254.192L252.936 70.7607H249.666L249.455 72H257.356ZM260.415 72H261.909L262.902 66.3662C263.201 64.7139 264.335 63.6592 265.741 63.6592C266.989 63.6592 267.771 64.459 267.771 65.6719C267.771 65.9268 267.736 66.2783 267.675 66.6475L266.726 72H268.22L269.16 66.6299C269.266 65.9795 269.301 65.6455 269.301 65.3203C269.301 63.5098 268.114 62.2881 266.295 62.2881C264.933 62.2881 263.834 62.9824 263.342 64.0986H263.245L263.526 62.4639H262.094L260.415 72Z" fill="#666666"/>
<rect x="93.5" y="84.5" width="285" height="208" fill="#FDDD9D"/>
<path d="M204.771 108H209.324C212.216 108 214.044 106.559 214.062 104.282C214.07 102.806 213.191 101.707 211.794 101.443L211.812 101.347C213.323 101.039 214.396 99.7471 214.413 98.209C214.422 96.4072 213.13 95.3174 210.968 95.3174H207.004L204.771 108ZM208.322 96.6533H210.555C212.022 96.6533 212.796 97.2861 212.787 98.4727C212.778 99.8525 211.645 100.793 209.966 100.793H207.575L208.322 96.6533ZM206.529 106.655L207.355 102.085H209.799C211.521 102.085 212.471 102.823 212.471 104.168C212.471 105.68 211.205 106.655 209.254 106.655H206.529ZM220.275 108.167C222.569 108.167 224.116 106.831 224.538 104.467L224.775 103.14C224.837 102.744 224.863 102.384 224.863 102.12C224.863 99.835 223.334 98.2969 220.943 98.2969C218.772 98.2969 217.164 99.7119 216.769 101.988L216.54 103.307C216.479 103.667 216.452 104.036 216.452 104.396C216.452 106.629 217.981 108.167 220.275 108.167ZM220.917 99.6152C222.411 99.6152 223.396 100.617 223.396 102.111C223.396 102.366 223.378 102.656 223.343 102.92L223.123 104.159C222.815 105.891 221.84 106.849 220.398 106.849C218.896 106.849 217.911 105.847 217.911 104.326C217.911 104.054 217.938 103.772 217.99 103.43L218.201 102.226C218.491 100.591 219.502 99.6152 220.917 99.6152ZM231.314 103.711C231.745 101.294 233.204 99.8438 235.19 99.8438C235.823 99.8438 236.359 99.9492 236.737 100.169L237.019 98.5078C236.658 98.3232 236.175 98.2178 235.612 98.2178C233.89 98.2178 232.615 99.1494 231.991 100.898H231.798L232.22 98.4639H228.66L228.458 99.6592H230.567L229.311 106.805H227.386L227.175 108H233.512L233.723 106.805H230.761L231.314 103.711ZM242.819 98.3057C240.763 98.3057 239.26 99.6943 238.882 101.944L238.627 103.482C238.574 103.764 238.53 104.247 238.53 104.695C238.53 106.813 239.813 108.158 241.853 108.158C243.136 108.158 244.252 107.429 244.683 106.321H244.788L244.489 108H245.957L248.304 94.7197H246.81L245.808 100.38H245.729C245.5 99.123 244.252 98.3057 242.819 98.3057ZM243.013 99.6768C244.428 99.6768 245.465 100.731 245.465 102.182C245.465 102.322 245.447 102.489 245.412 102.744L245.157 104.159C244.867 105.768 243.786 106.743 242.266 106.743C240.912 106.743 240.06 105.829 240.06 104.388C240.06 104.08 240.086 103.72 240.121 103.518L240.341 102.243C240.648 100.564 241.562 99.6768 243.013 99.6768ZM257.655 105.539H256.179C255.968 106.321 254.992 106.884 253.867 106.884C252.294 106.884 251.345 105.838 251.503 104.247C251.503 104.212 251.556 103.685 251.573 103.623H258.086L258.191 102.858C258.2 102.779 258.279 102.164 258.279 102.059C258.508 99.8965 256.987 98.2881 254.711 98.2881C252.364 98.2881 250.703 99.6943 250.352 101.953L250.167 103.148C250.07 103.79 250.035 104.15 250.035 104.502C250.035 106.778 251.459 108.176 253.788 108.176C255.748 108.176 257.409 107.051 257.655 105.539ZM254.597 99.5713C256.091 99.5713 257.014 100.608 256.838 102.076C256.838 102.129 256.794 102.454 256.794 102.489H251.723C251.731 102.463 251.828 101.918 251.837 101.9C252.109 100.45 253.164 99.5713 254.597 99.5713ZM264.695 103.711C265.126 101.294 266.585 99.8438 268.571 99.8438C269.204 99.8438 269.74 99.9492 270.118 100.169L270.399 98.5078C270.039 98.3232 269.556 98.2178 268.993 98.2178C267.271 98.2178 265.996 99.1494 265.372 100.898H265.179L265.601 98.4639H262.041L261.839 99.6592H263.948L262.691 106.805H260.767L260.556 108H266.893L267.104 106.805H264.142L264.695 103.711Z" fill="#666666"/>
<rect x="129.5" y="120.5" width="213" height="136" fill="#C4D08C"/>
<path d="M201.028 131.317L198.796 144H200.352L201.16 139.447H203.7C206.847 139.447 208.736 137.663 208.736 134.745C208.736 132.653 207.286 131.317 205.019 131.317H201.028ZM202.355 132.697H204.737C206.284 132.697 207.189 133.497 207.189 134.868C207.189 136.872 205.915 138.067 203.788 138.067H201.397L202.355 132.697ZM213.157 144.158C214.414 144.158 215.486 143.569 215.961 142.629H216.049L215.812 144H217.235L218.202 138.498C218.36 137.654 218.387 137.417 218.387 137.013C218.387 135.404 217.068 134.341 215.082 134.341C213.14 134.341 211.593 135.396 211.294 136.916H212.788C213.034 136.151 213.913 135.633 214.941 135.633C216.128 135.633 216.893 136.257 216.893 137.232C216.893 137.426 216.875 137.575 216.822 137.865L216.734 138.349L214.361 138.366C211.725 138.393 210.266 139.5 210.283 141.478C210.301 143.068 211.47 144.158 213.157 144.158ZM213.676 142.849C212.542 142.849 211.821 142.233 211.83 141.267C211.839 140.159 212.744 139.526 214.353 139.518L216.541 139.509L216.33 140.634C216.102 141.908 214.968 142.849 213.676 142.849ZM225.629 134.306C223.572 134.306 222.069 135.694 221.691 137.944L221.437 139.482C221.384 139.764 221.34 140.247 221.34 140.695C221.34 142.813 222.623 144.158 224.662 144.158C225.945 144.158 227.062 143.429 227.492 142.321H227.598L227.299 144H228.767L231.113 130.72H229.619L228.617 136.38H228.538C228.31 135.123 227.062 134.306 225.629 134.306ZM225.822 135.677C227.237 135.677 228.274 136.731 228.274 138.182C228.274 138.322 228.257 138.489 228.222 138.744L227.967 140.159C227.677 141.768 226.596 142.743 225.075 142.743C223.722 142.743 222.869 141.829 222.869 140.388C222.869 140.08 222.896 139.72 222.931 139.518L223.15 138.243C223.458 136.564 224.372 135.677 225.822 135.677ZM236.756 134.306C234.699 134.306 233.196 135.694 232.818 137.944L232.563 139.482C232.511 139.764 232.467 140.247 232.467 140.695C232.467 142.813 233.75 144.158 235.789 144.158C237.072 144.158 238.188 143.429 238.619 142.321H238.725L238.426 144H239.894L242.24 130.72H240.746L239.744 136.38H239.665C239.437 135.123 238.188 134.306 236.756 134.306ZM236.949 135.677C238.364 135.677 239.401 136.731 239.401 138.182C239.401 138.322 239.384 138.489 239.349 138.744L239.094 140.159C238.804 141.768 237.723 142.743 236.202 142.743C234.849 142.743 233.996 141.829 233.996 140.388C233.996 140.08 234.022 139.72 234.058 139.518L234.277 138.243C234.585 136.564 235.499 135.677 236.949 135.677ZM249.597 132.126C250.3 132.126 250.836 131.599 250.836 130.896C250.836 130.201 250.3 129.674 249.597 129.674C248.894 129.674 248.357 130.201 248.357 130.896C248.357 131.599 248.894 132.126 249.597 132.126ZM251.293 144L251.504 142.761H248.34L249.816 134.464H245.097L244.895 135.703H248.129L246.872 142.761H243.603L243.392 144H251.293ZM254.352 144H255.846L256.839 138.366C257.138 136.714 258.271 135.659 259.678 135.659C260.926 135.659 261.708 136.459 261.708 137.672C261.708 137.927 261.673 138.278 261.611 138.647L260.662 144H262.156L263.097 138.63C263.202 137.979 263.237 137.646 263.237 137.32C263.237 135.51 262.051 134.288 260.231 134.288C258.869 134.288 257.771 134.982 257.278 136.099H257.182L257.463 134.464H256.03L254.352 144ZM268.845 147.577C271.323 147.577 272.817 146.329 273.239 143.938L274.9 134.464H273.406L273.072 136.389H272.967C272.686 135.062 271.604 134.306 270.014 134.306C267.992 134.306 266.48 135.738 266.085 138.032L265.9 139.104C265.839 139.456 265.786 140.019 265.786 140.405C265.786 142.471 267.184 143.965 269.1 143.965C270.409 143.965 271.525 143.279 271.956 142.233H272.062L271.78 143.833C271.473 145.494 270.541 146.329 268.968 146.329C267.658 146.329 266.674 145.67 266.656 144.791V144.677H265.18C265.18 144.686 265.18 144.791 265.18 144.835C265.18 146.426 266.718 147.577 268.845 147.577ZM270.233 135.668C271.666 135.668 272.659 136.688 272.659 138.146C272.659 138.349 272.633 138.639 272.58 138.938L272.387 140.062C272.114 141.574 271.016 142.603 269.68 142.603C268.221 142.603 267.307 141.645 267.307 140.098C267.307 139.878 267.351 139.43 267.403 139.122L267.553 138.287C267.852 136.67 268.88 135.668 270.233 135.668Z" fill="#666666"/>
<rect x="165.5" y="156.5" width="141" height="64" fill="#9ABFE2"/>
<path d="M207.928 190.493C207.937 190.458 207.937 190.414 207.937 190.37H206.372C206.372 190.379 206.372 190.388 206.363 190.414C206.056 191.917 204.975 192.778 203.437 192.778C201.635 192.778 200.571 191.653 200.571 189.72C200.571 189.245 200.615 188.744 200.686 188.375L201.072 186.169C201.503 183.831 202.751 182.548 204.562 182.548C206.188 182.548 207.233 183.515 207.233 185C207.233 185.176 207.225 185.299 207.207 185.501H208.736C208.771 185.264 208.789 185.044 208.789 184.851C208.789 182.609 207.102 181.054 204.649 181.054C201.863 181.054 200.044 182.899 199.464 186.283L199.112 188.296C199.042 188.683 198.989 189.236 198.989 189.702C198.989 192.523 200.633 194.272 203.287 194.272C205.766 194.272 207.69 192.726 207.928 190.493ZM214.212 194.167C216.506 194.167 218.053 192.831 218.475 190.467L218.712 189.14C218.773 188.744 218.8 188.384 218.8 188.12C218.8 185.835 217.271 184.297 214.88 184.297C212.709 184.297 211.101 185.712 210.705 187.988L210.477 189.307C210.415 189.667 210.389 190.036 210.389 190.396C210.389 192.629 211.918 194.167 214.212 194.167ZM214.854 185.615C216.348 185.615 217.332 186.617 217.332 188.111C217.332 188.366 217.314 188.656 217.279 188.92L217.06 190.159C216.752 191.891 215.776 192.849 214.335 192.849C212.832 192.849 211.848 191.847 211.848 190.326C211.848 190.054 211.874 189.772 211.927 189.43L212.138 188.226C212.428 186.591 213.438 185.615 214.854 185.615ZM220.971 194H222.465L223.458 188.366C223.757 186.714 224.891 185.659 226.297 185.659C227.545 185.659 228.327 186.459 228.327 187.672C228.327 187.927 228.292 188.278 228.23 188.647L227.281 194H228.775L229.716 188.63C229.821 187.979 229.856 187.646 229.856 187.32C229.856 185.51 228.67 184.288 226.851 184.288C225.488 184.288 224.39 184.982 223.897 186.099H223.801L224.082 184.464H222.649L220.971 194ZM236.501 181.906L236.053 184.49H233.504L233.293 185.765H235.833L234.866 191.003C234.813 191.293 234.787 191.557 234.787 191.768C234.787 193.253 235.815 194.044 237.723 194.044C238.197 194.044 239.472 194 239.7 193.956L239.911 192.69C239.674 192.717 238.733 192.743 238.145 192.743C236.896 192.743 236.316 192.321 236.316 191.442C236.316 191.311 236.325 191.17 236.36 190.994L237.327 185.765H241.177L241.396 184.49H237.529L237.978 181.906H236.501ZM251.592 191.539H250.115C249.904 192.321 248.929 192.884 247.804 192.884C246.23 192.884 245.281 191.838 245.439 190.247C245.439 190.212 245.492 189.685 245.51 189.623H252.022L252.128 188.858C252.137 188.779 252.216 188.164 252.216 188.059C252.444 185.896 250.924 184.288 248.647 184.288C246.301 184.288 244.64 185.694 244.288 187.953L244.104 189.148C244.007 189.79 243.972 190.15 243.972 190.502C243.972 192.778 245.396 194.176 247.725 194.176C249.685 194.176 251.346 193.051 251.592 191.539ZM248.533 185.571C250.027 185.571 250.95 186.608 250.774 188.076C250.774 188.129 250.73 188.454 250.73 188.489H245.659C245.668 188.463 245.765 187.918 245.773 187.9C246.046 186.45 247.101 185.571 248.533 185.571ZM254.352 194H255.846L256.839 188.366C257.138 186.714 258.271 185.659 259.678 185.659C260.926 185.659 261.708 186.459 261.708 187.672C261.708 187.927 261.673 188.278 261.611 188.647L260.662 194H262.156L263.097 188.63C263.202 187.979 263.237 187.646 263.237 187.32C263.237 185.51 262.051 184.288 260.231 184.288C258.869 184.288 257.771 184.982 257.278 186.099H257.182L257.463 184.464H256.03L254.352 194ZM269.882 181.906L269.434 184.49H266.885L266.674 185.765H269.214L268.247 191.003C268.194 191.293 268.168 191.557 268.168 191.768C268.168 193.253 269.196 194.044 271.104 194.044C271.578 194.044 272.853 194 273.081 193.956L273.292 192.69C273.055 192.717 272.114 192.743 271.525 192.743C270.277 192.743 269.697 192.321 269.697 191.442C269.697 191.311 269.706 191.17 269.741 190.994L270.708 185.765H274.558L274.777 184.49H270.91L271.358 181.906H269.882Z" fill="#666666"/>
<rect x="165.5" y="156.5" width="141" height="64" stroke="#666666"/>
<rect x="129.5" y="120.5" width="213" height="136" stroke="#666666" stroke-dasharray="2 2"/>
<rect x="93.5" y="84.5" width="285" height="208" stroke="#666666"/>
<rect x="57.5" y="48.5" width="357" height="280" stroke="#666666" stroke-dasharray="2 2"/>
<path d="M430.312 192L431.208 186.946H433.467C433.669 186.946 433.959 186.938 434.108 186.929L435.69 192H437.343L435.638 186.709C437.255 186.305 438.354 185.109 438.617 183.466C438.661 183.176 438.679 182.895 438.679 182.631C438.688 180.574 437.316 179.317 435.146 179.317H431.015L428.782 192H430.312ZM432.315 180.697H434.812C436.253 180.697 437.07 181.453 437.062 182.701C437.062 182.912 437.035 183.149 437.009 183.299C436.771 184.731 435.638 185.637 433.818 185.637H431.437L432.315 180.697ZM446.343 180.126C447.046 180.126 447.582 179.599 447.582 178.896C447.582 178.201 447.046 177.674 446.343 177.674C445.64 177.674 445.104 178.201 445.104 178.896C445.104 179.599 445.64 180.126 446.343 180.126ZM448.039 192L448.25 190.761H445.086L446.562 182.464H441.843L441.641 183.703H444.875L443.618 190.761H440.349L440.138 192H448.039ZM454.464 195.577C456.942 195.577 458.437 194.329 458.858 191.938L460.52 182.464H459.025L458.691 184.389H458.586C458.305 183.062 457.224 182.306 455.633 182.306C453.611 182.306 452.1 183.738 451.704 186.032L451.52 187.104C451.458 187.456 451.405 188.019 451.405 188.405C451.405 190.471 452.803 191.965 454.719 191.965C456.028 191.965 457.145 191.279 457.575 190.233H457.681L457.399 191.833C457.092 193.494 456.16 194.329 454.587 194.329C453.277 194.329 452.293 193.67 452.275 192.791V192.677H450.799C450.799 192.686 450.799 192.791 450.799 192.835C450.799 194.426 452.337 195.577 454.464 195.577ZM455.853 183.668C457.285 183.668 458.278 184.688 458.278 186.146C458.278 186.349 458.252 186.639 458.199 186.938L458.006 188.062C457.733 189.574 456.635 190.603 455.299 190.603C453.84 190.603 452.926 189.645 452.926 188.098C452.926 187.878 452.97 187.43 453.022 187.122L453.172 186.287C453.471 184.67 454.499 183.668 455.853 183.668ZM462.216 192H463.71L464.703 186.366C465.002 184.714 466.136 183.668 467.551 183.668C468.79 183.668 469.599 184.477 469.599 185.681C469.599 185.936 469.555 186.287 469.493 186.647L468.544 192H470.038L470.979 186.621C471.084 185.988 471.128 185.628 471.128 185.32C471.128 183.501 469.906 182.297 468.104 182.297C466.76 182.297 465.652 182.982 465.143 184.099H465.046L465.995 178.72H464.562L462.216 192ZM477.755 179.906L477.307 182.49H474.758L474.547 183.765H477.087L476.12 189.003C476.067 189.293 476.041 189.557 476.041 189.768C476.041 191.253 477.069 192.044 478.977 192.044C479.451 192.044 480.726 192 480.954 191.956L481.165 190.69C480.928 190.717 479.987 190.743 479.398 190.743C478.15 190.743 477.57 190.321 477.57 189.442C477.57 189.311 477.579 189.17 477.614 188.994L478.581 183.765H482.431L482.65 182.49H478.783L479.231 179.906H477.755Z" fill="#666666"/>
<path d="M225.646 36L227.65 24.7412H231.474L231.711 23.3174H222.5L222.271 24.7412H226.104L224.1 36H225.646ZM236.466 36.167C238.76 36.167 240.307 34.8311 240.729 32.4668L240.966 31.1396C241.027 30.7441 241.054 30.3838 241.054 30.1201C241.054 27.835 239.524 26.2969 237.134 26.2969C234.963 26.2969 233.354 27.7119 232.959 29.9883L232.73 31.3066C232.669 31.667 232.643 32.0361 232.643 32.3965C232.643 34.6289 234.172 36.167 236.466 36.167ZM237.107 27.6152C238.602 27.6152 239.586 28.6172 239.586 30.1113C239.586 30.3662 239.568 30.6562 239.533 30.9199L239.313 32.1592C239.006 33.8906 238.03 34.8486 236.589 34.8486C235.086 34.8486 234.102 33.8467 234.102 32.3262C234.102 32.0537 234.128 31.7725 234.181 31.4297L234.392 30.2256C234.682 28.5908 235.692 27.6152 237.107 27.6152ZM248.05 36.1582C250.089 36.1582 251.565 34.7959 251.97 32.5107L252.242 30.9814C252.304 30.6211 252.348 30.1289 252.348 29.7686C252.348 27.6064 251.029 26.3057 249.017 26.3057C247.751 26.3057 246.617 27.0176 246.187 28.1426H246.081L246.38 26.4639H244.912L242.671 39.2168H244.165L245.07 34.084H245.141C245.36 35.2881 246.547 36.1582 248.05 36.1582ZM247.856 34.7607C246.415 34.7607 245.431 33.7412 245.431 32.3262C245.431 32.0537 245.439 31.8604 245.466 31.6934L245.721 30.2783C246.011 28.6436 247.109 27.6943 248.612 27.6943C249.975 27.6943 250.818 28.6172 250.818 30.0498C250.818 30.3223 250.783 30.6914 250.748 30.9199L250.528 32.1943C250.229 33.8818 249.298 34.7607 247.856 34.7607Z" fill="#666666"/>
<path d="M203.771 352H208.324C211.216 352 213.044 350.559 213.062 348.282C213.07 346.806 212.191 345.707 210.794 345.443L210.812 345.347C212.323 345.039 213.396 343.747 213.413 342.209C213.422 340.407 212.13 339.317 209.968 339.317H206.004L203.771 352ZM207.322 340.653H209.555C211.022 340.653 211.796 341.286 211.787 342.473C211.778 343.853 210.645 344.793 208.966 344.793H206.575L207.322 340.653ZM205.529 350.655L206.355 346.085H208.799C210.521 346.085 211.471 346.823 211.471 348.168C211.471 349.68 210.205 350.655 208.254 350.655H205.529ZM219.275 352.167C221.569 352.167 223.116 350.831 223.538 348.467L223.775 347.14C223.837 346.744 223.863 346.384 223.863 346.12C223.863 343.835 222.334 342.297 219.943 342.297C217.772 342.297 216.164 343.712 215.769 345.988L215.54 347.307C215.479 347.667 215.452 348.036 215.452 348.396C215.452 350.629 216.981 352.167 219.275 352.167ZM219.917 343.615C221.411 343.615 222.396 344.617 222.396 346.111C222.396 346.366 222.378 346.656 222.343 346.92L222.123 348.159C221.815 349.891 220.84 350.849 219.398 350.849C217.896 350.849 216.911 349.847 216.911 348.326C216.911 348.054 216.938 347.772 216.99 347.43L217.201 346.226C217.491 344.591 218.502 343.615 219.917 343.615ZM230.438 339.906L229.989 342.49H227.44L227.229 343.765H229.77L228.803 349.003C228.75 349.293 228.724 349.557 228.724 349.768C228.724 351.253 229.752 352.044 231.659 352.044C232.134 352.044 233.408 352 233.637 351.956L233.848 350.69C233.61 350.717 232.67 350.743 232.081 350.743C230.833 350.743 230.253 350.321 230.253 349.442C230.253 349.311 230.262 349.17 230.297 348.994L231.264 343.765H235.113L235.333 342.49H231.466L231.914 339.906H230.438ZM241.564 339.906L241.116 342.49H238.567L238.356 343.765H240.896L239.93 349.003C239.877 349.293 239.851 349.557 239.851 349.768C239.851 351.253 240.879 352.044 242.786 352.044C243.261 352.044 244.535 352 244.764 351.956L244.975 350.69C244.737 350.717 243.797 350.743 243.208 350.743C241.96 350.743 241.38 350.321 241.38 349.442C241.38 349.311 241.389 349.17 241.424 348.994L242.391 343.765H246.24L246.46 342.49H242.593L243.041 339.906H241.564ZM252.656 352.167C254.95 352.167 256.497 350.831 256.919 348.467L257.156 347.14C257.218 346.744 257.244 346.384 257.244 346.12C257.244 343.835 255.715 342.297 253.324 342.297C251.153 342.297 249.545 343.712 249.149 345.988L248.921 347.307C248.859 347.667 248.833 348.036 248.833 348.396C248.833 350.629 250.362 352.167 252.656 352.167ZM253.298 343.615C254.792 343.615 255.776 344.617 255.776 346.111C255.776 346.366 255.759 346.656 255.724 346.92L255.504 348.159C255.196 349.891 254.221 350.849 252.779 350.849C251.276 350.849 250.292 349.847 250.292 348.326C250.292 348.054 250.318 347.772 250.371 347.43L250.582 346.226C250.872 344.591 251.883 343.615 253.298 343.615ZM261.199 345.558C261.419 344.362 262.069 343.65 262.913 343.65C263.555 343.65 263.889 344.037 263.889 344.775C263.889 344.986 263.871 345.197 263.827 345.426L262.667 352H264.003L265.137 345.549C265.356 344.354 265.998 343.65 266.824 343.65C267.457 343.65 267.791 344.037 267.791 344.775C267.791 344.986 267.765 345.197 267.729 345.435L266.569 352H267.914L269.118 345.136C269.171 344.819 269.206 344.512 269.206 344.248C269.206 343.018 268.529 342.288 267.36 342.288C266.473 342.288 265.778 342.815 265.356 343.809H265.198C265.137 342.877 264.53 342.288 263.607 342.288C262.755 342.288 262.043 342.842 261.647 343.809H261.489L261.718 342.464H260.399L258.721 352H260.065L261.199 345.558Z" fill="#666666"/>
<path d="M10.3535 190.559H4.3418L6.32812 179.317H4.79004L2.55762 192H10.1074L10.3535 190.559ZM21.4014 189.539H19.9248C19.7139 190.321 18.7383 190.884 17.6133 190.884C16.04 190.884 15.0908 189.838 15.249 188.247C15.249 188.212 15.3018 187.685 15.3193 187.623H21.832L21.9375 186.858C21.9463 186.779 22.0254 186.164 22.0254 186.059C22.2539 183.896 20.7334 182.288 18.457 182.288C16.1104 182.288 14.4492 183.694 14.0977 185.953L13.9131 187.148C13.8164 187.79 13.7812 188.15 13.7812 188.502C13.7812 190.778 15.2051 192.176 17.5342 192.176C19.4941 192.176 21.1553 191.051 21.4014 189.539ZM18.3428 183.571C19.8369 183.571 20.7598 184.608 20.584 186.076C20.584 186.129 20.54 186.454 20.54 186.489H15.4688C15.4775 186.463 15.5742 185.918 15.583 185.9C15.8555 184.45 16.9102 183.571 18.3428 183.571ZM26.6572 192H28.1514L29.6104 183.765H33.8027L34.0137 182.49H29.8125L29.9883 181.506C30.1641 180.504 30.9375 179.994 32.2822 179.994C32.7832 179.994 34.0312 180.091 34.4531 180.196L34.6641 178.948C34.1982 178.825 32.9941 178.746 32.4668 178.746C30.1201 178.746 28.8281 179.634 28.5117 181.532L28.3359 182.49H25.7783L25.5586 183.765H28.1162L26.6572 192ZM39.6914 179.906L39.2432 182.49H36.6943L36.4834 183.765H39.0234L38.0566 189.003C38.0039 189.293 37.9775 189.557 37.9775 189.768C37.9775 191.253 39.0059 192.044 40.9131 192.044C41.3877 192.044 42.6621 192 42.8906 191.956L43.1016 190.69C42.8643 190.717 41.9238 190.743 41.335 190.743C40.0869 190.743 39.5068 190.321 39.5068 189.442C39.5068 189.311 39.5156 189.17 39.5508 188.994L40.5176 183.765H44.3672L44.5869 182.49H40.7197L41.168 179.906H39.6914Z" fill="#666666"/>
</svg>
