<svg width="579" height="295" viewBox="0 0 579 295" fill="none" xmlns="http://www.w3.org/2000/svg">
<path d="M287.465 238.317L285.232 251H286.788L287.597 246.447H290.137C291.186 246.447 292.085 246.26 292.835 245.885C293.591 245.504 294.168 244.962 294.566 244.259C294.971 243.556 295.173 242.718 295.173 241.745C295.173 240.696 294.836 239.864 294.162 239.249C293.494 238.628 292.592 238.317 291.455 238.317H287.465ZM288.792 239.697H291.174C291.947 239.697 292.548 239.888 292.976 240.269C293.409 240.649 293.626 241.183 293.626 241.868C293.626 242.87 293.324 243.655 292.721 244.224C292.123 244.786 291.291 245.067 290.225 245.067H287.834L288.792 239.697ZM300.561 246.711C300.777 245.504 301.229 244.558 301.914 243.872C302.6 243.187 303.44 242.844 304.437 242.844C305.093 242.844 305.608 242.952 305.983 243.169L306.265 241.508C305.896 241.314 305.427 241.218 304.858 241.218C303.997 241.218 303.256 241.446 302.635 241.903C302.02 242.36 301.554 243.025 301.237 243.898H301.044L301.466 241.464H297.906L297.704 242.659H299.813L298.346 251H299.796L300.561 246.711ZM302.758 251L302.969 249.805H296.632L296.421 251H302.758ZM311.775 251.167C312.924 251.167 313.867 250.845 314.605 250.2C315.35 249.556 315.827 248.645 316.038 247.467L316.275 246.14C316.305 245.94 316.325 245.753 316.337 245.577C316.354 245.401 316.363 245.249 316.363 245.12C316.363 244.358 316.202 243.69 315.88 243.116C315.558 242.542 315.104 242.097 314.518 241.78C313.932 241.458 313.24 241.297 312.443 241.297C311.359 241.297 310.442 241.628 309.692 242.29C308.942 242.946 308.468 243.846 308.269 244.988L308.04 246.307C308.011 246.488 307.987 246.67 307.97 246.852C307.958 247.033 307.952 247.215 307.952 247.396C307.952 248.141 308.11 248.797 308.427 249.365C308.749 249.928 309.197 250.37 309.771 250.692C310.346 251.009 311.014 251.167 311.775 251.167ZM312.417 242.615C313.161 242.615 313.759 242.844 314.21 243.301C314.667 243.758 314.896 244.361 314.896 245.111C314.896 245.24 314.89 245.375 314.878 245.516C314.872 245.656 314.86 245.791 314.843 245.92L314.623 247.159C314.465 248.021 314.151 248.686 313.683 249.154C313.214 249.617 312.619 249.849 311.898 249.849C311.148 249.849 310.545 249.62 310.088 249.163C309.637 248.7 309.411 248.088 309.411 247.326C309.411 247.191 309.417 247.054 309.429 246.913C309.44 246.767 309.461 246.605 309.49 246.43L309.701 245.226C309.848 244.411 310.161 243.772 310.642 243.31C311.122 242.847 311.714 242.615 312.417 242.615ZM323.359 251.158C324.379 251.158 325.237 250.836 325.935 250.191C326.632 249.547 327.08 248.653 327.279 247.511L327.552 245.981C327.587 245.8 327.613 245.598 327.631 245.375C327.648 245.146 327.657 244.944 327.657 244.769C327.657 244.048 327.52 243.43 327.244 242.914C326.969 242.398 326.579 242.003 326.075 241.728C325.577 241.446 324.994 241.306 324.326 241.306C323.699 241.306 323.125 241.473 322.604 241.807C322.082 242.135 321.713 242.58 321.496 243.143H321.391L321.689 241.464H320.222L317.98 254.217H319.475L320.38 249.084H320.45C320.556 249.688 320.878 250.186 321.417 250.578C321.962 250.965 322.609 251.158 323.359 251.158ZM323.166 249.761C322.451 249.761 321.868 249.532 321.417 249.075C320.966 248.618 320.74 248.035 320.74 247.326C320.74 247.191 320.743 247.074 320.749 246.975C320.755 246.875 320.764 246.781 320.775 246.693L321.03 245.278C321.177 244.464 321.508 243.831 322.023 243.38C322.539 242.923 323.172 242.694 323.922 242.694C324.602 242.694 325.138 242.908 325.53 243.336C325.929 243.764 326.128 244.335 326.128 245.05C326.128 245.185 326.119 245.334 326.102 245.498C326.09 245.662 326.075 245.803 326.058 245.92L325.838 247.194C325.686 248.038 325.381 248.677 324.924 249.11C324.473 249.544 323.887 249.761 323.166 249.761ZM334.97 242.571C335.72 242.571 336.303 242.806 336.719 243.274C337.135 243.743 337.299 244.344 337.211 245.076C337.205 245.146 337.196 245.217 337.185 245.287C337.179 245.357 337.173 245.425 337.167 245.489H332.096C332.113 245.39 332.131 245.29 332.148 245.19C332.172 245.091 332.192 244.994 332.21 244.9C332.345 244.174 332.658 243.605 333.15 243.195C333.643 242.779 334.249 242.571 334.97 242.571ZM338.028 248.539H336.552C336.446 248.926 336.174 249.248 335.734 249.506C335.301 249.758 334.803 249.884 334.24 249.884C333.455 249.884 332.843 249.644 332.403 249.163C331.97 248.683 331.794 248.044 331.876 247.247C331.882 247.153 331.891 247.054 331.902 246.948C331.914 246.837 331.929 246.729 331.946 246.623H338.459L338.564 245.858C338.582 245.729 338.597 245.601 338.608 245.472C338.626 245.337 338.641 245.199 338.652 245.059C338.729 244.338 338.623 243.693 338.336 243.125C338.055 242.557 337.633 242.108 337.07 241.78C336.508 241.452 335.846 241.288 335.084 241.288C334.305 241.288 333.607 241.438 332.992 241.736C332.377 242.029 331.876 242.451 331.489 243.002C331.103 243.547 330.848 244.197 330.725 244.953L330.54 246.148C330.493 246.471 330.458 246.734 330.435 246.939C330.417 247.139 330.408 247.326 330.408 247.502C330.408 248.639 330.742 249.535 331.41 250.191C332.078 250.848 332.995 251.176 334.161 251.176C334.817 251.176 335.424 251.062 335.98 250.833C336.537 250.604 336.997 250.291 337.36 249.893C337.729 249.494 337.952 249.043 338.028 248.539ZM345.068 246.711C345.285 245.504 345.736 244.558 346.422 243.872C347.107 243.187 347.948 242.844 348.944 242.844C349.601 242.844 350.116 242.952 350.491 243.169L350.772 241.508C350.403 241.314 349.935 241.218 349.366 241.218C348.505 241.218 347.764 241.446 347.143 241.903C346.527 242.36 346.062 243.025 345.745 243.898H345.552L345.974 241.464H342.414L342.212 242.659H344.321L342.854 251H344.304L345.068 246.711ZM347.266 251L347.477 249.805H341.14L340.929 251H347.266ZM356.318 238.906L355.87 241.49H353.321L353.11 242.765H355.65L354.684 248.003C354.654 248.149 354.634 248.287 354.622 248.416C354.61 248.539 354.604 248.656 354.604 248.768C354.604 249.506 354.854 250.071 355.352 250.464C355.855 250.851 356.585 251.044 357.54 251.044C357.868 251.044 358.229 251.032 358.621 251.009C359.014 250.991 359.312 250.974 359.518 250.956L359.729 249.69C359.541 249.708 359.289 249.723 358.973 249.734C358.656 249.74 358.319 249.743 357.962 249.743C356.743 249.743 356.134 249.31 356.134 248.442C356.134 248.372 356.137 248.302 356.143 248.231C356.148 248.155 356.16 248.076 356.178 247.994L357.145 242.765H360.994L361.214 241.49H357.347L357.795 238.906H356.318ZM363.815 254.393C364.396 254.393 364.885 254.308 365.283 254.138C365.688 253.968 366.068 253.663 366.426 253.224C366.783 252.784 367.179 252.16 367.612 251.352L372.947 241.464H371.277L367.226 249.444H367.111L365.828 241.464H364.281L366.109 251.062L365.846 251.58C365.629 251.973 365.427 252.277 365.239 252.494C365.058 252.717 364.861 252.872 364.65 252.96C364.445 253.048 364.202 253.092 363.921 253.092C363.804 253.092 363.687 253.086 363.569 253.074C363.452 253.068 363.373 253.062 363.332 253.057L363.112 254.366C363.171 254.372 363.273 254.378 363.42 254.384C363.572 254.39 363.704 254.393 363.815 254.393Z" fill="#AAAAAA"/>
<path d="M359.245 94.3174H355.94L353.708 107H357.312C359.093 107 360.502 106.555 361.539 105.664C362.576 104.773 363.25 103.438 363.561 101.656C363.596 101.439 363.634 101.226 363.675 101.015C363.716 100.804 363.751 100.59 363.78 100.373C363.81 100.191 363.83 99.9863 363.842 99.7578C363.854 99.5293 363.859 99.2979 363.859 99.0635C363.859 97.5342 363.461 96.3623 362.664 95.5479C361.873 94.7275 360.733 94.3174 359.245 94.3174ZM358.955 95.7324C360.062 95.7324 360.892 96.0225 361.442 96.6025C361.999 97.1826 362.277 98.0498 362.277 99.2041C362.277 99.4092 362.269 99.6172 362.251 99.8281C362.239 100.033 362.222 100.221 362.198 100.391C362.169 100.584 362.137 100.774 362.102 100.962C362.066 101.149 362.034 101.334 362.005 101.516C361.771 102.863 361.255 103.877 360.458 104.557C359.661 105.236 358.589 105.576 357.241 105.576H355.501L357.259 95.7324H358.955ZM370.398 98.5713C371.148 98.5713 371.731 98.8057 372.147 99.2744C372.563 99.7432 372.728 100.344 372.64 101.076C372.634 101.146 372.625 101.217 372.613 101.287C372.607 101.357 372.602 101.425 372.596 101.489H367.524C367.542 101.39 367.56 101.29 367.577 101.19C367.601 101.091 367.621 100.994 367.639 100.9C367.773 100.174 368.087 99.6055 368.579 99.1953C369.071 98.7793 369.678 98.5713 370.398 98.5713ZM373.457 104.539H371.98C371.875 104.926 371.603 105.248 371.163 105.506C370.729 105.758 370.231 105.884 369.669 105.884C368.884 105.884 368.271 105.644 367.832 105.163C367.398 104.683 367.223 104.044 367.305 103.247C367.311 103.153 367.319 103.054 367.331 102.948C367.343 102.837 367.357 102.729 367.375 102.623H373.888L373.993 101.858C374.011 101.729 374.025 101.601 374.037 101.472C374.055 101.337 374.069 101.199 374.081 101.059C374.157 100.338 374.052 99.6934 373.765 99.125C373.483 98.5566 373.062 98.1084 372.499 97.7803C371.937 97.4521 371.274 97.2881 370.513 97.2881C369.733 97.2881 369.036 97.4375 368.421 97.7363C367.806 98.0293 367.305 98.4512 366.918 99.002C366.531 99.5469 366.276 100.197 366.153 100.953L365.969 102.148C365.922 102.471 365.887 102.734 365.863 102.939C365.846 103.139 365.837 103.326 365.837 103.502C365.837 104.639 366.171 105.535 366.839 106.191C367.507 106.848 368.424 107.176 369.59 107.176C370.246 107.176 370.853 107.062 371.409 106.833C371.966 106.604 372.426 106.291 372.789 105.893C373.158 105.494 373.381 105.043 373.457 104.539ZM385.287 100.628C385.287 100.599 385.287 100.572 385.287 100.549C385.287 100.525 385.287 100.502 385.287 100.479C385.287 99.834 385.132 99.2744 384.821 98.7998C384.517 98.3193 384.086 97.9473 383.529 97.6836C382.979 97.4141 382.331 97.2793 381.587 97.2793C380.813 97.2793 380.122 97.4316 379.513 97.7363C378.909 98.0352 378.411 98.4688 378.019 99.0371C377.626 99.5996 377.359 100.279 377.219 101.076C377.189 101.223 377.163 101.363 377.14 101.498C377.122 101.627 377.102 101.753 377.078 101.876C377.061 101.993 377.043 102.104 377.025 102.21C377.008 102.315 376.993 102.412 376.981 102.5C376.958 102.705 376.938 102.893 376.92 103.062C376.908 103.232 376.902 103.391 376.902 103.537C376.902 104.287 377.055 104.935 377.359 105.479C377.67 106.024 378.112 106.446 378.687 106.745C379.267 107.038 379.952 107.185 380.743 107.185C381.417 107.185 382.026 107.064 382.571 106.824C383.116 106.578 383.573 106.235 383.942 105.796C384.312 105.351 384.563 104.829 384.698 104.231H383.213C383.049 104.735 382.75 105.131 382.316 105.418C381.889 105.699 381.385 105.84 380.805 105.84C380.037 105.84 379.442 105.623 379.021 105.189C378.604 104.756 378.396 104.135 378.396 103.326C378.396 103.162 378.408 102.975 378.432 102.764C378.455 102.553 378.481 102.359 378.511 102.184L378.616 101.604C378.979 99.6113 379.952 98.6152 381.534 98.6152C382.202 98.6152 382.747 98.7998 383.169 99.1689C383.591 99.5381 383.802 100.01 383.802 100.584C383.802 100.596 383.802 100.604 383.802 100.61C383.802 100.616 383.802 100.622 383.802 100.628H385.287ZM395.412 107L395.623 105.761H392.477L394.604 93.7197H389.884L389.673 94.959H392.907L390.982 105.761H387.722L387.511 107H395.412ZM401.784 107.158C402.411 107.158 402.977 107.023 403.48 106.754C403.984 106.479 404.354 106.104 404.588 105.629H404.676L404.438 107H405.862L406.829 101.498C406.888 101.217 406.929 100.994 406.952 100.83C406.976 100.66 406.99 100.517 406.996 100.399C407.008 100.276 407.014 100.147 407.014 100.013C407.014 99.21 406.712 98.5654 406.108 98.0791C405.505 97.5869 404.705 97.3408 403.709 97.3408C403.064 97.3408 402.473 97.4521 401.934 97.6748C401.395 97.8916 400.949 98.1934 400.598 98.5801C400.246 98.9668 400.021 99.4121 399.921 99.916H401.415C401.538 99.5352 401.799 99.2275 402.197 98.9932C402.596 98.7529 403.053 98.6328 403.568 98.6328C404.166 98.6328 404.641 98.7793 404.992 99.0723C405.344 99.3594 405.52 99.7461 405.52 100.232C405.52 100.326 405.514 100.42 405.502 100.514C405.49 100.602 405.473 100.719 405.449 100.865L405.361 101.349L402.988 101.366C401.67 101.378 400.659 101.65 399.956 102.184C399.253 102.717 398.904 103.481 398.91 104.478C398.916 105.005 399.039 105.471 399.279 105.875C399.525 106.279 399.862 106.596 400.29 106.824C400.724 107.047 401.222 107.158 401.784 107.158ZM402.303 105.849C401.734 105.849 401.283 105.705 400.949 105.418C400.615 105.131 400.451 104.747 400.457 104.267C400.463 103.716 400.683 103.288 401.116 102.983C401.556 102.679 402.177 102.523 402.979 102.518L405.168 102.509L404.957 103.634C404.881 104.062 404.714 104.442 404.456 104.776C404.198 105.104 403.882 105.365 403.507 105.559C403.138 105.752 402.736 105.849 402.303 105.849ZM413.878 102.711C414.095 101.504 414.546 100.558 415.231 99.8721C415.917 99.1865 416.758 98.8438 417.754 98.8438C418.41 98.8438 418.926 98.9521 419.301 99.1689L419.582 97.5078C419.213 97.3145 418.744 97.2178 418.176 97.2178C417.314 97.2178 416.573 97.4463 415.952 97.9033C415.337 98.3604 414.871 99.0254 414.555 99.8984H414.361L414.783 97.4639H411.224L411.021 98.6592H413.131L411.663 107H413.113L413.878 102.711ZM416.075 107L416.286 105.805H409.949L409.738 107H416.075ZM424.038 107.158C424.665 107.158 425.23 107.023 425.734 106.754C426.238 106.479 426.607 106.104 426.842 105.629H426.93L426.692 107H428.116L429.083 101.498C429.142 101.217 429.183 100.994 429.206 100.83C429.229 100.66 429.244 100.517 429.25 100.399C429.262 100.276 429.268 100.147 429.268 100.013C429.268 99.21 428.966 98.5654 428.362 98.0791C427.759 97.5869 426.959 97.3408 425.963 97.3408C425.318 97.3408 424.727 97.4521 424.188 97.6748C423.648 97.8916 423.203 98.1934 422.852 98.5801C422.5 98.9668 422.274 99.4121 422.175 99.916H423.669C423.792 99.5352 424.053 99.2275 424.451 98.9932C424.85 98.7529 425.307 98.6328 425.822 98.6328C426.42 98.6328 426.895 98.7793 427.246 99.0723C427.598 99.3594 427.773 99.7461 427.773 100.232C427.773 100.326 427.768 100.42 427.756 100.514C427.744 100.602 427.727 100.719 427.703 100.865L427.615 101.349L425.242 101.366C423.924 101.378 422.913 101.65 422.21 102.184C421.507 102.717 421.158 103.481 421.164 104.478C421.17 105.005 421.293 105.471 421.533 105.875C421.779 106.279 422.116 106.596 422.544 106.824C422.978 107.047 423.476 107.158 424.038 107.158ZM424.557 105.849C423.988 105.849 423.537 105.705 423.203 105.418C422.869 105.131 422.705 104.747 422.711 104.267C422.717 103.716 422.937 103.288 423.37 102.983C423.81 102.679 424.431 102.523 425.233 102.518L427.422 102.509L427.211 103.634C427.135 104.062 426.968 104.442 426.71 104.776C426.452 105.104 426.136 105.365 425.761 105.559C425.392 105.752 424.99 105.849 424.557 105.849ZM436.255 94.9062L435.807 97.4902H433.258L433.047 98.7646H435.587L434.62 104.003C434.591 104.149 434.57 104.287 434.559 104.416C434.547 104.539 434.541 104.656 434.541 104.768C434.541 105.506 434.79 106.071 435.288 106.464C435.792 106.851 436.521 107.044 437.477 107.044C437.805 107.044 438.165 107.032 438.558 107.009C438.95 106.991 439.249 106.974 439.454 106.956L439.665 105.69C439.478 105.708 439.226 105.723 438.909 105.734C438.593 105.74 438.256 105.743 437.898 105.743C436.68 105.743 436.07 105.31 436.07 104.442C436.07 104.372 436.073 104.302 436.079 104.231C436.085 104.155 436.097 104.076 436.114 103.994L437.081 98.7646H440.931L441.15 97.4902H437.283L437.731 94.9062H436.255ZM449.351 95.126C449.702 95.126 449.995 95.0088 450.229 94.7744C450.47 94.54 450.59 94.2471 450.59 93.8955C450.59 93.5498 450.47 93.2598 450.229 93.0254C449.995 92.791 449.702 92.6738 449.351 92.6738C448.999 92.6738 448.703 92.791 448.463 93.0254C448.229 93.2598 448.111 93.5498 448.111 93.8955C448.111 94.2471 448.229 94.54 448.463 94.7744C448.703 95.0088 448.999 95.126 449.351 95.126ZM451.047 107L451.258 105.761H448.094L449.57 97.4639H444.851L444.648 98.7031H447.883L446.626 105.761H443.356L443.146 107H451.047ZM458.474 107.167C459.622 107.167 460.565 106.845 461.304 106.2C462.048 105.556 462.525 104.645 462.736 103.467L462.974 102.14C463.003 101.94 463.023 101.753 463.035 101.577C463.053 101.401 463.062 101.249 463.062 101.12C463.062 100.358 462.9 99.6904 462.578 99.1162C462.256 98.542 461.802 98.0967 461.216 97.7803C460.63 97.458 459.938 97.2969 459.142 97.2969C458.058 97.2969 457.141 97.6279 456.391 98.29C455.641 98.9463 455.166 99.8457 454.967 100.988L454.738 102.307C454.709 102.488 454.686 102.67 454.668 102.852C454.656 103.033 454.65 103.215 454.65 103.396C454.65 104.141 454.809 104.797 455.125 105.365C455.447 105.928 455.896 106.37 456.47 106.692C457.044 107.009 457.712 107.167 458.474 107.167ZM459.115 98.6152C459.859 98.6152 460.457 98.8438 460.908 99.3008C461.365 99.7578 461.594 100.361 461.594 101.111C461.594 101.24 461.588 101.375 461.576 101.516C461.57 101.656 461.559 101.791 461.541 101.92L461.321 103.159C461.163 104.021 460.85 104.686 460.381 105.154C459.912 105.617 459.317 105.849 458.597 105.849C457.847 105.849 457.243 105.62 456.786 105.163C456.335 104.7 456.109 104.088 456.109 103.326C456.109 103.191 456.115 103.054 456.127 102.913C456.139 102.767 456.159 102.605 456.188 102.43L456.399 101.226C456.546 100.411 456.859 99.7725 457.34 99.3096C457.82 98.8467 458.412 98.6152 459.115 98.6152ZM465.232 107H466.727L467.72 101.366C467.866 100.54 468.2 99.8838 468.722 99.3975C469.243 98.9053 469.855 98.6592 470.559 98.6592C471.18 98.6592 471.672 98.8438 472.035 99.2129C472.404 99.5762 472.589 100.062 472.589 100.672C472.589 100.795 472.58 100.941 472.562 101.111C472.545 101.281 472.521 101.46 472.492 101.647L471.543 107H473.037L473.978 101.63C474.03 101.302 474.065 101.041 474.083 100.848C474.106 100.654 474.118 100.479 474.118 100.32C474.118 99.418 473.843 98.6885 473.292 98.1318C472.747 97.5693 472.021 97.2881 471.112 97.2881C470.433 97.2881 469.832 97.4521 469.311 97.7803C468.789 98.1025 468.405 98.542 468.159 99.0986H468.062L468.344 97.4639H466.911L465.232 107Z" fill="#AAAAAA"/>
<path d="M336.379 45.6973H338.875C339.596 45.6973 340.152 45.876 340.545 46.2334C340.938 46.585 341.131 47.0742 341.125 47.7012C341.125 47.8066 341.119 47.915 341.107 48.0264C341.096 48.1318 341.084 48.2227 341.072 48.2988C340.955 49.0195 340.621 49.5908 340.07 50.0127C339.52 50.4287 338.79 50.6367 337.882 50.6367H335.5L336.379 45.6973ZM334.375 57L335.271 51.9463H337.53C337.647 51.9463 337.759 51.9463 337.864 51.9463C337.976 51.9404 338.078 51.9346 338.172 51.9287L339.754 57H341.406L339.701 51.709C340.516 51.5039 341.184 51.1172 341.705 50.5488C342.227 49.9805 342.552 49.2861 342.681 48.4658C342.722 48.1904 342.742 47.9121 342.742 47.6309C342.748 46.9453 342.607 46.3535 342.32 45.8555C342.033 45.3574 341.623 44.9766 341.09 44.7129C340.562 44.4492 339.936 44.3174 339.209 44.3174H335.078L332.846 57H334.375ZM353.518 47.4639H352.023L351.03 53.0977C350.884 53.9238 350.55 54.583 350.028 55.0752C349.507 55.5615 348.895 55.8047 348.191 55.8047C347.57 55.8047 347.075 55.623 346.706 55.2598C346.343 54.8906 346.161 54.4014 346.161 53.792C346.161 53.6689 346.17 53.5225 346.188 53.3525C346.205 53.1826 346.229 53.0039 346.258 52.8164L347.207 47.4639H345.713L344.772 52.834C344.72 53.1621 344.682 53.4229 344.658 53.6162C344.641 53.8096 344.632 53.9854 344.632 54.1436C344.632 55.0459 344.904 55.7783 345.449 56.3408C346 56.8975 346.729 57.1758 347.638 57.1758C348.317 57.1758 348.918 57.0146 349.439 56.6924C349.961 56.3643 350.345 55.9219 350.591 55.3652H350.688L350.406 57H351.839L353.518 47.4639ZM363.229 57L363.44 55.7607H360.294L362.421 43.7197H357.701L357.49 44.959H360.725L358.8 55.7607H355.539L355.328 57H363.229ZM371.597 48.5713C372.347 48.5713 372.93 48.8057 373.346 49.2744C373.762 49.7432 373.926 50.3438 373.838 51.0762C373.832 51.1465 373.823 51.2168 373.812 51.2871C373.806 51.3574 373.8 51.4248 373.794 51.4893H368.723C368.74 51.3896 368.758 51.29 368.775 51.1904C368.799 51.0908 368.819 50.9941 368.837 50.9004C368.972 50.1738 369.285 49.6055 369.777 49.1953C370.27 48.7793 370.876 48.5713 371.597 48.5713ZM374.655 54.5391H373.179C373.073 54.9258 372.801 55.248 372.361 55.5059C371.928 55.7578 371.43 55.8838 370.867 55.8838C370.082 55.8838 369.47 55.6436 369.03 55.1631C368.597 54.6826 368.421 54.0439 368.503 53.2471C368.509 53.1533 368.518 53.0537 368.529 52.9482C368.541 52.8369 368.556 52.7285 368.573 52.623H375.086L375.191 51.8584C375.209 51.7295 375.224 51.6006 375.235 51.4717C375.253 51.3369 375.268 51.1992 375.279 51.0586C375.355 50.3379 375.25 49.6934 374.963 49.125C374.682 48.5566 374.26 48.1084 373.697 47.7803C373.135 47.4521 372.473 47.2881 371.711 47.2881C370.932 47.2881 370.234 47.4375 369.619 47.7363C369.004 48.0293 368.503 48.4512 368.116 49.002C367.729 49.5469 367.475 50.1973 367.352 50.9531L367.167 52.1484C367.12 52.4707 367.085 52.7344 367.062 52.9395C367.044 53.1387 367.035 53.3262 367.035 53.502C367.035 54.6387 367.369 55.5352 368.037 56.1914C368.705 56.8477 369.622 57.1758 370.788 57.1758C371.444 57.1758 372.051 57.0615 372.607 56.833C373.164 56.6045 373.624 56.291 373.987 55.8926C374.356 55.4941 374.579 55.043 374.655 54.5391Z" fill="#AAAAAA"/>
<path d="M484.054 249.137H484.01L482.577 238.317H480.995L482.92 251H484.572L490.962 238.317H489.345L484.054 249.137ZM494.284 251.158C494.911 251.158 495.477 251.023 495.98 250.754C496.484 250.479 496.854 250.104 497.088 249.629H497.176L496.938 251H498.362L499.329 245.498C499.388 245.217 499.429 244.994 499.452 244.83C499.476 244.66 499.49 244.517 499.496 244.399C499.508 244.276 499.514 244.147 499.514 244.013C499.514 243.21 499.212 242.565 498.608 242.079C498.005 241.587 497.205 241.341 496.209 241.341C495.564 241.341 494.973 241.452 494.434 241.675C493.895 241.892 493.449 242.193 493.098 242.58C492.746 242.967 492.521 243.412 492.421 243.916H493.915C494.038 243.535 494.299 243.228 494.697 242.993C495.096 242.753 495.553 242.633 496.068 242.633C496.666 242.633 497.141 242.779 497.492 243.072C497.844 243.359 498.02 243.746 498.02 244.232C498.02 244.326 498.014 244.42 498.002 244.514C497.99 244.602 497.973 244.719 497.949 244.865L497.861 245.349L495.488 245.366C494.17 245.378 493.159 245.65 492.456 246.184C491.753 246.717 491.404 247.481 491.41 248.478C491.416 249.005 491.539 249.471 491.779 249.875C492.025 250.279 492.362 250.596 492.79 250.824C493.224 251.047 493.722 251.158 494.284 251.158ZM494.803 249.849C494.234 249.849 493.783 249.705 493.449 249.418C493.115 249.131 492.951 248.747 492.957 248.267C492.963 247.716 493.183 247.288 493.616 246.983C494.056 246.679 494.677 246.523 495.479 246.518L497.668 246.509L497.457 247.634C497.381 248.062 497.214 248.442 496.956 248.776C496.698 249.104 496.382 249.365 496.007 249.559C495.638 249.752 495.236 249.849 494.803 249.849ZM510.166 251L510.377 249.761H507.23L509.357 237.72H504.638L504.427 238.959H507.661L505.736 249.761H502.476L502.265 251H510.166ZM522.708 241.464H521.214L520.221 247.098C520.074 247.924 519.74 248.583 519.219 249.075C518.697 249.562 518.085 249.805 517.382 249.805C516.761 249.805 516.266 249.623 515.896 249.26C515.533 248.891 515.352 248.401 515.352 247.792C515.352 247.669 515.36 247.522 515.378 247.353C515.396 247.183 515.419 247.004 515.448 246.816L516.397 241.464H514.903L513.963 246.834C513.91 247.162 513.872 247.423 513.849 247.616C513.831 247.81 513.822 247.985 513.822 248.144C513.822 249.046 514.095 249.778 514.64 250.341C515.19 250.897 515.92 251.176 516.828 251.176C517.508 251.176 518.108 251.015 518.63 250.692C519.151 250.364 519.535 249.922 519.781 249.365H519.878L519.597 251H521.029L522.708 241.464ZM529.66 242.571C530.41 242.571 530.993 242.806 531.409 243.274C531.825 243.743 531.989 244.344 531.901 245.076C531.896 245.146 531.887 245.217 531.875 245.287C531.869 245.357 531.863 245.425 531.857 245.489H526.786C526.804 245.39 526.821 245.29 526.839 245.19C526.862 245.091 526.883 244.994 526.9 244.9C527.035 244.174 527.349 243.605 527.841 243.195C528.333 242.779 528.939 242.571 529.66 242.571ZM532.719 248.539H531.242C531.137 248.926 530.864 249.248 530.425 249.506C529.991 249.758 529.493 249.884 528.931 249.884C528.146 249.884 527.533 249.644 527.094 249.163C526.66 248.683 526.484 248.044 526.566 247.247C526.572 247.153 526.581 247.054 526.593 246.948C526.604 246.837 526.619 246.729 526.637 246.623H533.149L533.255 245.858C533.272 245.729 533.287 245.601 533.299 245.472C533.316 245.337 533.331 245.199 533.343 245.059C533.419 244.338 533.313 243.693 533.026 243.125C532.745 242.557 532.323 242.108 531.761 241.78C531.198 241.452 530.536 241.288 529.774 241.288C528.995 241.288 528.298 241.438 527.683 241.736C527.067 242.029 526.566 242.451 526.18 243.002C525.793 243.547 525.538 244.197 525.415 244.953L525.23 246.148C525.184 246.471 525.148 246.734 525.125 246.939C525.107 247.139 525.099 247.326 525.099 247.502C525.099 248.639 525.433 249.535 526.101 250.191C526.769 250.848 527.686 251.176 528.852 251.176C529.508 251.176 530.114 251.062 530.671 250.833C531.228 250.604 531.688 250.291 532.051 249.893C532.42 249.494 532.643 249.043 532.719 248.539Z" fill="#AAAAAA"/>
<path d="M258 214V226H398V214" stroke="#AAAAAA"/>
<path d="M258 131V119H569V131" stroke="#AAAAAA"/>
<path d="M114 150L102 150L102 109L114 109" stroke="#AAAAAA"/>
<path d="M138 81V69H569V81" stroke="#AAAAAA"/>
<path d="M465 214V226H546V214" stroke="#AAAAAA"/>
<path d="M2.24121 132.37C2.22949 132.411 2.2207 132.464 2.21484 132.528C2.20898 132.593 2.20605 132.678 2.20605 132.783C2.20605 133.451 2.39941 134.049 2.78613 134.576C3.17285 135.098 3.7002 135.511 4.36816 135.815C5.03613 136.114 5.79492 136.264 6.64453 136.264C7.54102 136.264 8.32324 136.105 8.99121 135.789C9.65918 135.467 10.1777 135.016 10.5469 134.436C10.9219 133.855 11.1094 133.179 11.1094 132.405C11.1094 131.878 11.0098 131.418 10.8105 131.025C10.6113 130.627 10.2891 130.27 9.84375 129.953C9.4043 129.637 8.82129 129.341 8.09473 129.065L7.16309 128.714C6.39551 128.421 5.85059 128.11 5.52832 127.782C5.21191 127.454 5.05371 127.041 5.05371 126.543C5.05371 125.928 5.2998 125.427 5.79199 125.04C6.29004 124.653 6.92578 124.46 7.69922 124.46C8.43164 124.46 9.03223 124.656 9.50098 125.049C9.97559 125.436 10.2129 125.925 10.2129 126.517C10.2129 126.634 10.21 126.701 10.2041 126.719H11.7334C11.7451 126.684 11.751 126.631 11.751 126.561C11.7568 126.484 11.7598 126.42 11.7598 126.367C11.7598 125.723 11.5869 125.151 11.2412 124.653C10.8955 124.155 10.415 123.766 9.7998 123.484C9.19043 123.197 8.49023 123.054 7.69922 123.054C6.86133 123.054 6.12012 123.209 5.47559 123.52C4.83691 123.824 4.33887 124.249 3.98145 124.794C3.62402 125.339 3.44531 125.972 3.44531 126.692C3.44531 127.489 3.67969 128.157 4.14844 128.696C4.61719 129.235 5.37598 129.704 6.4248 130.103L7.25977 130.419C8.09766 130.735 8.68066 131.058 9.00879 131.386C9.34277 131.708 9.50977 132.121 9.50977 132.625C9.50977 133.281 9.24609 133.817 8.71875 134.233C8.19141 134.649 7.51172 134.857 6.67969 134.857C6.11719 134.857 5.61328 134.761 5.16797 134.567C4.72852 134.374 4.38281 134.11 4.13086 133.776C3.87891 133.437 3.75293 133.05 3.75293 132.616C3.75293 132.581 3.75293 132.546 3.75293 132.511C3.75879 132.476 3.76465 132.429 3.77051 132.37H2.24121ZM18.5889 127.571C19.3389 127.571 19.9219 127.806 20.3379 128.274C20.7539 128.743 20.918 129.344 20.8301 130.076C20.8242 130.146 20.8154 130.217 20.8037 130.287C20.7979 130.357 20.792 130.425 20.7861 130.489H15.7148C15.7324 130.39 15.75 130.29 15.7676 130.19C15.791 130.091 15.8115 129.994 15.8291 129.9C15.9639 129.174 16.2773 128.605 16.7695 128.195C17.2617 127.779 17.8682 127.571 18.5889 127.571ZM21.6475 133.539H20.1709C20.0654 133.926 19.793 134.248 19.3535 134.506C18.9199 134.758 18.4219 134.884 17.8594 134.884C17.0742 134.884 16.4619 134.644 16.0225 134.163C15.5889 133.683 15.4131 133.044 15.4951 132.247C15.501 132.153 15.5098 132.054 15.5215 131.948C15.5332 131.837 15.5479 131.729 15.5654 131.623H22.0781L22.1836 130.858C22.2012 130.729 22.2158 130.601 22.2275 130.472C22.2451 130.337 22.2598 130.199 22.2715 130.059C22.3477 129.338 22.2422 128.693 21.9551 128.125C21.6738 127.557 21.252 127.108 20.6895 126.78C20.127 126.452 19.4648 126.288 18.7031 126.288C17.9238 126.288 17.2266 126.438 16.6113 126.736C15.9961 127.029 15.4951 127.451 15.1084 128.002C14.7217 128.547 14.4668 129.197 14.3438 129.953L14.1592 131.148C14.1123 131.471 14.0771 131.734 14.0537 131.939C14.0361 132.139 14.0273 132.326 14.0273 132.502C14.0273 133.639 14.3613 134.535 15.0293 135.191C15.6973 135.848 16.6143 136.176 17.7803 136.176C18.4365 136.176 19.043 136.062 19.5996 135.833C20.1562 135.604 20.6162 135.291 20.9795 134.893C21.3486 134.494 21.5713 134.043 21.6475 133.539ZM32.4756 136L32.6865 134.761H29.54L31.667 122.72H26.9473L26.7363 123.959H29.9707L28.0459 134.761H24.7852L24.5742 136H32.4756ZM40.8428 127.571C41.5928 127.571 42.1758 127.806 42.5918 128.274C43.0078 128.743 43.1719 129.344 43.084 130.076C43.0781 130.146 43.0693 130.217 43.0576 130.287C43.0518 130.357 43.0459 130.425 43.04 130.489H37.9688C37.9863 130.39 38.0039 130.29 38.0215 130.19C38.0449 130.091 38.0654 129.994 38.083 129.9C38.2178 129.174 38.5312 128.605 39.0234 128.195C39.5156 127.779 40.1221 127.571 40.8428 127.571ZM43.9014 133.539H42.4248C42.3193 133.926 42.0469 134.248 41.6074 134.506C41.1738 134.758 40.6758 134.884 40.1133 134.884C39.3281 134.884 38.7158 134.644 38.2764 134.163C37.8428 133.683 37.667 133.044 37.749 132.247C37.7549 132.153 37.7637 132.054 37.7754 131.948C37.7871 131.837 37.8018 131.729 37.8193 131.623H44.332L44.4375 130.858C44.4551 130.729 44.4697 130.601 44.4814 130.472C44.499 130.337 44.5137 130.199 44.5254 130.059C44.6016 129.338 44.4961 128.693 44.209 128.125C43.9277 127.557 43.5059 127.108 42.9434 126.78C42.3809 126.452 41.7188 126.288 40.957 126.288C40.1777 126.288 39.4805 126.438 38.8652 126.736C38.25 127.029 37.749 127.451 37.3623 128.002C36.9756 128.547 36.7207 129.197 36.5977 129.953L36.4131 131.148C36.3662 131.471 36.3311 131.734 36.3076 131.939C36.29 132.139 36.2812 132.326 36.2812 132.502C36.2812 133.639 36.6152 134.535 37.2832 135.191C37.9512 135.848 38.8682 136.176 40.0342 136.176C40.6904 136.176 41.2969 136.062 41.8535 135.833C42.4102 135.604 42.8701 135.291 43.2334 134.893C43.6025 134.494 43.8252 134.043 43.9014 133.539ZM55.7314 129.628C55.7314 129.599 55.7314 129.572 55.7314 129.549C55.7314 129.525 55.7314 129.502 55.7314 129.479C55.7314 128.834 55.5762 128.274 55.2656 127.8C54.9609 127.319 54.5303 126.947 53.9736 126.684C53.4229 126.414 52.7754 126.279 52.0312 126.279C51.2578 126.279 50.5664 126.432 49.957 126.736C49.3535 127.035 48.8555 127.469 48.4629 128.037C48.0703 128.6 47.8037 129.279 47.6631 130.076C47.6338 130.223 47.6074 130.363 47.584 130.498C47.5664 130.627 47.5459 130.753 47.5225 130.876C47.5049 130.993 47.4873 131.104 47.4697 131.21C47.4521 131.315 47.4375 131.412 47.4258 131.5C47.4023 131.705 47.3818 131.893 47.3643 132.062C47.3525 132.232 47.3467 132.391 47.3467 132.537C47.3467 133.287 47.499 133.935 47.8037 134.479C48.1143 135.024 48.5566 135.446 49.1309 135.745C49.7109 136.038 50.3965 136.185 51.1875 136.185C51.8613 136.185 52.4707 136.064 53.0156 135.824C53.5605 135.578 54.0176 135.235 54.3867 134.796C54.7559 134.351 55.0078 133.829 55.1426 133.231H53.6572C53.4932 133.735 53.1943 134.131 52.7607 134.418C52.333 134.699 51.8291 134.84 51.249 134.84C50.4814 134.84 49.8867 134.623 49.4648 134.189C49.0488 133.756 48.8408 133.135 48.8408 132.326C48.8408 132.162 48.8525 131.975 48.876 131.764C48.8994 131.553 48.9258 131.359 48.9551 131.184L49.0605 130.604C49.4238 128.611 50.3965 127.615 51.9785 127.615C52.6465 127.615 53.1914 127.8 53.6133 128.169C54.0352 128.538 54.2461 129.01 54.2461 129.584C54.2461 129.596 54.2461 129.604 54.2461 129.61C54.2461 129.616 54.2461 129.622 54.2461 129.628H55.7314ZM62.1914 123.906L61.7432 126.49H59.1943L58.9834 127.765H61.5234L60.5566 133.003C60.5273 133.149 60.5068 133.287 60.4951 133.416C60.4834 133.539 60.4775 133.656 60.4775 133.768C60.4775 134.506 60.7266 135.071 61.2246 135.464C61.7285 135.851 62.458 136.044 63.4131 136.044C63.7412 136.044 64.1016 136.032 64.4941 136.009C64.8867 135.991 65.1855 135.974 65.3906 135.956L65.6016 134.69C65.4141 134.708 65.1621 134.723 64.8457 134.734C64.5293 134.74 64.1924 134.743 63.835 134.743C62.6162 134.743 62.0068 134.31 62.0068 133.442C62.0068 133.372 62.0098 133.302 62.0156 133.231C62.0215 133.155 62.0332 133.076 62.0508 132.994L63.0176 127.765H66.8672L67.0869 126.49H63.2197L63.668 123.906H62.1914ZM73.2832 136.167C74.4316 136.167 75.375 135.845 76.1133 135.2C76.8574 134.556 77.335 133.645 77.5459 132.467L77.7832 131.14C77.8125 130.94 77.833 130.753 77.8447 130.577C77.8623 130.401 77.8711 130.249 77.8711 130.12C77.8711 129.358 77.71 128.69 77.3877 128.116C77.0654 127.542 76.6113 127.097 76.0254 126.78C75.4395 126.458 74.748 126.297 73.9512 126.297C72.8672 126.297 71.9502 126.628 71.2002 127.29C70.4502 127.946 69.9756 128.846 69.7764 129.988L69.5479 131.307C69.5186 131.488 69.4951 131.67 69.4775 131.852C69.4658 132.033 69.46 132.215 69.46 132.396C69.46 133.141 69.6182 133.797 69.9346 134.365C70.2568 134.928 70.7051 135.37 71.2793 135.692C71.8535 136.009 72.5215 136.167 73.2832 136.167ZM73.9248 127.615C74.6689 127.615 75.2666 127.844 75.7178 128.301C76.1748 128.758 76.4033 129.361 76.4033 130.111C76.4033 130.24 76.3975 130.375 76.3857 130.516C76.3799 130.656 76.3682 130.791 76.3506 130.92L76.1309 132.159C75.9727 133.021 75.6592 133.686 75.1904 134.154C74.7217 134.617 74.127 134.849 73.4062 134.849C72.6562 134.849 72.0527 134.62 71.5957 134.163C71.1445 133.7 70.9189 133.088 70.9189 132.326C70.9189 132.191 70.9248 132.054 70.9365 131.913C70.9482 131.767 70.9688 131.605 70.998 131.43L71.209 130.226C71.3555 129.411 71.6689 128.772 72.1494 128.31C72.6299 127.847 73.2217 127.615 73.9248 127.615ZM84.3223 131.711C84.5391 130.504 84.9902 129.558 85.6758 128.872C86.3613 128.187 87.2021 127.844 88.1982 127.844C88.8545 127.844 89.3701 127.952 89.7451 128.169L90.0264 126.508C89.6572 126.314 89.1885 126.218 88.6201 126.218C87.7588 126.218 87.0176 126.446 86.3965 126.903C85.7812 127.36 85.3154 128.025 84.999 128.898H84.8057L85.2275 126.464H81.668L81.4658 127.659H83.5752L82.1074 136H83.5576L84.3223 131.711ZM86.5195 136L86.7305 134.805H80.3936L80.1826 136H86.5195Z" fill="#AAAAAA"/>
<path d="M150.43 116.148C146.797 116.148 144.148 117.648 142.812 120.461H142.391V116.57H138.453V150.578H142.508V138.062H142.953C144.055 140.852 146.75 142.422 150.43 142.422C156.312 142.422 160.156 138.18 160.156 131.664V126.93C160.156 120.391 156.312 116.148 150.43 116.148ZM149.281 119.805C153.477 119.805 156.148 122.805 156.148 127.492V131.148C156.148 135.836 153.477 138.859 149.281 138.859C145.086 138.859 142.414 135.859 142.414 131.148V127.492C142.414 122.805 145.086 119.805 149.281 119.805ZM217.32 145.211V142H214.766C211.25 142 210.57 141.18 210.57 137.102V130.844C210.57 127.562 208.109 125.383 203.352 125.289V124.914C208.109 124.797 210.57 122.617 210.57 119.336V113.078C210.57 109 211.25 108.18 214.766 108.18H217.32V104.969H214.133C208.438 104.969 206.633 106.773 206.633 112.562V117.812C206.633 121.445 204.523 123.531 199.039 122.969V127.211C204.523 126.648 206.633 128.758 206.633 132.367V137.617C206.633 143.406 208.438 145.211 214.133 145.211H217.32ZM139.695 241.211H142.883C148.578 241.211 150.383 239.406 150.383 233.617V228.367C150.383 224.758 152.492 222.648 157.977 223.211V218.969C152.492 219.531 150.383 217.445 150.383 213.812V208.562C150.383 202.773 148.578 200.969 142.883 200.969H139.695V204.18H142.25C145.766 204.18 146.445 205 146.445 209.078V215.336C146.445 218.617 148.906 220.797 153.664 220.914V221.289C148.906 221.383 146.445 223.562 146.445 226.844V233.102C146.445 237.18 145.766 238 142.25 238H139.695V241.211Z" fill="#FFA11F"/>
<path d="M278.117 172.492C277.461 167.266 273.617 164.078 267.992 164.078C261.078 164.078 257.047 168.32 257.047 175.609V178.938C257.047 186.227 261.078 190.469 267.992 190.469C273.617 190.469 277.484 187.305 278.117 182.125H274.18C273.688 185.031 271.203 186.883 267.922 186.883C263.492 186.883 261.031 183.883 261.031 178.422V176.125C261.031 170.664 263.492 167.641 267.922 167.641C271.203 167.641 273.688 169.516 274.18 172.492H278.117ZM297.195 190.469C303.922 190.469 308.211 186.086 308.211 179.219V175.375C308.211 168.508 303.922 164.125 297.195 164.125C290.469 164.125 286.18 168.508 286.18 175.375V179.219C286.18 186.086 290.469 190.469 297.195 190.469ZM297.195 167.641C301.555 167.641 304.273 170.734 304.273 175.727V178.844C304.273 183.859 301.555 186.93 297.195 186.93C292.836 186.93 290.117 183.859 290.117 178.844V175.727C290.117 170.734 292.836 167.641 297.195 167.641ZM337.977 190V186.695H329.586V154.586H316.977V157.891H325.602V186.695H316.906V190H337.977ZM356.539 190.469C363.266 190.469 367.555 186.086 367.555 179.219V175.375C367.555 168.508 363.266 164.125 356.539 164.125C349.812 164.125 345.523 168.508 345.523 175.375V179.219C345.523 186.086 349.812 190.469 356.539 190.469ZM356.539 167.641C360.898 167.641 363.617 170.734 363.617 175.727V178.844C363.617 183.859 360.898 186.93 356.539 186.93C352.18 186.93 349.461 183.859 349.461 178.844V175.727C349.461 170.734 352.18 167.641 356.539 167.641ZM385.203 178.609C385.203 172.141 388.531 168.25 394.156 168.25C395.539 168.25 397.18 168.531 398.352 168.953V164.477C397.508 164.125 396.125 163.914 394.672 163.914C389.773 163.914 386.609 166.352 385.672 171.062H385.156V164.57H375.664V167.758H381.312V186.812H376.18V190H393.078V186.812H385.203V178.609ZM415.883 172.141C418.203 172.141 420.125 170.172 420.125 167.805C420.125 165.438 418.203 163.469 415.883 163.469C413.562 163.469 411.641 165.438 411.641 167.805C411.641 170.172 413.562 172.141 415.883 172.141ZM415.883 190.141C418.203 190.141 420.125 188.195 420.125 185.805C420.125 183.438 418.203 181.492 415.883 181.492C413.562 181.492 411.641 183.438 411.641 185.805C411.641 188.195 413.562 190.141 415.883 190.141Z" fill="#2A94C0"/>
<path d="M474.219 178.609C474.219 172.141 477.547 168.25 483.172 168.25C484.555 168.25 486.195 168.531 487.367 168.953V164.477C486.523 164.125 485.141 163.914 483.688 163.914C478.789 163.914 475.625 166.352 474.688 171.062H474.172V164.57H464.68V167.758H470.328V186.812H465.195V190H482.094V186.812H474.219V178.609ZM511.766 183.438C511.062 185.664 508.695 187.023 505.484 187.023C501.148 187.023 498.383 184.023 498.383 179.359V178.328H515.703V175.844C515.703 168.484 511.812 164.102 505.203 164.102C498.734 164.102 494.445 168.508 494.445 175.211V179.031C494.445 186.273 498.5 190.469 505.484 190.469C510.828 190.469 514.859 187.633 515.633 183.438H511.766ZM505.18 167.523C509.281 167.523 511.766 170.453 511.766 175.305H498.383C498.383 170.43 500.938 167.523 505.18 167.523ZM532.977 190.422C536.609 190.422 539.281 188.922 540.594 186.109H541.039V190H544.953V154.586H540.898V168.508H540.477C539.375 165.719 536.656 164.148 532.977 164.148C527.094 164.148 523.25 168.391 523.25 174.906V179.641C523.25 186.18 527.094 190.422 532.977 190.422ZM534.148 186.789C529.953 186.789 527.258 183.766 527.258 179.078V175.422C527.258 170.734 529.953 167.734 534.148 167.734C538.32 167.734 541.016 170.734 541.016 175.422V179.078C541.016 183.789 538.32 186.789 534.148 186.789ZM564.242 172.141C566.562 172.141 568.484 170.172 568.484 167.805C568.484 165.438 566.562 163.469 564.242 163.469C561.922 163.469 560 165.438 560 167.805C560 170.172 561.922 172.141 564.242 172.141ZM562.203 197.805L566.609 182.547H561.336L558.43 197.805H562.203Z" fill="#74A800"/>
</svg>
